<?xml version="1.0" encoding="UTF-8" standalone="no"?><!DOCTYPE svg PUBLIC "-//W3C//DTD SVG 1.1//EN" "http://www.w3.org/Graphics/SVG/1.1/DTD/svg11.dtd"><svg width="100%" height="100%" viewBox="0 0 1000 250" version="1.1" xmlns="http://www.w3.org/2000/svg" xmlns:xlink="http://www.w3.org/1999/xlink" xml:space="preserve" xmlns:serif="http://www.serif.com/" style="fill-rule:evenodd;clip-rule:evenodd;stroke-linejoin:round;stroke-miterlimit:2;"><g><path d="M182.815,228.333c-1.919,-0.822 -3.015,-1.37 -4.659,-3.015c-3.518,-3.463 -4.202,-8.934 -1.644,-13.156l0.548,-1.096c-6.51,-9.14 -13.273,-18.097 -20.282,-26.86l-1.37,0c-3.015,0.822 -5.208,0.548 -7.948,-0.822c-3.837,-1.644 -6.03,-4.933 -6.304,-9.045l0,-1.919l-3.015,-1.096c-7.927,-2.802 -15.876,-5.543 -23.845,-8.223c-2.193,-0.822 -2.467,-0.822 -3.289,0.548c-1.096,1.096 -1.919,1.919 -3.563,2.741c-4.385,2.467 -9.593,1.37 -13.156,-2.193c-1.644,-1.644 -2.193,-2.741 -2.741,-4.659c-0.548,-1.919 -0.548,-3.289 0,-5.208l0.274,-1.644l-2.467,-1.37l-3.837,-2.193l-3.015,-1.919c-1.838,-1.079 -3.665,-2.175 -5.482,-3.289l-0.822,-0.274l-0.822,0.822c-1.37,1.096 -3.563,2.193 -5.208,2.467l-3.289,0.274c-3.289,-0.274 -6.304,-2.193 -8.497,-5.208c-1.37,-1.919 -2.193,-5.756 -1.644,-8.223c0.274,-1.37 1.37,-3.289 1.644,-3.837c0.548,-0.274 0.548,-0.822 0,-1.096l-1.37,-1.919l-4.933,-7.4c-2.857,-4.313 -5.874,-8.519 -9.045,-12.608l-2.193,-3.289c-2.193,-3.289 -2.193,-3.015 -3.289,-2.741c-1.37,0.548 -4.659,0.274 -6.03,0c-5.59,-1.707 -9.038,-7.414 -7.948,-13.156c1.37,-4.111 4.111,-6.852 8.497,-8.223c1.919,-0.548 1.919,-0.548 4.111,-0.274c0.822,0.274 0.822,0.274 1.096,-0.274l0.548,-1.37c0.662,-0.898 1.302,-1.811 1.919,-2.741c1.524,-3.448 3.359,-6.751 5.482,-9.867l0.822,-1.37l0.822,-1.644c0.404,-0.676 0.862,-1.317 1.37,-1.919l0.548,-0.822c0.548,-1.096 0.548,-1.644 0,-1.919c-0.822,-0.822 -2.193,-3.563 -2.467,-5.756l0,-3.563c0.822,-3.837 3.289,-6.852 7.126,-8.223c1.919,-0.548 3.563,-0.822 5.482,-0.274c2.193,0.274 4.385,1.37 6.03,3.015c1.096,1.096 1.37,1.096 1.919,1.096l1.644,-0.822l0.274,-0.274l4.659,-1.919c3.172,-1.869 6.468,-3.518 9.867,-4.933l2.467,-1.096l0.822,-0.548l-0.274,-2.467c0,-2.741 0.274,-3.837 1.919,-6.304c1.37,-2.193 3.289,-3.837 5.756,-4.659c1.644,-0.548 5.756,-0.548 7.4,0.274c2.467,0.822 5.482,4.111 6.304,6.304l0.274,0.822l2.467,-0.274l5.482,0c7.76,-0.624 15.526,-1.172 23.297,-1.644c0.274,0 0.548,-0.274 0.548,-0.822c0,-0.822 1.096,-3.015 1.644,-3.837l4.111,-3.015c1.644,-0.822 3.015,-1.096 5.208,-0.822c2.193,0 2.193,0 4.111,0.822c3.837,2.193 6.304,5.756 6.304,9.867l0,0.822l2.741,0.822l11.511,3.837l9.319,3.015l2.193,0.822l1.37,-1.37c1.644,-1.644 2.467,-2.193 4.659,-3.015c1.644,-0.274 4.385,-0.548 6.03,0c3.015,0.548 6.304,3.563 7.674,6.852c0.548,1.37 0.548,1.644 0.548,4.111c0,2.193 0,2.741 -0.548,4.111l-0.548,1.644l0.822,0.822l16.719,17.267l2.467,2.467l1.37,-0.822c3.015,-1.37 5.756,-1.096 8.771,0.274c3.837,2.193 6.03,5.482 6.03,9.867c0,4.111 -1.919,7.4 -4.933,9.319l-1.644,0.822l2.741,11.511l0.548,1.644l1.37,0.274c5.535,0.603 9.776,5.331 9.776,10.899c0,2.9 -1.151,5.685 -3.198,7.739l-1.644,1.644c-1.096,0.822 -3.563,1.644 -4.933,1.644l-1.919,0c-0.822,0.274 -0.548,-0.274 -3.289,7.674c-1.182,3.416 -2.461,6.798 -3.837,10.141l-2.741,7.126l-0.274,1.37l1.096,1.37c2.219,2.072 3.48,4.976 3.48,8.012c0,5.571 -4.246,10.3 -9.784,10.9c-2.467,0.274 -6.03,-0.548 -8.497,-2.467l-1.096,-0.548l-3.015,1.644c-2.772,1.832 -5.606,3.569 -8.497,5.208c-3.787,1.964 -7.448,4.161 -10.963,6.578l-1.644,1.096l-2.193,0.822l-0.822,0.548c0.498,7.313 1.046,14.622 1.644,21.927l1.096,0.548c2.741,0.822 4.933,2.467 6.304,4.933c1.919,2.741 1.919,7.948 0.274,10.963c-1.096,1.919 -3.837,4.111 -6.03,4.933c-1.919,0.822 -4.659,0.822 -6.852,0.274l-0,0Zm-0.548,-21.104c-0.146,-7.151 -0.695,-14.289 -1.644,-21.378l-2.467,-1.096c-5.047,-1.765 -10.073,-3.592 -15.075,-5.482c-0.822,-0.274 -0.822,-0.274 -1.37,0.548l-0.548,0.822l1.919,2.467c5.642,7.44 11.216,14.932 16.719,22.475c1.644,1.919 2.193,2.467 2.467,1.644l-0,0Zm-1.919,-27.682l-0.274,-4.659l-1.096,-13.978l-0.548,-7.948l-0.274,-4.385l0,-1.096l-1.37,-0.274l-1.096,0l-1.37,1.644l-1.919,2.741l-6.03,8.223l-5.208,7.126l0.548,1.096c1.37,2.193 1.644,3.289 1.644,5.482l0,1.919l0.822,0.274c2.248,0.666 4.446,1.49 6.578,2.467c3.23,0.9 6.429,1.905 9.593,3.015l0,-1.644l0,-0Zm6.852,0.548c3.096,-1.844 6.203,-3.671 9.319,-5.482l3.837,-2.467l9.319,-5.756c1.644,-0.822 1.644,-1.096 1.644,-1.644c-0.548,-1.919 -0.548,-3.563 -0.548,-5.208l0.274,-1.644l-1.919,-1.096c-6.89,-4.201 -13.834,-8.313 -20.83,-12.334l-1.37,0.822l-2.193,1.37c-1.37,0.548 -1.37,0.274 -1.096,4.111l0.548,5.208l0.274,4.111l0.274,2.193l1.37,18.089l1.096,-0.274l-0,0Zm-43.031,-13.978c1.37,-1.37 3.015,-2.467 4.659,-3.015c1.644,-0.548 4.659,-0.548 6.578,0l1.644,0l0.822,-1.096l0.822,-1.37c4.295,-5.716 8.408,-11.566 12.334,-17.541l-0.548,-0.822c0,-0.548 -0.822,-0.548 -4.933,0.548c-7.557,2.106 -15.141,4.116 -22.749,6.03c-9.708,2.563 -19.392,5.212 -29.053,7.948l3.015,1.37l6.03,2.193l14.252,4.933l4.111,1.644c1.644,0.548 1.919,0.548 3.015,-0.822l0,0Zm70.713,-13.43c1.644,-1.37 4.385,-2.467 6.578,-2.741c1.644,0 1.644,-0.274 3.289,-4.659c1.743,-5.361 3.663,-10.663 5.756,-15.897l1.37,-3.563l0.822,-1.919l0,-0.274l-1.644,-1.37c-1.37,-1.096 -1.37,-1.37 -1.919,-1.096c-10.811,3.689 -21.505,7.711 -32.068,12.06l-4.659,1.919l-1.096,0.274l0,2.193l-0.274,2.193l2.467,1.37l4.659,2.741c4.112,2.216 8.135,4.594 12.06,7.126l3.837,2.193l0.822,-0.548l-0,0Zm-96.751,-3.289l9.593,-2.467l6.304,-1.37c7.01,-1.562 13.959,-3.391 20.83,-5.482c3.737,-1.039 7.483,-2.044 11.237,-3.015c2.741,-0.548 3.015,-0.822 3.015,-2.467l0.274,-1.644l0,-0.822l-1.644,-1.37c-6.645,-4.603 -13.315,-9.171 -20.008,-13.704l-2.193,1.096c-1.644,0.548 -2.193,0.822 -4.111,0.822c-1.919,0 -2.467,0 -4.659,-0.548c-2.196,2.724 -4.481,5.375 -6.852,7.948l-4.659,5.756c-4.706,5.95 -9.186,12.076 -13.43,18.364l0.548,0.548l5.756,-1.644l-0,-0Zm-22.749,-1.37c1.37,-1.096 2.741,-1.919 4.933,-2.193c1.919,-0.548 3.289,-0.548 4.933,0l1.644,0.548l1.096,-1.096l4.659,-5.756l6.03,-7.674c4.337,-5.702 8.722,-11.366 13.156,-16.993l-0.822,0c-8.421,3.48 -16.92,6.77 -25.49,9.867l-9.867,3.837c-5.473,2.125 -10.954,4.226 -16.445,6.304l-0.274,1.37l-0.274,2.467l0,1.37l1.37,1.096l3.563,2.193l3.289,1.919l5.756,3.563c1.096,0.548 1.37,0.548 2.741,-0.822l0,0Zm98.122,-19.186c3.597,-1.281 7.161,-2.652 10.689,-4.111l16.445,-6.304l5.208,-1.919l1.919,-0.822l0.274,-4.385l-0.548,-0.548l-3.015,-1.919l-8.771,-4.933c-4.718,-2.64 -9.378,-5.382 -13.978,-8.223c-1.096,-0.822 -1.37,-0.822 -1.919,-0.274c-1.096,0.822 -3.837,2.193 -5.208,2.467c-2.467,0.274 -2.467,0.274 -2.467,0.822c-1.59,8.59 -3.603,17.097 -6.03,25.49l-0.548,2.467l0.548,0.548c1.919,1.37 3.015,2.467 3.015,2.741l4.385,-1.096l-0,0Zm-113.47,0l4.385,-1.919c9.004,-3.809 18.147,-7.283 27.408,-10.415l18.364,-7.4l0,-2.467l0.274,-2.193l-2.741,-1.644c-8.744,-5.192 -17.424,-10.492 -26.038,-15.897l-0.548,-0.274l-1.644,0.822c-2.193,1.644 -3.289,1.919 -6.03,2.193l-2.193,0l-0.548,0.822l-1.37,3.015l-2.193,4.933l-3.563,7.948c-1.261,2.523 -2.449,5.083 -3.563,7.674c-1.862,4.427 -3.599,8.905 -5.208,13.43c0.548,0 0.548,0.274 1.37,1.37c0.822,0.822 0.822,0.822 3.837,0l-0,-0Zm93.736,-1.644l5.756,-1.919c0.548,0 0.548,-0.274 0.822,-0.822c1.342,-5.375 2.621,-10.766 3.837,-16.171l0.822,-2.741l1.919,-8.223c0.274,-0.548 0,-0.822 -0.548,-1.096l-2.193,-1.644c-1.096,-1.37 -0.822,-1.37 -4.385,0.274c-4.735,2.26 -9.583,4.273 -14.526,6.03c-3.737,1.248 -7.397,2.712 -10.963,4.385l-1.919,0.822l0,1.919c0,1.919 -0.274,3.837 -0.822,4.111c6.816,4.949 13.578,9.975 20.282,15.075c0.548,0.548 1.37,0.548 1.919,0l-0,0Zm-109.085,-1.919l2.741,-0.274l2.193,-0.548l0.274,-0.822l1.096,-2.741l1.37,-3.289c2.064,-5.122 4.351,-10.151 6.852,-15.075l1.096,-2.467c2.027,-4.152 3.947,-8.356 5.756,-12.608c0.274,-0.274 -0.274,-0.822 -0.822,-1.37l-2.193,-2.741l-0.274,-0.274c-5.315,1.437 -10.716,2.536 -16.171,3.289l-5.756,1.096l-4.933,1.096l-5.482,1.096c-5.208,0.822 -4.933,0.822 -4.933,1.919c-0.274,1.37 -0.548,2.467 -1.644,4.385l-0.548,1.644l0.274,0.548l1.37,2.193l0.274,0.274l0.822,1.096l4.111,5.756c4.196,6.254 8.584,12.378 13.156,18.364l1.37,-0.548l-0,0Zm167.191,-19.186l1.37,-1.096c1.919,-0.822 1.919,-0.822 1.37,-2.741l-0.548,-3.563c-0.481,-2.209 -1.029,-4.403 -1.644,-6.578c-0.274,-1.37 -0.274,-1.37 -1.096,-1.37c-3.906,-0.118 -7.464,-2.316 -9.319,-5.756l-1.096,-1.096c-5.425,0.809 -10.819,1.815 -16.171,3.015c-1.096,0 -1.096,0 -1.37,2.193c0,1.096 0,1.096 0.822,1.644l3.015,1.919l1.644,0.822l1.37,0.822c3.61,1.761 7.09,3.776 10.415,6.03c3.655,2.092 7.404,4.012 11.237,5.756l-0,0Zm-78.662,-4.385c4.503,-1.53 8.898,-3.362 13.156,-5.482c1.977,-0.902 3.988,-1.724 6.03,-2.467l4.933,-2.193l4.111,-1.644l0,-5.208l-2.741,-1.096l-6.304,-2.741c-2.894,-1.034 -5.73,-2.224 -8.497,-3.563l-3.563,-1.37c-11.237,-4.933 -10.141,-4.659 -11.237,-3.289c-0.822,0.822 -3.015,2.193 -4.111,2.467l-1.096,0.822c0.023,7.126 0.023,14.252 0,21.378l0.548,0.274c1.37,0 4.659,2.193 5.756,3.837c0.274,0.822 0.548,0.822 1.096,0.822l1.919,-0.548l0,-0Zm-18.912,-2.467l2.467,-1.37l1.644,-0.548l0,-10.963l-0.274,-10.963l-1.919,-0.822c-2.193,-1.096 -3.837,-2.741 -4.933,-4.933c-0.822,-1.644 -0.822,-1.919 -1.096,-3.837l0.274,-3.563c0.548,-1.919 0.548,-1.919 0,-2.193l-1.644,-1.37l-3.563,-2.741c-6.709,-4.756 -13.29,-9.691 -19.734,-14.8l-1.096,-0.822l-1.096,0.548l-2.467,1.096l-1.644,0.548l-0.822,7.126c-0.455,5.947 -1.003,11.886 -1.644,17.815l1.37,0.822c3.015,1.644 5.208,4.385 6.03,7.4l0,4.933c-0.274,1.37 -0.274,1.37 1.096,1.919l1.644,1.37l2.467,1.37c1.116,0.606 2.212,1.246 3.289,1.919c3.568,1.938 7.043,4.042 10.415,6.304c3.405,2.061 6.786,4.162 10.141,6.304l1.096,-0.548l-0,0Zm-86.336,-14.8c5.889,-0.859 11.741,-1.957 17.541,-3.289c5.501,-0.899 10.983,-1.904 16.445,-3.015l0.548,-4.385l-3.015,-2.193c-3.837,-3.015 -9.867,-7.674 -10.415,-8.497c-1.751,-1.258 -3.487,-2.537 -5.208,-3.837l-1.644,0.548c-2.193,1.096 -3.837,1.37 -6.304,1.37l-1.919,-0.274l-0.822,1.644l-1.096,1.919l-1.644,2.741c-2.721,4.048 -5.192,8.259 -7.4,12.608l-1.096,2.193l1.37,1.644c0.822,1.096 1.37,1.644 1.644,1.37l3.015,-0.548l0,0Zm160.338,-1.919l6.852,-1.37c5.756,-0.822 5.208,-0.822 5.208,-2.467l0.822,-3.015l0.548,-1.644l-2.467,-2.467c-5.788,-5.908 -11.543,-11.846 -17.267,-17.815l-1.096,0.274l-1.644,0.548l-1.096,0.274l-0.274,1.919c-0.819,6.376 -1.458,12.774 -1.919,19.186c-0.274,0.548 0,0.548 1.37,1.37l2.467,1.644c1.096,0.822 2.741,3.015 3.015,3.837c0.274,0.548 0.274,0.548 1.37,0.274l4.111,-0.548l-0,-0Zm-23.297,-3.563c1.096,-1.096 3.289,-2.467 4.385,-2.467l1.096,-0.548c0.887,-4.982 1.436,-10.018 1.644,-15.075l0.274,-4.385l0.274,-1.919l-1.37,-0.548l-3.015,-2.193c-1.37,-1.37 -1.37,-1.644 -1.919,-1.37c-7.53,3.06 -15.114,5.984 -22.749,8.771l-5.756,2.467l-4.659,1.644l-0.822,0.274l0,1.644c0,1.644 -0.274,1.37 3.015,2.741l2.467,1.096l4.111,1.644l4.933,1.919c5.524,2.49 11.098,4.866 16.719,7.126l1.37,-0.822Zm-98.122,-9.593c0.274,-0.548 2.467,-1.37 3.563,-1.644c0.822,-0.274 1.096,-0.274 1.096,-0.822c0.639,-8.23 1.37,-16.453 2.193,-24.667c0,-0.548 0,-0.548 -0.822,-1.096c-1.37,-0.548 -2.741,-1.644 -3.837,-2.467l-0.822,-1.096l-1.096,0.548l-1.919,0.822c-4.315,2.245 -8.703,4.348 -13.156,6.304l-3.837,1.919l-0.274,2.467l-0.274,3.837c-0.548,1.096 -0.548,1.096 0,1.644c6.115,5.117 12.521,9.876 19.186,14.252l0,-0Zm66.876,-11.786c4.548,-1.546 9.029,-3.283 13.43,-5.208c5.669,-2.181 11.333,-4.373 16.993,-6.578c0.548,0 1.096,-1.096 1.096,-2.193l-0.274,-0.822l-4.933,-1.919l-10.963,-3.563l-7.4,-2.467c-1.919,-0.822 -2.193,-0.548 -3.015,0.548l-1.644,1.644c-1.096,0.822 -3.563,1.919 -5.208,2.193c-1.37,0.274 -1.919,0.548 -1.919,1.37c-0.93,4.878 -2.027,9.723 -3.289,14.526l3.289,3.015l0.822,0.548l3.015,-1.096l0,0Zm-18.638,-1.919c0.548,-0.822 3.837,-1.919 6.03,-1.919l0.274,-1.096l0.822,-3.015c0.892,-3.66 1.806,-7.314 2.741,-10.963c0.274,-0.274 -0.274,-0.548 -1.096,-1.37c-2.193,-1.644 -3.289,-3.289 -4.111,-4.933l-0.274,-0.822l-2.467,0c-3.479,0.173 -6.952,0.447 -10.415,0.822l-7.948,0.548l-7.4,0.548l-3.015,0.274l0,1.37l-0.274,1.096l1.096,0.548c6.088,4.371 12.029,8.941 17.815,13.704c1.077,0.73 2.086,1.556 3.015,2.467l1.37,0.822c2.193,1.919 3.563,2.467 3.837,1.919l-0,-0Z" style="fill:#099270;fill-rule:nonzero;stroke:#099270;stroke-width:1.5px;"/></g><g><g><g transform="matrix(151.908291,0,0,151.908291,272.283053,124.650316)"><path d="M0.336,-0.702c0.031,0 0.058,0.001 0.08,0.002c0.022,0.002 0.043,0.004 0.061,0.007c0.019,0.003 0.038,0.007 0.058,0.013l-0.011,0.093c-0.021,-0.002 -0.04,-0.003 -0.058,-0.004c-0.018,-0.001 -0.037,-0.002 -0.057,-0.002c-0.02,-0.001 -0.045,-0.001 -0.073,-0.001c-0.038,0 -0.068,0.008 -0.091,0.023c-0.022,0.015 -0.038,0.041 -0.047,0.077c-0.009,0.036 -0.014,0.086 -0.014,0.149c0,0.063 0.005,0.113 0.014,0.149c0.009,0.036 0.025,0.062 0.047,0.077c0.022,0.015 0.052,0.023 0.091,0.023c0.045,0 0.082,-0.001 0.113,-0.002c0.03,-0.001 0.06,-0.004 0.09,-0.008l0.011,0.093c-0.03,0.009 -0.062,0.016 -0.094,0.02c-0.032,0.004 -0.072,0.006 -0.12,0.006c-0.069,0 -0.124,-0.011 -0.166,-0.035c-0.041,-0.023 -0.071,-0.06 -0.09,-0.113c-0.018,-0.052 -0.028,-0.122 -0.028,-0.21c0,-0.088 0.009,-0.158 0.028,-0.21c0.018,-0.052 0.048,-0.089 0.09,-0.112c0.041,-0.023 0.097,-0.035 0.166,-0.035Z" style="fill:#fff;fill-rule:nonzero;stroke:#fff;stroke-width:0.01px;"/></g><g transform="matrix(151.908291,0,0,151.908291,353.452443,124.650316)"><path d="M0.537,-0.491l-0.185,0.506c-0.008,0.023 -0.019,0.046 -0.032,0.069c-0.013,0.023 -0.03,0.044 -0.049,0.063c-0.02,0.019 -0.043,0.033 -0.071,0.044c-0.027,0.01 -0.059,0.015 -0.096,0.012l-0.01,-0.072c0.04,-0.012 0.071,-0.027 0.093,-0.046c0.022,-0.019 0.04,-0.044 0.052,-0.074l0.028,-0.064c0.006,-0.014 0.012,-0.031 0.017,-0.05c0.005,-0.019 0.01,-0.035 0.015,-0.05l0.107,-0.338l0.13,0Zm-0.396,0l0.109,0.338c0.003,0.012 0.006,0.023 0.009,0.035c0.003,0.011 0.005,0.023 0.007,0.035l0.025,0l-0.039,0.084l-0.032,-0c-0.009,-0 -0.018,-0.003 -0.025,-0.008c-0.007,-0.005 -0.012,-0.013 -0.015,-0.022l-0.169,-0.461l0.129,0Z" style="fill:#fff;fill-rule:nonzero;stroke:#fff;stroke-width:0.01px;"/></g><g transform="matrix(151.908291,0,0,151.908291,430.9411,124.650316)"><path d="M0.358,-0.503c0.063,0 0.109,0.02 0.137,0.059c0.028,0.039 0.043,0.105 0.043,0.196c0,0.04 -0.004,0.075 -0.01,0.107c-0.007,0.032 -0.019,0.059 -0.036,0.082c-0.017,0.023 -0.04,0.04 -0.07,0.052c-0.03,0.012 -0.068,0.018 -0.114,0.018c-0.017,0 -0.036,-0.001 -0.057,-0.002c-0.021,-0.001 -0.043,-0.004 -0.065,-0.007c-0.022,-0.003 -0.043,-0.007 -0.064,-0.012c-0.02,-0.005 -0.038,-0.01 -0.054,-0.017l0.097,-0.074c0.015,0.005 0.03,0.008 0.047,0.012c0.016,0.003 0.033,0.005 0.049,0.006c0.016,0.001 0.031,0.001 0.045,0.001c0.027,-0.001 0.048,-0.006 0.064,-0.016c0.016,-0.01 0.027,-0.027 0.035,-0.051c0.007,-0.024 0.011,-0.058 0.011,-0.1c-0,-0.04 -0.003,-0.071 -0.009,-0.094c-0.006,-0.023 -0.016,-0.039 -0.031,-0.049c-0.015,-0.01 -0.035,-0.014 -0.062,-0.014c-0.024,0 -0.046,0.006 -0.067,0.017c-0.021,0.011 -0.044,0.027 -0.07,0.046l-0.009,-0.064c0.018,-0.02 0.038,-0.037 0.058,-0.051c0.02,-0.014 0.042,-0.026 0.065,-0.034c0.023,-0.008 0.046,-0.012 0.069,-0.012Zm-0.171,-0.197l0.001,0.17c0,0.022 -0.001,0.042 -0.002,0.062c-0.002,0.02 -0.005,0.039 -0.011,0.058l0.012,0.013l0.001,0.378l-0.121,-0.006l0,-0.675l0.121,0Z" style="fill:#fff;fill-rule:nonzero;stroke:#fff;stroke-width:0.01px;"/></g><g transform="matrix(151.908291,0,0,151.908291,513.560222,124.650316)"><path d="M0.287,-0.503c0.079,0 0.136,0.014 0.171,0.041c0.035,0.028 0.052,0.069 0.053,0.123c0.001,0.044 -0.01,0.078 -0.031,0.101c-0.021,0.023 -0.057,0.035 -0.107,0.035l-0.28,0l0,-0.076l0.247,0c0.022,0 0.037,-0.006 0.043,-0.018c0.006,-0.012 0.01,-0.027 0.01,-0.044c-0,-0.027 -0.008,-0.046 -0.023,-0.057c-0.015,-0.011 -0.041,-0.016 -0.077,-0.016c-0.031,-0 -0.055,0.004 -0.072,0.013c-0.017,0.009 -0.03,0.024 -0.037,0.047c-0.007,0.023 -0.01,0.055 -0.01,0.098c0,0.046 0.004,0.081 0.013,0.105c0.009,0.024 0.023,0.041 0.043,0.051c0.02,0.009 0.047,0.014 0.08,0.014c0.024,0 0.053,-0.001 0.085,-0.003c0.033,-0.002 0.064,-0.005 0.094,-0.009l0.012,0.077c-0.018,0.008 -0.038,0.014 -0.062,0.019c-0.024,0.005 -0.048,0.008 -0.073,0.01c-0.025,0.002 -0.048,0.003 -0.07,0.003c-0.06,0 -0.108,-0.009 -0.144,-0.027c-0.036,-0.018 -0.063,-0.045 -0.079,-0.083c-0.016,-0.038 -0.025,-0.087 -0.025,-0.147c0,-0.065 0.008,-0.116 0.025,-0.153c0.017,-0.038 0.043,-0.064 0.078,-0.081c0.036,-0.016 0.082,-0.024 0.138,-0.024Z" style="fill:#fff;fill-rule:nonzero;stroke:#fff;stroke-width:0.01px;"/></g><g transform="matrix(151.908291,0,0,151.908291,591.385925,124.650316)"><path d="M0.162,-0.491l0.015,0.096l0.011,0.014l0,0.381l-0.121,-0l0,-0.491l0.094,0Zm0.24,-0.013l-0.012,0.112l-0.035,0c-0.026,0 -0.052,0.004 -0.079,0.013c-0.027,0.009 -0.06,0.022 -0.1,0.039l-0.008,-0.07c0.035,-0.03 0.07,-0.053 0.106,-0.069c0.036,-0.016 0.071,-0.024 0.104,-0.024l0.024,0Z" style="fill:#fff;fill-rule:nonzero;stroke:#fff;stroke-width:0.01px;"/></g><g transform="matrix(151.908291,0,0,151.908291,648.464279,124.650316)"><path d="M0.68,-0.503c0.044,0 0.077,0.011 0.1,0.034c0.023,0.023 0.034,0.057 0.034,0.101l0,0.368l-0.12,-0l0,-0.331c-0,-0.025 -0.005,-0.042 -0.015,-0.053c-0.009,-0.011 -0.026,-0.016 -0.049,-0.016c-0.014,0 -0.028,0.002 -0.041,0.006c-0.013,0.004 -0.027,0.011 -0.043,0.02c-0.016,0.009 -0.035,0.022 -0.058,0.037l-0.007,-0.072c0.034,-0.031 0.066,-0.055 0.098,-0.07c0.032,-0.016 0.065,-0.023 0.1,-0.023Zm-0.515,0.013l0.011,0.096l0.012,0.014l0,0.381l-0.121,-0l0,-0.491l0.097,0Zm0.202,-0.013c0.043,0 0.075,0.011 0.098,0.034c0.023,0.023 0.034,0.057 0.035,0.102l0,0.368l-0.117,-0l0,-0.331c0,-0.026 -0.005,-0.044 -0.016,-0.054c-0.011,-0.01 -0.027,-0.016 -0.048,-0.016c-0.014,0 -0.027,0.002 -0.04,0.006c-0.013,0.004 -0.028,0.011 -0.044,0.02c-0.016,0.009 -0.036,0.022 -0.06,0.038l-0.007,-0.072c0.034,-0.031 0.066,-0.055 0.098,-0.07c0.032,-0.016 0.066,-0.023 0.101,-0.023Z" style="fill:#fff;fill-rule:nonzero;stroke:#fff;stroke-width:0.01px;"/></g><g transform="matrix(151.908291,0,0,151.908291,775.854809,124.650316)"><path d="M0.287,-0.503c0.079,0 0.136,0.014 0.171,0.041c0.035,0.028 0.052,0.069 0.053,0.123c0.001,0.044 -0.01,0.078 -0.031,0.101c-0.021,0.023 -0.057,0.035 -0.107,0.035l-0.28,0l0,-0.076l0.247,0c0.022,0 0.037,-0.006 0.043,-0.018c0.006,-0.012 0.01,-0.027 0.01,-0.044c-0,-0.027 -0.008,-0.046 -0.023,-0.057c-0.015,-0.011 -0.041,-0.016 -0.077,-0.016c-0.031,-0 -0.055,0.004 -0.072,0.013c-0.017,0.009 -0.03,0.024 -0.037,0.047c-0.007,0.023 -0.01,0.055 -0.01,0.098c0,0.046 0.004,0.081 0.013,0.105c0.009,0.024 0.023,0.041 0.043,0.051c0.02,0.009 0.047,0.014 0.08,0.014c0.024,0 0.053,-0.001 0.085,-0.003c0.033,-0.002 0.064,-0.005 0.094,-0.009l0.012,0.077c-0.018,0.008 -0.038,0.014 -0.062,0.019c-0.024,0.005 -0.048,0.008 -0.073,0.01c-0.025,0.002 -0.048,0.003 -0.07,0.003c-0.06,0 -0.108,-0.009 -0.144,-0.027c-0.036,-0.018 -0.063,-0.045 -0.079,-0.083c-0.016,-0.038 -0.025,-0.087 -0.025,-0.147c0,-0.065 0.008,-0.116 0.025,-0.153c0.017,-0.038 0.043,-0.064 0.078,-0.081c0.036,-0.016 0.082,-0.024 0.138,-0.024Z" style="fill:#fff;fill-rule:nonzero;stroke:#fff;stroke-width:0.01px;"/></g><g transform="matrix(151.908291,0,0,151.908291,853.680513,124.650316)"><path d="M0.68,-0.503c0.044,0 0.077,0.011 0.1,0.034c0.023,0.023 0.034,0.057 0.034,0.101l0,0.368l-0.12,-0l0,-0.331c-0,-0.025 -0.005,-0.042 -0.015,-0.053c-0.009,-0.011 -0.026,-0.016 -0.049,-0.016c-0.014,0 -0.028,0.002 -0.041,0.006c-0.013,0.004 -0.027,0.011 -0.043,0.02c-0.016,0.009 -0.035,0.022 -0.058,0.037l-0.007,-0.072c0.034,-0.031 0.066,-0.055 0.098,-0.07c0.032,-0.016 0.065,-0.023 0.1,-0.023Zm-0.515,0.013l0.011,0.096l0.012,0.014l0,0.381l-0.121,-0l0,-0.491l0.097,0Zm0.202,-0.013c0.043,0 0.075,0.011 0.098,0.034c0.023,0.023 0.034,0.057 0.035,0.102l0,0.368l-0.117,-0l0,-0.331c0,-0.026 -0.005,-0.044 -0.016,-0.054c-0.011,-0.01 -0.027,-0.016 -0.048,-0.016c-0.014,0 -0.027,0.002 -0.04,0.006c-0.013,0.004 -0.028,0.011 -0.044,0.02c-0.016,0.009 -0.036,0.022 -0.06,0.038l-0.007,-0.072c0.034,-0.031 0.066,-0.055 0.098,-0.07c0.032,-0.016 0.066,-0.023 0.101,-0.023Z" style="fill:#fff;fill-rule:nonzero;stroke:#fff;stroke-width:0.01px;"/></g><g transform="matrix(151.908291,0,0,151.908291,987.147375,124.650316)"></g><g><path d="M284.403,177.029l0,53.346l6.724,0l0,-44.38l0.149,0l16.661,44.38l6.052,0l16.661,-44.38l0.149,0l0,44.38l6.724,0l0,-53.346l-9.713,0l-16.885,44.828l-16.811,-44.828l-9.713,0Z" style="fill:#fff;fill-rule:nonzero;stroke:#fff;stroke-width:1px;"/><path d="M375.106,207.363l-22.19,0c0.1,-1.494 0.423,-2.901 0.971,-4.221c0.548,-1.32 1.295,-2.478 2.241,-3.474c0.946,-0.996 2.08,-1.781 3.399,-2.353c1.32,-0.573 2.802,-0.859 4.445,-0.859c1.594,0 3.051,0.286 4.371,0.859c1.32,0.573 2.466,1.345 3.437,2.316c0.971,0.971 1.743,2.129 2.316,3.474c0.573,1.345 0.909,2.764 1.009,4.259Zm6.127,10.759l-6.276,0c-0.548,2.54 -1.681,4.433 -3.399,5.678c-1.718,1.245 -3.922,1.868 -6.612,1.868c-2.092,0 -3.91,-0.349 -5.454,-1.046c-1.544,-0.697 -2.814,-1.631 -3.81,-2.802c-0.996,-1.171 -1.718,-2.515 -2.167,-4.035c-0.448,-1.519 -0.648,-3.126 -0.598,-4.819l28.914,0c0.1,-2.341 -0.112,-4.807 -0.635,-7.397c-0.523,-2.59 -1.469,-4.981 -2.839,-7.173c-1.37,-2.192 -3.188,-3.997 -5.454,-5.417c-2.266,-1.42 -5.118,-2.129 -8.555,-2.129c-2.64,0 -5.068,0.498 -7.285,1.494c-2.217,0.996 -4.134,2.391 -5.753,4.184c-1.619,1.793 -2.876,3.91 -3.773,6.351c-0.897,2.441 -1.345,5.13 -1.345,8.069c0.1,2.939 0.535,5.653 1.307,8.144c0.772,2.49 1.93,4.632 3.474,6.425c1.544,1.793 3.449,3.188 5.716,4.184c2.266,0.996 4.944,1.494 8.032,1.494c4.383,0 8.019,-1.096 10.908,-3.287c2.889,-2.192 4.757,-5.454 5.604,-9.788Z" style="fill:#fff;fill-rule:nonzero;stroke:#fff;stroke-width:1px;"/><path d="M388.405,191.747l0,38.627l6.351,0l0,-24.058c0,-0.747 0.187,-1.681 0.56,-2.802c0.374,-1.121 0.971,-2.204 1.793,-3.25c0.822,-1.046 1.893,-1.943 3.213,-2.69c1.32,-0.747 2.901,-1.121 4.744,-1.121c1.444,0 2.627,0.212 3.549,0.635c0.921,0.423 1.656,1.021 2.204,1.793c0.548,0.772 0.934,1.681 1.158,2.727c0.224,1.046 0.336,2.192 0.336,3.437l0,25.328l6.351,0l0,-24.058c0,-2.989 0.897,-5.379 2.69,-7.173c1.793,-1.793 4.259,-2.69 7.397,-2.69c1.544,0 2.802,0.224 3.773,0.672c0.971,0.448 1.731,1.058 2.279,1.83c0.548,0.772 0.921,1.681 1.121,2.727c0.199,1.046 0.299,2.167 0.299,3.362l0,25.328l6.351,0l0,-28.317c0,-1.992 -0.311,-3.698 -0.934,-5.118c-0.623,-1.42 -1.494,-2.578 -2.615,-3.474c-1.121,-0.897 -2.466,-1.557 -4.035,-1.98c-1.569,-0.423 -3.325,-0.635 -5.267,-0.635c-2.54,0 -4.869,0.573 -6.986,1.718c-2.117,1.146 -3.823,2.764 -5.118,4.856c-0.797,-2.391 -2.167,-4.084 -4.109,-5.081c-1.943,-0.996 -4.109,-1.494 -6.5,-1.494c-5.429,0 -9.588,2.192 -12.477,6.575l-0.149,0l0,-5.678l-5.977,0Z" style="fill:#fff;fill-rule:nonzero;stroke:#fff;stroke-width:1px;"/><path d="M456.768,211.098c0,-2.341 0.311,-4.421 0.934,-6.239c0.623,-1.818 1.482,-3.35 2.578,-4.595c1.096,-1.245 2.378,-2.192 3.848,-2.839c1.469,-0.648 3.026,-0.971 4.67,-0.971c1.644,0 3.2,0.324 4.67,0.971c1.469,0.648 2.752,1.594 3.848,2.839c1.096,1.245 1.955,2.777 2.578,4.595c0.623,1.818 0.934,3.898 0.934,6.239c0,2.341 -0.311,4.421 -0.934,6.239c-0.623,1.818 -1.482,3.337 -2.578,4.558c-1.096,1.22 -2.378,2.154 -3.848,2.802c-1.469,0.648 -3.026,0.971 -4.67,0.971c-1.644,0 -3.2,-0.324 -4.67,-0.971c-1.469,-0.648 -2.752,-1.581 -3.848,-2.802c-1.096,-1.22 -1.955,-2.74 -2.578,-4.558c-0.623,-1.818 -0.934,-3.898 -0.934,-6.239Zm-6.724,0c0,2.839 0.398,5.479 1.195,7.92c0.797,2.441 1.992,4.57 3.586,6.388c1.594,1.818 3.561,3.238 5.902,4.259c2.341,1.021 5.031,1.532 8.069,1.532c3.088,0 5.79,-0.511 8.106,-1.532c2.316,-1.021 4.271,-2.441 5.865,-4.259c1.594,-1.818 2.789,-3.947 3.586,-6.388c0.797,-2.441 1.195,-5.081 1.195,-7.92c0,-2.839 -0.398,-5.491 -1.195,-7.957c-0.797,-2.466 -1.992,-4.607 -3.586,-6.425c-1.594,-1.818 -3.549,-3.25 -5.865,-4.296c-2.316,-1.046 -5.018,-1.569 -8.106,-1.569c-3.038,0 -5.728,0.523 -8.069,1.569c-2.341,1.046 -4.309,2.478 -5.902,4.296c-1.594,1.818 -2.789,3.96 -3.586,6.425c-0.797,2.466 -1.195,5.118 -1.195,7.957Z" style="fill:#fff;fill-rule:nonzero;stroke:#fff;stroke-width:1px;"/><path d="M494.797,191.747l0,38.627l6.351,0l0,-17.184c0,-2.49 0.249,-4.695 0.747,-6.612c0.498,-1.918 1.295,-3.549 2.391,-4.894c1.096,-1.345 2.54,-2.366 4.333,-3.063c1.793,-0.697 3.96,-1.046 6.5,-1.046l0,-6.724c-3.437,-0.1 -6.276,0.598 -8.517,2.092c-2.241,1.494 -4.134,3.81 -5.678,6.948l-0.149,0l0,-8.144l-5.977,0Z" style="fill:#fff;fill-rule:nonzero;stroke:#fff;stroke-width:1px;"/><path d="M535.068,235.53c-0.747,1.893 -1.482,3.487 -2.204,4.782c-0.722,1.295 -1.519,2.353 -2.391,3.175c-0.872,0.822 -1.843,1.42 -2.914,1.793c-1.071,0.374 -2.304,0.56 -3.698,0.56c-0.747,0 -1.494,-0.05 -2.241,-0.149c-0.747,-0.1 -1.469,-0.274 -2.167,-0.523l0,-5.828c0.548,0.249 1.183,0.461 1.905,0.635c0.722,0.174 1.332,0.261 1.83,0.261c1.295,0 2.378,-0.311 3.25,-0.934c0.872,-0.623 1.532,-1.507 1.98,-2.652l2.615,-6.5l-15.316,-38.403l7.173,0l11.282,31.604l0.149,0l10.834,-31.604l6.724,0l-16.811,43.782Z" style="fill:#fff;fill-rule:nonzero;stroke:#fff;stroke-width:1px;"/><path d="M579.224,177.029l0,53.346l6.724,0l0,-44.38l0.149,0l16.661,44.38l6.052,0l16.661,-44.38l0.149,0l0,44.38l6.724,0l0,-53.346l-9.713,0l-16.885,44.828l-16.811,-44.828l-9.713,0Z" style="fill:#fff;fill-rule:nonzero;stroke:#fff;stroke-width:1px;"/><path d="M681.657,193.092l7.098,0c-0.398,-2.839 -1.245,-5.342 -2.54,-7.509c-1.295,-2.167 -2.914,-3.972 -4.856,-5.417c-1.943,-1.444 -4.159,-2.54 -6.65,-3.287c-2.49,-0.747 -5.13,-1.121 -7.92,-1.121c-4.084,0 -7.708,0.735 -10.871,2.204c-3.163,1.469 -5.803,3.474 -7.92,6.014c-2.117,2.54 -3.723,5.516 -4.819,8.928c-1.096,3.412 -1.644,7.06 -1.644,10.946c0,3.885 0.511,7.521 1.532,10.908c1.021,3.387 2.553,6.326 4.595,8.816c2.042,2.49 4.607,4.445 7.696,5.865c3.088,1.42 6.699,2.129 10.834,2.129c6.824,0 12.203,-1.868 16.138,-5.604c3.935,-3.736 6.251,-8.966 6.948,-15.69l-7.098,0c-0.149,2.192 -0.598,4.234 -1.345,6.127c-0.747,1.893 -1.781,3.524 -3.101,4.894c-1.32,1.37 -2.889,2.441 -4.707,3.213c-1.818,0.772 -3.898,1.158 -6.239,1.158c-3.188,0 -5.927,-0.598 -8.219,-1.793c-2.291,-1.195 -4.172,-2.802 -5.641,-4.819c-1.469,-2.017 -2.553,-4.383 -3.25,-7.098c-0.697,-2.715 -1.046,-5.591 -1.046,-8.629c0,-2.789 0.349,-5.479 1.046,-8.069c0.697,-2.59 1.781,-4.894 3.25,-6.911c1.469,-2.017 3.337,-3.624 5.604,-4.819c2.266,-1.195 4.993,-1.793 8.181,-1.793c3.736,0 6.961,0.946 9.675,2.839c2.715,1.893 4.47,4.732 5.267,8.517Z" style="fill:#fff;fill-rule:nonzero;stroke:#fff;stroke-width:1px;"/><path d="M705.192,202.581l0,-19.575l13.897,0c4.035,0 6.986,0.834 8.854,2.503c1.868,1.669 2.802,4.097 2.802,7.285c0,3.188 -0.934,5.628 -2.802,7.322c-1.868,1.694 -4.819,2.515 -8.854,2.466l-13.897,0Zm-7.098,-25.552l0,53.346l7.098,0l0,-21.816l16.288,0c5.379,0.05 9.451,-1.32 12.216,-4.109c2.764,-2.789 4.147,-6.674 4.147,-11.655c0,-4.981 -1.382,-8.854 -4.147,-11.618c-2.764,-2.764 -6.836,-4.147 -12.216,-4.147l-23.385,0Z" style="fill:#fff;fill-rule:nonzero;stroke:#fff;stroke-width:1px;"/><path d="M798.136,192.644l6.724,0c-0.1,-2.939 -0.66,-5.467 -1.681,-7.583c-1.021,-2.117 -2.416,-3.873 -4.184,-5.267c-1.768,-1.395 -3.823,-2.416 -6.164,-3.063c-2.341,-0.648 -4.881,-0.971 -7.621,-0.971c-2.441,0 -4.819,0.311 -7.135,0.934c-2.316,0.623 -4.383,1.569 -6.201,2.839c-1.818,1.27 -3.275,2.889 -4.371,4.856c-1.096,1.967 -1.644,4.296 -1.644,6.986c0,2.441 0.486,4.47 1.457,6.089c0.971,1.619 2.266,2.939 3.885,3.96c1.619,1.021 3.449,1.843 5.491,2.466c2.042,0.623 4.122,1.171 6.239,1.644c2.117,0.473 4.196,0.934 6.239,1.382c2.042,0.448 3.873,1.034 5.491,1.756c1.619,0.722 2.914,1.656 3.885,2.802c0.971,1.146 1.457,2.64 1.457,4.483c0,1.943 -0.398,3.536 -1.195,4.782c-0.797,1.245 -1.843,2.229 -3.138,2.951c-1.295,0.722 -2.752,1.233 -4.371,1.532c-1.619,0.299 -3.225,0.448 -4.819,0.448c-1.992,0 -3.935,-0.249 -5.828,-0.747c-1.893,-0.498 -3.549,-1.27 -4.968,-2.316c-1.42,-1.046 -2.565,-2.378 -3.437,-3.997c-0.872,-1.619 -1.307,-3.549 -1.307,-5.79l-6.724,0c0,3.238 0.585,6.039 1.756,8.405c1.171,2.366 2.764,4.309 4.782,5.828c2.017,1.519 4.358,2.652 7.023,3.399c2.665,0.747 5.491,1.121 8.48,1.121c2.441,0 4.894,-0.286 7.359,-0.859c2.466,-0.573 4.695,-1.494 6.687,-2.764c1.992,-1.27 3.624,-2.914 4.894,-4.931c1.27,-2.017 1.905,-4.445 1.905,-7.285c0,-2.64 -0.486,-4.831 -1.457,-6.575c-0.971,-1.743 -2.266,-3.188 -3.885,-4.333c-1.619,-1.146 -3.449,-2.055 -5.491,-2.727c-2.042,-0.672 -4.122,-1.258 -6.239,-1.756c-2.117,-0.498 -4.196,-0.959 -6.239,-1.382c-2.042,-0.423 -3.873,-0.959 -5.491,-1.606c-1.619,-0.648 -2.914,-1.482 -3.885,-2.503c-0.971,-1.021 -1.457,-2.353 -1.457,-3.997c0,-1.743 0.336,-3.2 1.009,-4.371c0.672,-1.171 1.569,-2.104 2.69,-2.802c1.121,-0.697 2.403,-1.195 3.848,-1.494c1.444,-0.299 2.914,-0.448 4.408,-0.448c3.686,0 6.712,0.859 9.078,2.578c2.366,1.718 3.748,4.495 4.147,8.331Z" style="fill:#fff;fill-rule:nonzero;stroke:#fff;stroke-width:1px;"/><path d="M841.47,207.363l-22.19,0c0.1,-1.494 0.423,-2.901 0.971,-4.221c0.548,-1.32 1.295,-2.478 2.241,-3.474c0.946,-0.996 2.08,-1.781 3.399,-2.353c1.32,-0.573 2.802,-0.859 4.445,-0.859c1.594,0 3.051,0.286 4.371,0.859c1.32,0.573 2.466,1.345 3.437,2.316c0.971,0.971 1.743,2.129 2.316,3.474c0.573,1.345 0.909,2.764 1.009,4.259Zm6.127,10.759l-6.276,0c-0.548,2.54 -1.681,4.433 -3.399,5.678c-1.718,1.245 -3.922,1.868 -6.612,1.868c-2.092,0 -3.91,-0.349 -5.454,-1.046c-1.544,-0.697 -2.814,-1.631 -3.81,-2.802c-0.996,-1.171 -1.718,-2.515 -2.167,-4.035c-0.448,-1.519 -0.648,-3.126 -0.598,-4.819l28.914,0c0.1,-2.341 -0.112,-4.807 -0.635,-7.397c-0.523,-2.59 -1.469,-4.981 -2.839,-7.173c-1.37,-2.192 -3.188,-3.997 -5.454,-5.417c-2.266,-1.42 -5.118,-2.129 -8.555,-2.129c-2.64,0 -5.068,0.498 -7.285,1.494c-2.217,0.996 -4.134,2.391 -5.753,4.184c-1.619,1.793 -2.876,3.91 -3.773,6.351c-0.897,2.441 -1.345,5.13 -1.345,8.069c0.1,2.939 0.535,5.653 1.307,8.144c0.772,2.49 1.93,4.632 3.474,6.425c1.544,1.793 3.449,3.188 5.716,4.184c2.266,0.996 4.944,1.494 8.032,1.494c4.383,0 8.019,-1.096 10.908,-3.287c2.889,-2.192 4.757,-5.454 5.604,-9.788Z" style="fill:#fff;fill-rule:nonzero;stroke:#fff;stroke-width:1px;"/><path d="M854.545,191.747l0,38.627l6.351,0l0,-17.184c0,-2.49 0.249,-4.695 0.747,-6.612c0.498,-1.918 1.295,-3.549 2.391,-4.894c1.096,-1.345 2.54,-2.366 4.333,-3.063c1.793,-0.697 3.96,-1.046 6.5,-1.046l0,-6.724c-3.437,-0.1 -6.276,0.598 -8.517,2.092c-2.241,1.494 -4.134,3.81 -5.678,6.948l-0.149,0l0,-8.144l-5.977,0Z" style="fill:#fff;fill-rule:nonzero;stroke:#fff;stroke-width:1px;"/><path d="M897.057,230.374l14.121,-38.627l-6.65,0l-10.535,32.202l-0.149,0l-10.834,-32.202l-7.098,0l14.345,38.627l6.799,0Z" style="fill:#fff;fill-rule:nonzero;stroke:#fff;stroke-width:1px;"/><path d="M943.828,207.363l-22.19,0c0.1,-1.494 0.423,-2.901 0.971,-4.221c0.548,-1.32 1.295,-2.478 2.241,-3.474c0.946,-0.996 2.08,-1.781 3.399,-2.353c1.32,-0.573 2.802,-0.859 4.445,-0.859c1.594,0 3.051,0.286 4.371,0.859c1.32,0.573 2.466,1.345 3.437,2.316c0.971,0.971 1.743,2.129 2.316,3.474c0.573,1.345 0.909,2.764 1.009,4.259Zm6.127,10.759l-6.276,0c-0.548,2.54 -1.681,4.433 -3.399,5.678c-1.718,1.245 -3.922,1.868 -6.612,1.868c-2.092,0 -3.91,-0.349 -5.454,-1.046c-1.544,-0.697 -2.814,-1.631 -3.81,-2.802c-0.996,-1.171 -1.718,-2.515 -2.167,-4.035c-0.448,-1.519 -0.648,-3.126 -0.598,-4.819l28.914,0c0.1,-2.341 -0.112,-4.807 -0.635,-7.397c-0.523,-2.59 -1.469,-4.981 -2.839,-7.173c-1.37,-2.192 -3.188,-3.997 -5.454,-5.417c-2.266,-1.42 -5.118,-2.129 -8.555,-2.129c-2.64,0 -5.068,0.498 -7.285,1.494c-2.217,0.996 -4.134,2.391 -5.753,4.184c-1.619,1.793 -2.876,3.91 -3.773,6.351c-0.897,2.441 -1.345,5.13 -1.345,8.069c0.1,2.939 0.535,5.653 1.307,8.144c0.772,2.49 1.93,4.632 3.474,6.425c1.544,1.793 3.449,3.188 5.716,4.184c2.266,0.996 4.944,1.494 8.032,1.494c4.383,0 8.019,-1.096 10.908,-3.287c2.889,-2.192 4.757,-5.454 5.604,-9.788Z" style="fill:#fff;fill-rule:nonzero;stroke:#fff;stroke-width:1px;"/><path d="M956.903,191.747l0,38.627l6.351,0l0,-17.184c0,-2.49 0.249,-4.695 0.747,-6.612c0.498,-1.918 1.295,-3.549 2.391,-4.894c1.096,-1.345 2.54,-2.366 4.333,-3.063c1.793,-0.697 3.96,-1.046 6.5,-1.046l0,-6.724c-3.437,-0.1 -6.276,0.598 -8.517,2.092c-2.241,1.494 -4.134,3.81 -5.678,6.948l-0.149,0l0,-8.144l-5.977,0Z" style="fill:#fff;fill-rule:nonzero;stroke:#fff;stroke-width:1px;"/></g></g></g></svg>