<?xml version="1.0" encoding="utf-8"?>
<!DOCTYPE svg PUBLIC "-//W3C//DTD SVG 1.0//EN" "http://www.w3.org/TR/2001/REC-SVG-20010904/DTD/svg10.dtd">
<svg version="1.0" xmlns="http://www.w3.org/2000/svg" width="1123px" height="1039px" viewBox="0 0 1123 1039" preserveAspectRatio="xMidYMid meet">
 <g fill="#ffffff">
  <path d="M788 1027.7 c-10 -3.4 -14.9 -6.4 -22 -13.6 -11.3 -11.5 -16.8 -25.7 -15.6 -40.1 0.8 -9.5 2.8 -16 6.7 -22.1 1.7 -2.7 2.9 -5.2 2.7 -5.7 -0.6 -1.6 -43.3 -59.2 -53.5 -72.2 -2.3 -3 -9.5 -12.5 -15.8 -21 -21.2 -28.2 -25.2 -33.5 -26.6 -34.6 -1 -0.9 -2.7 -0.8 -6.4 0.2 -13.8 3.7 -24.9 2.6 -38.2 -3.6 -17.8 -8.3 -27.7 -22.9 -29.2 -43.3 l-0.6 -8.7 -14.5 -5.1 c-12.7 -4.4 -48 -16.5 -55 -18.8 -7.6 -2.5 -50.7 -17.7 -57.2 -20.2 -10.6 -4 -11.6 -3.9 -16.2 2.1 -4.5 5.9 -9 9.6 -16.8 13.8 -20.6 11.2 -45.9 6.7 -62 -10.8 -7.6 -8.3 -10.2 -12.7 -12.7 -22 -2.5 -8.9 -2.6 -15.6 -0.5 -24.6 0.8 -3.7 1.1 -7 0.7 -7.5 -0.4 -0.4 -5.6 -3.6 -11.4 -7.1 -5.9 -3.5 -13.8 -8.2 -17.5 -10.4 -3.8 -2.3 -10.5 -6.2 -14.9 -8.8 -4.4 -2.6 -11.4 -6.8 -15.5 -9.3 -4.1 -2.5 -9 -5.4 -10.9 -6.4 l-3.4 -1.8 -4.3 3.8 c-6.1 5.4 -16.7 10.7 -24.2 12.1 -3.6 0.8 -10 1.1 -15.1 0.8 -16.1 -1 -30.7 -9.6 -41.1 -24.4 -6.5 -9.2 -9.7 -27.2 -7 -39.3 1.4 -6.2 5.4 -15.4 7.6 -17.2 1.8 -1.4 1.8 -4.3 0.1 -6.1 -0.7 -0.7 -3.8 -4.8 -6.8 -9.2 -3 -4.3 -7.9 -11.4 -10.9 -15.6 -3 -4.3 -8.9 -12.6 -13 -18.5 -4.1 -5.9 -10 -14.2 -13.1 -18.4 -5.4 -7.4 -19.5 -27.3 -29.5 -41.6 -2.7 -3.8 -7.6 -11.1 -10.9 -16 -10.2 -15.3 -9.4 -14.6 -15.1 -12.9 -6.9 2.1 -22.6 2 -28.8 -0.1 -14.5 -4.9 -24.5 -12.8 -31.4 -24.7 -6.5 -11.1 -8.8 -26.4 -5.6 -37.6 5.6 -19.3 19.4 -32.8 39.7 -38.6 8.7 -2.5 9.9 -2.6 20.3 -1 2.7 0.4 3.3 0.1 4.3 -2.3 0.6 -1.6 2 -4.1 3.1 -5.8 1 -1.6 3.1 -5.1 4.6 -7.7 1.5 -2.7 3.1 -4.8 3.6 -4.8 0.4 0 0.8 -0.6 0.8 -1.4 0 -1.4 7.9 -15.8 17.9 -32.6 3.1 -5.2 6.7 -11.5 8 -14 1.3 -2.5 3 -5.2 3.7 -6 0.7 -0.9 2.7 -4.3 4.5 -7.5 1.7 -3.3 3.8 -6.7 4.5 -7.6 0.8 -0.8 1.4 -1.9 1.4 -2.3 0 -0.4 1.1 -2.2 2.5 -4 3.2 -4.2 3.2 -7.1 0 -9.2 -4.2 -2.7 -10.2 -16.5 -11.6 -26.5 -1 -7.3 -0.9 -9.7 0.5 -16.9 3.9 -19 15.5 -32.7 32.9 -38.6 9.2 -3.2 17.2 -3.9 27.1 -2.5 9.7 1.4 20.1 6.7 28.4 14.8 5 4.8 6.1 5.4 8.7 4.8 3.9 -0.7 8.5 -2.8 8.5 -3.7 0 -0.5 0.5 -0.8 1.1 -0.8 0.5 0 10.1 -4.5 21.2 -9.9 25.2 -12.4 35.4 -17.1 36.6 -17.1 0.5 0 1.1 -0.3 1.3 -0.8 0.2 -0.4 4.1 -2.4 8.8 -4.5 4.7 -2.1 10.1 -4.9 12.1 -6.1 l3.5 -2.4 -0.3 -11 c-0.3 -13.7 1.1 -18.8 8.2 -29.7 7.1 -10.7 16.4 -18.2 27.6 -22.1 8.2 -2.9 27.3 -2.6 35.2 0.5 11.7 4.6 26.3 19.2 30.2 30.1 l1.2 3.5 11.9 -0.3 c6.6 -0.2 18 -0.7 25.4 -1.2 21 -1.5 70.1 -4.4 95 -5.6 7.4 -0.4 14.4 -1 15.6 -1.5 1.4 -0.5 2.3 -1.9 2.7 -4.4 0.6 -3.5 5.5 -14.3 8 -17.5 2.4 -3.1 15.3 -12.7 19.9 -14.8 7.7 -3.5 13.2 -4.5 24.2 -4 10 0.3 10.8 0.5 19.3 4.8 18.9 9.5 30.3 26.7 30.3 45.9 l0 4.6 12.3 3.8 c16.5 5.1 15.5 4.8 54.8 18 19 6.4 39.1 12.9 44.8 14.6 l10.3 3 6.5 -6.5 c7.1 -7 12 -9.9 22.5 -13.3 7.4 -2.3 20 -2.8 27.7 -1 15 3.4 30.4 17 36.7 32.4 2.7 6.5 2.9 7.9 2.8 19.5 -0.1 10.5 -0.5 13.7 -2.6 20 l-2.6 7.5 3.6 4 c3.2 3.7 53.1 55.1 79.7 82.3 l11.1 11.3 6.5 -3 c14.6 -6.6 27.2 -6.2 41.7 1.1 19 9.7 28.7 25.6 28.6 46.8 0 18.8 -8.7 34.6 -23.8 43.4 -3.7 2.1 -6.8 4.2 -7 4.5 -0.6 0.9 6.1 29.4 12.7 54.1 l2.2 8.5 6.5 0.6 c12.5 1.2 23.6 6.5 32.6 15.7 19.4 19.6 19.3 52.8 -0.3 72.9 -3.2 3.3 -7.1 6.9 -8.8 8 -5.2 3.6 -17.1 7.3 -23.4 7.3 -3.2 0 -7.2 0.3 -8.8 0.6 -3.2 0.6 -2.5 -0.9 -15.5 35.9 -3.3 9.4 -7.9 22 -10.3 28 -2.4 6.1 -6 15.4 -8 20.8 -9.3 25.6 -10.6 29.2 -12.5 33.4 -1.1 2.5 -2 5.3 -2 6.2 0 0.9 2.3 3.9 5 6.6 19.9 19.6 23.2 44.9 8.7 67.2 -7.9 12.2 -22.8 21 -38.5 22.8 -11.8 1.4 -27.6 -3.2 -39.6 -11.4 -2.5 -1.7 -4.9 -3.1 -5.3 -3.1 -0.5 0 -7 3.7 -14.4 8.1 -7.4 4.5 -14.6 8.8 -16.1 9.6 -1.6 0.8 -2.8 1.9 -2.8 2.4 0 0.5 -0.5 0.9 -1.2 0.9 -0.6 0 -5.4 2.7 -10.5 6 -5.2 3.3 -9.6 6 -9.9 6 -0.5 0 -16.5 9.7 -24.1 14.6 -2.8 1.9 -5.4 3.4 -5.8 3.4 -0.4 0 -3 1.5 -5.8 3.3 -7.2 4.7 -11.6 7.3 -15.7 9.3 -1.9 1 -5.9 3.3 -8.7 5.1 -2.9 1.8 -7.3 3.8 -9.8 4.4 -3.2 0.8 -4.5 1.7 -4.5 2.9 0 1.8 3.9 51.5 6.6 84 0.9 10.7 1.9 19.8 2.2 20.1 0.4 0.4 2.5 1.2 4.7 1.9 13.1 4.2 22.9 11.7 30.1 23.1 8.2 13 8.5 38.2 0.6 51.9 -5.4 9.4 -17.3 19.4 -28.7 24.1 -8.6 3.5 -21.8 3.8 -31.5 0.6z m-3.3 -99.3 c0.6 -1.6 -1.7 -39.2 -3.8 -62.9 -0.5 -6 -1.3 -17 -1.8 -24.3 -0.4 -7.3 -1.2 -13.7 -1.8 -14.3 -0.5 -0.5 -5.8 -2.7 -11.9 -4.8 -6 -2.2 -15.8 -5.8 -21.9 -8.1 -6 -2.3 -12.3 -4.5 -14 -4.9 -6.7 -1.8 -20.4 -6.5 -26 -9.1 -3.3 -1.5 -7.7 -3.3 -9.9 -4.1 -3.7 -1.4 -3.9 -1.3 -6.2 1.6 -1.3 1.7 -2.4 3.5 -2.4 4.1 0 0.6 4 6.3 8.8 12.5 4.8 6.3 17.4 22.9 27.9 36.9 10.5 14 24.7 32.9 31.7 42 7 9.1 16.1 21.1 20.3 26.8 7.6 10.1 9.8 11.8 11 8.6z m-9.2 -132.1 c-0.3 -4.9 -1 -14.4 -1.5 -21.3 -1.4 -19.2 -2.9 -41.3 -4.5 -66 -0.8 -12.4 -1.9 -29.5 -2.5 -38 -0.5 -8.5 -1.2 -17.9 -1.3 -20.7 -0.2 -2.9 -0.6 -5.5 -0.8 -5.7 -0.2 -0.2 -2.7 -0.7 -5.5 -1.1 l-5.1 -0.6 -6.5 8.3 c-3.5 4.6 -8 10.6 -9.8 13.3 -1.9 2.8 -14.6 20.1 -28.4 38.5 l-24.9 33.4 3.2 5.9 c5.4 9.7 7.1 16 7.1 26.2 l0 9.2 4.3 1 c2.3 0.6 9.4 3.1 15.7 5.5 6.3 2.5 13.3 5 15.5 5.7 5.4 1.7 19.3 6.6 28.8 10.2 6.6 2.5 13 4.4 16 4.8 0.4 0.1 0.5 -3.8 0.2 -8.6z m33.2 2.8 c5.7 -3.4 28 -16.7 33.4 -19.8 2 -1.2 6.8 -4.1 10.6 -6.4 3.7 -2.3 11.8 -7.1 17.8 -10.7 17 -10 30.5 -18.4 44.3 -27.2 7.7 -4.9 8.3 -5.6 7.7 -7.9 -2.5 -9.7 -3 -17 -2 -24.9 l1.1 -8.2 -9 -5.4 c-14.6 -8.7 -52.1 -30.4 -64.6 -37.4 -6.3 -3.5 -14.4 -8.3 -18 -10.6 -9.7 -6.3 -15.7 -9.6 -17.1 -9.6 -0.7 0 -3.5 1.8 -6.3 3.9 -2.8 2.1 -7.5 4.9 -10.3 6.1 -6.1 2.6 -5.9 1.6 -4.3 19.5 0.5 6.1 1.4 17.3 2 25 0.6 7.7 1.3 16 1.5 18.5 0.3 2.5 0.7 7.2 1 10.5 0.8 8.7 6.5 84.1 6.5 85.9 0 2.1 0.1 2.1 5.7 -1.3z m-204 -65.8 c5.6 -6.4 13.5 -11.6 22.1 -14.5 7.3 -2.5 22.2 -2.8 30.6 -0.5 5.5 1.5 6 1.5 8.2 -0.1 1.2 -0.9 3 -3.3 3.9 -5.2 0.9 -1.9 2.8 -4.8 4.2 -6.5 1.4 -1.6 11.1 -14.5 21.6 -28.5 26.2 -34.9 30.6 -40.6 35 -45.5 2 -2.3 3.7 -4.6 3.7 -5 0 -0.4 -1.1 -2 -2.5 -3.7 -1.4 -1.6 -2.5 -3.6 -2.5 -4.4 0 -2.2 -3.3 -1.7 -23.5 3.6 -10.5 2.8 -28.7 7.5 -40.5 10.5 -11.8 2.9 -26.7 6.8 -33 8.5 -6.3 1.7 -21.8 5.8 -34.5 9 -71.5 18.2 -84.8 21.7 -103.5 26.7 -11.3 3.1 -23.6 6.3 -27.5 7.3 -5.5 1.3 -7 2.1 -7 3.6 0 1.5 2.9 2.8 15 7 8.3 2.9 20.9 7.4 28 9.9 11.8 4.3 24.1 8.6 68 24 8.3 2.9 17.3 6.2 20 7.3 7.6 3.1 8.6 2.9 14.2 -3.5z m334.9 -64.4 c7.9 -6.3 21.3 -11.6 31 -12.3 7.6 -0.5 8.4 -1.7 15.5 -22 3.1 -8.9 7.7 -21.3 10.1 -27.6 2.4 -6.3 5.3 -14.2 6.3 -17.5 1 -3.3 2.2 -6.5 2.7 -7.2 0.5 -0.6 1.8 -3.8 2.8 -7 1 -3.2 3.7 -10.5 6 -16.3 2.2 -5.8 5.2 -13.6 6.5 -17.4 1.4 -3.8 3 -7.5 3.6 -8.3 0.7 -0.8 0.8 -1.7 0.3 -2.2 -0.5 -0.5 -3.9 -3.4 -7.7 -6.5 -6.3 -5.3 -7 -5.6 -10 -4.8 -3 0.9 -29.6 10.9 -60.2 22.7 -7.7 3 -20.3 7.7 -28 10.5 -14.3 5.3 -30.6 11.6 -63.5 24.5 -10.2 4 -20.3 7.9 -22.6 8.5 l-4.1 1.2 -0.9 10.7 c-0.5 5.8 -0.7 10.7 -0.4 10.9 0.3 0.1 5.2 3 11 6.4 5.8 3.4 15.7 9.2 22 12.9 6.3 3.7 14.7 8.8 18.5 11.2 3.9 2.4 10.2 6.1 14 8.2 8.9 4.8 17.5 9.9 24.5 14.4 5.9 3.8 17.1 10 18.1 10.1 0.3 0 2.4 -1.4 4.5 -3.1z m-458.6 -14.8 c15.1 -3.8 35.6 -9 45.5 -11.6 9.9 -2.6 23.2 -5.9 29.5 -7.5 6.3 -1.5 20.1 -5 30.5 -7.8 16.3 -4.4 27 -7.1 47 -12 2.2 -0.5 11.9 -3 21.5 -5.5 9.6 -2.5 23.1 -6 30 -7.7 6.9 -1.7 17.6 -4.5 23.8 -6.2 12.6 -3.5 13.2 -4.1 13.2 -11.9 0 -2.2 0.7 -5.6 1.6 -7.7 1.4 -3.4 1.4 -3.8 -0.2 -4.7 -0.9 -0.5 -4.4 -3.1 -7.8 -5.6 -8.6 -6.4 -48.7 -35.4 -86.5 -62.5 -5 -3.6 -6 -3.9 -7.5 -2.8 -1 0.7 -5.9 2.9 -11 5 -7.9 3.2 -10.5 3.7 -19.1 4.1 -9.5 0.4 -11.9 0.1 -22.1 -3.2 -1.8 -0.5 -3.4 1 -10.6 10.2 -4.7 5.9 -10.1 12.6 -12 14.8 -2 2.2 -6.6 8.1 -10.3 13 -7.8 10.3 -8.9 11.6 -22.3 28 -5.4 6.6 -12.7 15.8 -16.3 20.4 -3.5 4.6 -8.4 10.9 -10.9 14.1 -2.5 3.2 -7.2 9.3 -10.5 13.6 -3.2 4.4 -8 10.4 -10.5 13.4 -2.5 3 -7.4 9.2 -10.9 13.7 -6.2 8.1 -6.2 8.2 -4.6 10.7 1 1.4 2 2.6 2.4 2.6 0.3 0 13 -3.1 28.1 -6.9z m-108.3 -6.2 c6.1 -5.8 13.3 -9.4 23 -11.4 9.4 -2 15.5 -1.9 24.3 0.6 l7.5 2 4.5 -4.8 c2.5 -2.7 12.6 -15.2 22.5 -27.8 9.8 -12.7 22.7 -29 28.5 -36.4 10.3 -13.1 49.1 -61.2 53.3 -66.1 4 -4.7 7.7 -9.9 7.7 -10.8 0 -0.6 0.5 -1.2 1.2 -1.4 0.6 -0.2 0.9 -1.2 0.5 -2.1 -0.6 -1.5 -1 -1.6 -3.9 -0.3 -3.7 1.6 -39.2 15.6 -47.8 18.8 -3 1.1 -8 3.1 -11.1 4.4 -6.8 2.9 -35.6 14 -62.4 24 -11 4.2 -21.3 8.1 -23 8.8 -1.6 0.8 -12.4 5 -24 9.4 -43.5 16.8 -66 25.4 -71.4 27.4 -3.1 1.1 -6 2.4 -6.5 2.9 -0.5 0.5 -0.9 3.4 -0.7 6.6 0.1 3.2 -0.5 8.4 -1.4 11.6 -1.8 6.8 -1.8 6.7 -0.6 6.7 0.6 0 3.8 1.9 7.3 4.3 3.5 2.4 10.8 7 16.2 10.3 5.4 3.2 12.5 7.5 15.7 9.4 7.9 4.8 23.6 14.3 27.9 16.8 5.2 3 6.8 2.7 12.7 -2.9z m465.5 -91.8 c9 -3.2 21.7 -8 28.3 -10.6 6.6 -2.6 16.5 -6.5 22 -8.5 11 -4.2 51.6 -19.6 78 -29.7 9.4 -3.6 20.8 -7.9 25.5 -9.7 l8.5 -3.1 0.8 -11 0.8 -11 -2.8 -2.3 c-1.5 -1.2 -7.7 -5 -13.8 -8.3 -6 -3.4 -15.6 -8.9 -21.3 -12.3 -11.8 -7 -11.4 -6.8 -20.7 -12 -3.9 -2.2 -15.8 -9.2 -26.5 -15.6 -10.7 -6.4 -23 -13.6 -27.3 -16.1 -4.3 -2.4 -9.9 -5.6 -12.5 -7.1 -5.6 -3.3 -6.9 -3.4 -9.6 -0.9 -4.3 3.9 -18 10.2 -24.6 11.1 -10.9 1.7 -11 1.7 -11 4.9 0 1.6 -6 26.9 -13.4 56.3 -7.4 29.3 -14.4 58.4 -15.7 64.6 l-2.2 11.3 2.8 2.2 c8.6 6.7 14.5 11.9 14.5 12.7 0 1.9 4.1 0.9 20.2 -4.9z m-538.2 -0.4 c5.2 -1.9 14.7 -5.6 21 -8.2 11.5 -4.7 20.7 -8.3 54.2 -20.9 9.8 -3.6 26.4 -10 37 -14.1 10.6 -4.2 28.1 -11 38.8 -15.1 39.5 -15.3 86.1 -33.8 86.4 -34.3 0.2 -0.4 0.7 -5.5 1 -11.6 l0.7 -11 -12.8 -7.6 c-11 -6.6 -25.7 -15.5 -50.8 -30.9 -3.3 -2 -11.4 -7 -18 -11.1 -6.5 -4.1 -12.4 -7.6 -13 -7.8 -1.1 -0.4 -16.8 -10 -30 -18.4 -4.4 -2.8 -9.6 -5.9 -11.5 -7 l-3.5 -2 -6.9 4.7 c-10.5 7 -16.2 8.9 -28.9 9.4 l-10.8 0.4 -1.9 3.9 c-1.1 2.1 -4.1 8.7 -6.6 14.6 -2.6 6 -7.2 16.2 -10.4 22.8 -6.5 13.7 -6 12.7 -17.4 38.1 -4.7 10.6 -8.6 19.4 -8.6 19.7 0 0.3 -3.3 7.6 -7.4 16.4 -9.1 19.6 -19.8 43.8 -24.1 54.9 -3.1 7.9 -3.2 8.4 -1.4 8.9 2.2 0.7 3.2 1.7 7.3 6.9 3.5 4.4 3.5 4.4 17.6 -0.7z m444.8 -6.6 c5.2 -3.7 19 -8.6 26.7 -9.4 2.5 -0.3 3.1 -1 4.2 -4.8 1.7 -6.1 11.6 -46.3 14.3 -57.9 1.1 -5.2 3.2 -13.5 4.6 -18.5 1.4 -4.9 2.9 -10.6 3.4 -12.5 0.9 -3.2 8.4 -34.5 9.5 -39.7 0.4 -1.7 -0.4 -2.8 -3.7 -5.2 -2.4 -1.6 -6.5 -5.2 -9.2 -7.9 -5.6 -5.8 -4.3 -5.9 -21.6 1.6 -6.3 2.7 -16.9 7.1 -23.5 9.6 -11.1 4.4 -17.1 6.9 -30 12.7 -2.7 1.2 -9.5 3.9 -15 6 -5.5 2.2 -11.8 4.8 -14 5.8 -5.4 2.7 -25.7 11.1 -37.7 15.6 l-9.7 3.7 0 9.3 c0 8.9 -1.4 17.8 -3.2 20.1 -0.9 1.1 5.2 5.9 27.1 21.4 6.6 4.7 19.1 13.7 27.8 20 8.6 6.4 21.1 15.5 27.8 20.2 6.6 4.8 12.6 9.4 13.3 10.2 1.8 2.1 5.7 2 8.9 -0.3z m-517.8 -9.8 c2.5 -0.8 8.3 -1.6 12.8 -1.7 7.6 -0.2 8.6 -0.4 10.3 -2.7 1 -1.3 1.9 -2.8 1.9 -3.3 0 -0.4 2.3 -6 5.1 -12.5 2.8 -6.4 6 -13.6 7.1 -16.1 2.2 -5 3.7 -8.4 9.8 -21.5 2.3 -4.9 5 -11 6 -13.5 1 -2.5 3.8 -8.8 6.2 -14 6.8 -14.5 8.9 -19.2 10.3 -23 0.7 -1.9 2.8 -6.9 4.7 -11 4.2 -9 7.4 -16.1 9.8 -21.5 5.7 -13 17.4 -38.1 18.1 -38.9 0.5 -0.6 -1.4 -3.4 -4.4 -6.6 -6.9 -7.4 -9.2 -10.2 -10 -12.4 -0.4 -0.9 -1.1 -1.5 -1.6 -1.2 -0.5 0.4 -15.3 3.5 -32.8 7 -17.5 3.5 -37.4 7.5 -44.3 8.9 -6.9 1.4 -19 3.8 -27 5.2 -8 1.4 -18.8 3.5 -24 4.5 -5.2 1 -16.9 3.3 -26 5 -24.7 4.7 -22.4 3.7 -23.1 9.6 -0.9 7 -2.5 11.6 -7.3 20.8 -2.8 5.5 -3.7 8.1 -2.8 8.3 0.6 0.3 1.2 0.9 1.2 1.5 0 0.9 5.8 9.9 7 10.8 0.4 0.3 0.9 1 1.1 1.7 0.2 0.6 1.7 2.6 3.2 4.5 2.7 3.2 8.4 11.2 19.7 27.8 10.5 15.3 18.4 26.5 26 37 4.2 5.8 10.7 14.9 14.4 20.3 15.5 23 20.8 29.8 22.5 29.1 0.9 -0.3 3.6 -1.3 6.1 -2.1z m792.6 -91.4 c1 -1.1 4.1 -3.1 6.9 -4.5 9.2 -4.5 9.1 -4.3 7.2 -12.6 -0.9 -4 -2.5 -11.8 -3.7 -17.3 -2.3 -11.2 -3.7 -17.3 -5 -22.5 -0.5 -1.9 -1.5 -6.2 -2.2 -9.5 -1.3 -5.9 -1.4 -6 -4.8 -6.1 -11.5 -0.3 -22.6 -3.9 -29.8 -9.5 -6.4 -4.9 -12.4 -11.6 -15.4 -17 -2 -3.7 -3.9 -5.9 -5 -5.9 -1.8 0 -43 8.4 -48.8 10 -7.3 2 -24.3 5 -28 5 -4.2 0 -4.2 -0.1 -5.5 10.1 -0.6 4.4 -0.5 4.6 3.1 7.4 3.7 2.8 5.4 3.8 15.1 9 2.3 1.2 5.4 3.1 7 4.2 1.5 1.1 4.6 2.9 6.8 4 3.8 1.9 8.5 4.6 21.7 12.4 3.2 1.9 9.2 5.4 13.5 7.8 4.3 2.4 10.5 6.1 13.8 8.1 3.3 2.1 10.5 6.3 16 9.5 15.4 9 27.8 16.6 29.3 18.1 2 2 5.6 1.7 7.8 -0.7z m-372.1 -20.8 c2.8 -1 8.2 -3.1 12 -4.6 3.9 -1.5 9.3 -3.7 12 -5 2.8 -1.3 9.5 -4.2 15 -6.5 5.5 -2.3 15.7 -6.6 22.7 -9.6 7 -3 15.1 -6.3 18 -7.3 2.9 -1 7.8 -3 10.8 -4.4 3 -1.3 13.6 -5.9 23.5 -10.1 9.9 -4.2 18.5 -7.9 19 -8.4 0.6 -0.4 0.8 -5.2 0.5 -12.5 l-0.5 -11.9 -12 -4.9 c-6.6 -2.8 -20.5 -8.5 -31 -12.9 -24.3 -10 -28.4 -11.8 -31.7 -13.6 -1.5 -0.8 -5.1 -2.3 -8 -3.3 -2.9 -1 -10.2 -4 -16.3 -6.6 -53.4 -22.9 -49.3 -21.7 -54.5 -15.9 -3.6 3.9 -13.4 10 -19.1 11.9 -3.9 1.3 -4.9 2.1 -4.9 3.8 0 1.2 -0.1 24.3 -0.3 51.4 -0.3 33 0 49.6 0.7 50.3 0.5 0.5 1.8 1 2.7 1 5.9 0 21.4 11.1 26.3 18.7 1.9 3.2 2.4 3.4 6.1 2.9 2.2 -0.3 6.3 -1.4 9 -2.5z m-89.9 -11 c1.6 -1.9 5.5 -4.1 10.9 -6.3 l8.5 -3.3 0 -51.7 c0 -39.1 -0.3 -51.8 -1.2 -51.8 -0.6 0 -4.8 -1.8 -9.3 -3.9 -10.7 -5.2 -18.2 -12.7 -23.7 -23.8 -3.7 -7.4 -4.1 -9.1 -4.6 -17.6 -0.3 -6.6 0.1 -11.8 1.3 -17.8 1.7 -8.4 1.7 -8.4 -0.5 -9.9 -1.2 -0.8 -4.7 -3.6 -7.8 -6.1 -3.1 -2.5 -10.9 -8.4 -17.2 -13.2 -6.3 -4.7 -18.5 -14 -27 -20.6 -37.3 -28.9 -56.4 -43.4 -66.1 -50.3 l-5.7 -3.9 -5.3 2.9 c-3 1.7 -8.1 3.8 -11.4 4.8 -3.3 1 -6.5 2.2 -7.1 2.6 -1.4 1.1 -1.9 4.7 -4.4 34.8 -1.2 13.5 -2.8 30.6 -3.6 38 -1.5 13.4 -4.4 43.5 -4.4 45.6 0 0.6 3.3 2.9 7.3 5 13.6 7.1 24.5 20.6 27.6 34.4 1.4 6.1 1.4 17.7 -0.1 23.9 -1.3 5.6 -0.9 6.1 5.2 9.3 1.4 0.7 5.4 3.1 9 5.4 3.6 2.2 8.7 5.4 11.3 7 2.7 1.6 6.7 4.1 9 5.6 2.3 1.5 5.3 3.3 6.7 4 2.3 1.2 14.5 8.8 23 14.3 1.9 1.3 5.5 3.4 8 4.8 2.5 1.3 10.4 6.1 17.5 10.5 7.2 4.4 16.5 10.2 20.8 12.9 4.3 2.6 12 7.6 17 11 5.1 3.4 10.2 6.2 11.5 6.2 1.4 0.1 3.3 -1.1 4.8 -2.8z m-410.1 -70 c10.3 -1.7 22.3 -4 46 -9 11.9 -2.5 21 -4.3 37 -7.1 18.3 -3.2 33.1 -6 57.4 -10.9 8.4 -1.7 16.6 -3.1 18.2 -3.1 1.5 0 3 -0.4 3.3 -0.8 0.2 -0.4 0.7 -5 1.1 -10.2 l0.7 -9.5 -13.4 -10.6 c-18.9 -15 -46.7 -37.1 -50.4 -40 -1.7 -1.3 -7.7 -6.1 -13.3 -10.6 -5.5 -4.6 -10.5 -8.3 -11 -8.3 -0.5 0 -4 1.4 -7.8 3.1 -10.6 4.7 -18.3 6.2 -29.3 5.6 l-9.5 -0.6 -4.5 7.7 c-2.5 4.2 -4.8 8.4 -5.1 9.2 -0.4 0.9 -3.7 6.5 -7.4 12.5 -3.8 6.1 -9.6 16 -12.9 22 -3.4 6.1 -7.8 13.5 -9.9 16.5 -2 3 -3.7 5.9 -3.7 6.4 0 0.5 -0.6 1.7 -1.4 2.5 -0.7 0.9 -3.8 6.5 -6.9 12.4 l-5.6 10.9 6.2 7.4 c4.9 5.8 6.6 7.4 8.2 7 1.2 -0.3 7.5 -1.4 14 -2.5z m760.5 -9.9 c8 -1.6 23.1 -4.4 33.5 -6.2 26.1 -4.3 23.9 -3.3 24.7 -11 0.3 -3.6 1.8 -10.3 3.3 -14.9 l2.7 -8.3 -11.4 -11.7 c-28.7 -29.5 -63.3 -65.3 -73.2 -75.8 -4.3 -4.5 -8.6 -8.3 -9.4 -8.3 -0.7 0 -2.9 0.7 -4.8 1.6 -1.8 0.9 -5.5 2.1 -8.1 2.8 l-4.8 1.2 -1.2 9 c-1.4 10.4 -4.1 35 -5.3 47.9 -2.2 23.5 -4.1 41.2 -4.5 43.3 -0.5 1.9 0.4 2.7 6.7 5.7 4 2 9.3 5.5 11.6 7.8 5 4.9 12.8 14.8 14.5 18.4 1 2.2 1.5 2.4 6.1 2 2.8 -0.2 11.6 -1.8 19.6 -3.5z m-110.6 -17.1 c5.7 -5.2 15.7 -10.5 21.8 -11.6 2.1 -0.4 4 -1.4 4.3 -2.4 0.4 -1.5 1.3 -9.2 3.6 -31.6 1.8 -17.9 2.8 -26.8 4.3 -39.5 0.8 -6.9 1.8 -16.4 2.1 -21.1 l0.7 -8.7 -6.8 -3.2 c-4.8 -2.3 -8.9 -5.4 -13.7 -10.3 -6.5 -6.6 -7.1 -7 -9.6 -6 -18.4 7.6 -71.5 28.5 -77.6 30.5 -1.6 0.6 -4.5 1.7 -6.3 2.5 -1.8 0.8 -5.6 2.3 -8.5 3.3 -2.9 0.9 -9.5 3.4 -14.7 5.5 -5.2 2 -17.8 7 -28 11 -10.2 4 -20.1 7.8 -22.1 8.4 l-3.6 1.2 -0.2 7.2 c-0.2 8.2 -1.8 6.8 14.5 13.3 4.9 2 10.3 4.2 11.9 5 1.7 0.7 10.4 4.3 19.5 7.9 9.1 3.7 19.4 8 23 9.7 6.6 3.1 38 16.4 52.5 22.3 4.4 1.7 10.5 4.4 13.5 6 5.2 2.6 11.6 5.3 13.2 5.4 0.4 0.1 3.2 -2.1 6.2 -4.8z m-465.5 -45.5 c2.1 -1.8 12.5 -6.2 17.9 -7.6 3.6 -0.9 4.2 -1.4 4.2 -3.8 0 -2.6 4.9 -60.3 7 -82.7 0.6 -6 1.5 -15.7 2 -21.5 0.5 -5.8 1.2 -11.5 1.6 -12.7 0.5 -1.8 -0.1 -2.5 -3.8 -4.4 -6.7 -3.4 -12.8 -7.9 -17.3 -12.6 l-4 -4.4 -5.8 2 c-3.1 1.1 -7 2.7 -8.5 3.5 -5.4 3 -42.1 20.6 -42.9 20.6 -0.4 0 -9.3 4.3 -19.8 9.6 l-19 9.7 -0.1 11.6 c0 9.2 -0.4 12.8 -2.1 17.5 -1.9 5.5 -2 6 -0.4 7.6 2.7 2.8 29.2 24 41.5 33.3 3.2 2.4 25.4 19.9 32.6 25.6 6.7 5.4 13.4 10.1 14.4 10.1 0.5 0 1.7 -0.6 2.5 -1.4z m318.1 -55.6 c7.4 -2.9 15.5 -6.1 18 -7.2 7 -3.2 27 -10.8 28.2 -10.8 0.7 0 3 -0.8 5.2 -1.8 2.3 -1 7.7 -3.3 12.1 -5 10.8 -4.2 59.9 -23.4 70.7 -27.7 4.8 -1.9 9.4 -3.5 10.3 -3.5 2.6 0 4.6 -4.5 4.3 -9.7 l-0.3 -4.8 -24.5 -8.1 c-13.5 -4.5 -36.9 -12.2 -52 -17.2 -15.1 -5 -30.6 -10.2 -34.4 -11.6 -9.6 -3.6 -10.5 -3.4 -14.9 2.3 -2.1 2.7 -5.3 6.1 -7.2 7.6 -5.5 4.1 -17.4 9.4 -24.9 11 -7.1 1.4 -8.5 2.5 -8.6 6 0 1.7 -4.3 18.9 -14.6 57.8 -2.4 9.3 -2.6 10.9 -1.4 11.7 4.2 2.4 14 10.9 15.9 13.8 1.2 1.9 2.8 3.1 3.4 2.8 0.7 -0.2 7.3 -2.8 14.7 -5.6z m-88.4 -9.1 c2 -3.2 17.9 -8.6 27.9 -9.3 0.5 -0.1 1.3 -2.1 1.7 -4.6 0.5 -2.5 2 -9 3.5 -14.5 1.4 -5.5 4.9 -19 7.8 -30 2.8 -11 5.5 -20.7 5.9 -21.6 0.5 -1.1 -1 -2.9 -5.6 -6.4 -9.8 -7.7 -16 -15.4 -18.9 -23.9 l-1.4 -3.9 -12.5 0.7 c-6.9 0.4 -17 1.1 -22.5 1.6 -5.5 0.5 -17.4 1.4 -26.5 2 -9.1 0.6 -26.2 1.7 -38 2.6 -11.8 0.8 -27.4 1.8 -34.7 2.3 -7.3 0.4 -13.5 1 -13.8 1.3 -0.4 0.3 -0.8 3 -1.1 5.9 l-0.4 5.4 4.7 3.5 c2.7 2 9.5 7.2 15.1 11.5 5.7 4.4 12.6 9.6 15.2 11.5 16.7 12.1 20.7 15 22.5 16.7 1.1 1 6.4 5.1 11.7 9.1 5.3 3.9 9.9 7.6 10.3 8.2 0.3 0.5 4.7 3.9 9.8 7.5 5.1 3.5 10.3 7.6 11.6 9 1.3 1.4 2.8 2.5 3.3 2.5 0.6 0 3 1.7 5.3 3.8 10.7 9.3 17 12.4 19.1 9.1z"/>
 </g>
</svg>