<?xml version="1.0" encoding="UTF-8" standalone="no"?><!DOCTYPE svg PUBLIC "-//W3C//DTD SVG 1.1//EN" "http://www.w3.org/Graphics/SVG/1.1/DTD/svg11.dtd"><svg width="100%" height="100%" viewBox="0 0 1123 1039" version="1.1" xmlns="http://www.w3.org/2000/svg" xmlns:xlink="http://www.w3.org/1999/xlink" xml:space="preserve" xmlns:serif="http://www.serif.com/" style="fill-rule:evenodd;clip-rule:evenodd;stroke-linejoin:round;stroke-miterlimit:2;"><g><path d="M783,1019.7c-10,-3.4 -14.9,-6.4 -22,-13.6c-11.3,-11.5 -16.8,-25.7 -15.6,-40.1c0.8,-9.5 2.8,-16 6.7,-22.1c1.7,-2.7 2.9,-5.2 2.7,-5.7c-0.6,-1.6 -43.3,-59.2 -53.5,-72.2c-2.3,-3 -9.5,-12.5 -15.8,-21c-21.2,-28.2 -25.2,-33.5 -26.6,-34.6c-1,-0.9 -2.7,-0.8 -6.4,0.2c-13.8,3.7 -24.9,2.6 -38.2,-3.6c-17.8,-8.3 -27.7,-22.9 -29.2,-43.3l-0.6,-8.7l-14.5,-5.1c-12.7,-4.4 -48,-16.5 -55,-18.8c-7.6,-2.5 -50.7,-17.7 -57.2,-20.2c-10.6,-4 -11.6,-3.9 -16.2,2.1c-4.5,5.9 -9,9.6 -16.8,13.8c-20.6,11.2 -45.9,6.7 -62,-10.8c-7.6,-8.3 -10.2,-12.7 -12.7,-22c-2.5,-8.9 -2.6,-15.6 -0.5,-24.6c0.8,-3.7 1.1,-7 0.7,-7.5c-0.4,-0.4 -5.6,-3.6 -11.4,-7.1c-5.9,-3.5 -13.8,-8.2 -17.5,-10.4c-3.8,-2.3 -10.5,-6.2 -14.9,-8.8c-4.4,-2.6 -11.4,-6.8 -15.5,-9.3c-4.1,-2.5 -9,-5.4 -10.9,-6.4l-3.4,-1.8l-4.3,3.8c-6.1,5.4 -16.7,10.7 -24.2,12.1c-3.6,0.8 -10,1.1 -15.1,0.8c-16.1,-1 -30.7,-9.6 -41.1,-24.4c-6.5,-9.2 -9.7,-27.2 -7,-39.3c1.4,-6.2 5.4,-15.4 7.6,-17.2c1.8,-1.4 1.8,-4.3 0.1,-6.1c-0.7,-0.7 -3.8,-4.8 -6.8,-9.2c-3,-4.3 -7.9,-11.4 -10.9,-15.6c-3,-4.3 -8.9,-12.6 -13,-18.5c-4.1,-5.9 -10,-14.2 -13.1,-18.4c-5.4,-7.4 -19.5,-27.3 -29.5,-41.6c-2.7,-3.8 -7.6,-11.1 -10.9,-16c-10.2,-15.3 -9.4,-14.6 -15.1,-12.9c-6.9,2.1 -22.6,2 -28.8,-0.1c-14.5,-4.9 -24.5,-12.8 -31.4,-24.7c-6.5,-11.1 -8.8,-26.4 -5.6,-37.6c5.6,-19.3 19.4,-32.8 39.7,-38.6c8.7,-2.5 9.9,-2.6 20.3,-1c2.7,0.4 3.3,0.1 4.3,-2.3c0.6,-1.6 2,-4.1 3.1,-5.8c1,-1.6 3.1,-5.1 4.6,-7.7c1.5,-2.7 3.1,-4.8 3.6,-4.8c0.4,0 0.8,-0.6 0.8,-1.4c0,-1.4 7.9,-15.8 17.9,-32.6c3.1,-5.2 6.7,-11.5 8,-14c1.3,-2.5 3,-5.2 3.7,-6c0.7,-0.9 2.7,-4.3 4.5,-7.5c1.7,-3.3 3.8,-6.7 4.5,-7.6c0.8,-0.8 1.4,-1.9 1.4,-2.3c0,-0.4 1.1,-2.2 2.5,-4c3.2,-4.2 3.2,-7.1 0,-9.2c-4.2,-2.7 -10.2,-16.5 -11.6,-26.5c-1,-7.3 -0.9,-9.7 0.5,-16.9c3.9,-19 15.5,-32.7 32.9,-38.6c9.2,-3.2 17.2,-3.9 27.1,-2.5c9.7,1.4 20.1,6.7 28.4,14.8c5,4.8 6.1,5.4 8.7,4.8c3.9,-0.7 8.5,-2.8 8.5,-3.7c0,-0.5 0.5,-0.8 1.1,-0.8c0.5,0 10.1,-4.5 21.2,-9.9c25.2,-12.4 35.4,-17.1 36.6,-17.1c0.5,0 1.1,-0.3 1.3,-0.8c0.2,-0.4 4.1,-2.4 8.8,-4.5c4.7,-2.1 10.1,-4.9 12.1,-6.1l3.5,-2.4l-0.3,-11c-0.3,-13.7 1.1,-18.8 8.2,-29.7c7.1,-10.7 16.4,-18.2 27.6,-22.1c8.2,-2.9 27.3,-2.6 35.2,0.5c11.7,4.6 26.3,19.2 30.2,30.1l1.2,3.5l11.9,-0.3c6.6,-0.2 18,-0.7 25.4,-1.2c21,-1.5 70.1,-4.4 95,-5.6c7.4,-0.4 14.4,-1 15.6,-1.5c1.4,-0.5 2.3,-1.9 2.7,-4.4c0.6,-3.5 5.5,-14.3 8,-17.5c2.4,-3.1 15.3,-12.7 19.9,-14.8c7.7,-3.5 13.2,-4.5 24.2,-4c10,0.3 10.8,0.5 19.3,4.8c18.9,9.5 30.3,26.7 30.3,45.9l0,4.6l12.3,3.8c16.5,5.1 15.5,4.8 54.8,18c19,6.4 39.1,12.9 44.8,14.6l10.3,3l6.5,-6.5c7.1,-7 12,-9.9 22.5,-13.3c7.4,-2.3 20,-2.8 27.7,-1c15,3.4 30.4,17 36.7,32.4c2.7,6.5 2.9,7.9 2.8,19.5c-0.1,10.5 -0.5,13.7 -2.6,20l-2.6,7.5l3.6,4c3.2,3.7 53.1,55.1 79.7,82.3l11.1,11.3l6.5,-3c14.6,-6.6 27.2,-6.2 41.7,1.1c19,9.7 28.7,25.6 28.6,46.8c0,18.8 -8.7,34.6 -23.8,43.4c-3.7,2.1 -6.8,4.2 -7,4.5c-0.6,0.9 6.1,29.4 12.7,54.1l2.2,8.5l6.5,0.6c12.5,1.2 23.6,6.5 32.6,15.7c19.4,19.6 19.3,52.8 -0.3,72.9c-3.2,3.3 -7.1,6.9 -8.8,8c-5.2,3.6 -17.1,7.3 -23.4,7.3c-3.2,0 -7.2,0.3 -8.8,0.6c-3.2,0.6 -2.5,-0.9 -15.5,35.9c-3.3,9.4 -7.9,22 -10.3,28c-2.4,6.1 -6,15.4 -8,20.8c-9.3,25.6 -10.6,29.2 -12.5,33.4c-1.1,2.5 -2,5.3 -2,6.2c0,0.9 2.3,3.9 5,6.6c19.9,19.6 23.2,44.9 8.7,67.2c-7.9,12.2 -22.8,21 -38.5,22.8c-11.8,1.4 -27.6,-3.2 -39.6,-11.4c-2.5,-1.7 -4.9,-3.1 -5.3,-3.1c-0.5,0 -7,3.7 -14.4,8.1c-7.4,4.5 -14.6,8.8 -16.1,9.6c-1.6,0.8 -2.8,1.9 -2.8,2.4c0,0.5 -0.5,0.9 -1.2,0.9c-0.6,0 -5.4,2.7 -10.5,6c-5.2,3.3 -9.6,6 -9.9,6c-0.5,0 -16.5,9.7 -24.1,14.6c-2.8,1.9 -5.4,3.4 -5.8,3.4c-0.4,0 -3,1.5 -5.8,3.3c-7.2,4.7 -11.6,7.3 -15.7,9.3c-1.9,1 -5.9,3.3 -8.7,5.1c-2.9,1.8 -7.3,3.8 -9.8,4.4c-3.2,0.8 -4.5,1.7 -4.5,2.9c0,1.8 3.9,51.5 6.6,84c0.9,10.7 1.9,19.8 2.2,20.1c0.4,0.4 2.5,1.2 4.7,1.9c13.1,4.2 22.9,11.7 30.1,23.1c8.2,13 8.5,38.2 0.6,51.9c-5.4,9.4 -17.3,19.4 -28.7,24.1c-8.6,3.5 -21.8,3.8 -31.5,0.6Zm-3.3,-99.3c0.6,-1.6 -1.7,-39.2 -3.8,-62.9c-0.5,-6 -1.3,-17 -1.8,-24.3c-0.4,-7.3 -1.2,-13.7 -1.8,-14.3c-0.5,-0.5 -5.8,-2.7 -11.9,-4.8c-6,-2.2 -15.8,-5.8 -21.9,-8.1c-6,-2.3 -12.3,-4.5 -14,-4.9c-6.7,-1.8 -20.4,-6.5 -26,-9.1c-3.3,-1.5 -7.7,-3.3 -9.9,-4.1c-3.7,-1.4 -3.9,-1.3 -6.2,1.6c-1.3,1.7 -2.4,3.5 -2.4,4.1c0,0.6 4,6.3 8.8,12.5c4.8,6.3 17.4,22.9 27.9,36.9c10.5,14 24.7,32.9 31.7,42c7,9.1 16.1,21.1 20.3,26.8c7.6,10.1 9.8,11.8 11,8.6Zm-9.2,-132.1c-0.3,-4.9 -1,-14.4 -1.5,-21.3c-1.4,-19.2 -2.9,-41.3 -4.5,-66c-0.8,-12.4 -1.9,-29.5 -2.5,-38c-0.5,-8.5 -1.2,-17.9 -1.3,-20.7c-0.2,-2.9 -0.6,-5.5 -0.8,-5.7c-0.2,-0.2 -2.7,-0.7 -5.5,-1.1l-5.1,-0.6l-6.5,8.3c-3.5,4.6 -8,10.6 -9.8,13.3c-1.9,2.8 -14.6,20.1 -28.4,38.5l-24.9,33.4l3.2,5.9c5.4,9.7 7.1,16 7.1,26.2l0,9.2l4.3,1c2.3,0.6 9.4,3.1 15.7,5.5c6.3,2.5 13.3,5 15.5,5.7c5.4,1.7 19.3,6.6 28.8,10.2c6.6,2.5 13,4.4 16,4.8c0.4,0.1 0.5,-3.8 0.2,-8.6Zm33.2,2.8c5.7,-3.4 28,-16.7 33.4,-19.8c2,-1.2 6.8,-4.1 10.6,-6.4c3.7,-2.3 11.8,-7.1 17.8,-10.7c17,-10 30.5,-18.4 44.3,-27.2c7.7,-4.9 8.3,-5.6 7.7,-7.9c-2.5,-9.7 -3,-17 -2,-24.9l1.1,-8.2l-9,-5.4c-14.6,-8.7 -52.1,-30.4 -64.6,-37.4c-6.3,-3.5 -14.4,-8.3 -18,-10.6c-9.7,-6.3 -15.7,-9.6 -17.1,-9.6c-0.7,0 -3.5,1.8 -6.3,3.9c-2.8,2.1 -7.5,4.9 -10.3,6.1c-6.1,2.6 -5.9,1.6 -4.3,19.5c0.5,6.1 1.4,17.3 2,25c0.6,7.7 1.3,16 1.5,18.5c0.3,2.5 0.7,7.2 1,10.5c0.8,8.7 6.5,84.1 6.5,85.9c0,2.1 0.1,2.1 5.7,-1.3Zm-204,-65.8c5.6,-6.4 13.5,-11.6 22.1,-14.5c7.3,-2.5 22.2,-2.8 30.6,-0.5c5.5,1.5 6,1.5 8.2,-0.1c1.2,-0.9 3,-3.3 3.9,-5.2c0.9,-1.9 2.8,-4.8 4.2,-6.5c1.4,-1.6 11.1,-14.5 21.6,-28.5c26.2,-34.9 30.6,-40.6 35,-45.5c2,-2.3 3.7,-4.6 3.7,-5c0,-0.4 -1.1,-2 -2.5,-3.7c-1.4,-1.6 -2.5,-3.6 -2.5,-4.4c0,-2.2 -3.3,-1.7 -23.5,3.6c-10.5,2.8 -28.7,7.5 -40.5,10.5c-11.8,2.9 -26.7,6.8 -33,8.5c-6.3,1.7 -21.8,5.8 -34.5,9c-71.5,18.2 -84.8,21.7 -103.5,26.7c-11.3,3.1 -23.6,6.3 -27.5,7.3c-5.5,1.3 -7,2.1 -7,3.6c0,1.5 2.9,2.8 15,7c8.3,2.9 20.9,7.4 28,9.9c11.8,4.3 24.1,8.6 68,24c8.3,2.9 17.3,6.2 20,7.3c7.6,3.1 8.6,2.9 14.2,-3.5Zm334.9,-64.4c7.9,-6.3 21.3,-11.6 31,-12.3c7.6,-0.5 8.4,-1.7 15.5,-22c3.1,-8.9 7.7,-21.3 10.1,-27.6c2.4,-6.3 5.3,-14.2 6.3,-17.5c1,-3.3 2.2,-6.5 2.7,-7.2c0.5,-0.6 1.8,-3.8 2.8,-7c1,-3.2 3.7,-10.5 6,-16.3c2.2,-5.8 5.2,-13.6 6.5,-17.4c1.4,-3.8 3,-7.5 3.6,-8.3c0.7,-0.8 0.8,-1.7 0.3,-2.2c-0.5,-0.5 -3.9,-3.4 -7.7,-6.5c-6.3,-5.3 -7,-5.6 -10,-4.8c-3,0.9 -29.6,10.9 -60.2,22.7c-7.7,3 -20.3,7.7 -28,10.5c-14.3,5.3 -30.6,11.6 -63.5,24.5c-10.2,4 -20.3,7.9 -22.6,8.5l-4.1,1.2l-0.9,10.7c-0.5,5.8 -0.7,10.7 -0.4,10.9c0.3,0.1 5.2,3 11,6.4c5.8,3.4 15.7,9.2 22,12.9c6.3,3.7 14.7,8.8 18.5,11.2c3.9,2.4 10.2,6.1 14,8.2c8.9,4.8 17.5,9.9 24.5,14.4c5.9,3.8 17.1,10 18.1,10.1c0.3,0 2.4,-1.4 4.5,-3.1Zm-458.6,-14.8c15.1,-3.8 35.6,-9 45.5,-11.6c9.9,-2.6 23.2,-5.9 29.5,-7.5c6.3,-1.5 20.1,-5 30.5,-7.8c16.3,-4.4 27,-7.1 47,-12c2.2,-0.5 11.9,-3 21.5,-5.5c9.6,-2.5 23.1,-6 30,-7.7c6.9,-1.7 17.6,-4.5 23.8,-6.2c12.6,-3.5 13.2,-4.1 13.2,-11.9c0,-2.2 0.7,-5.6 1.6,-7.7c1.4,-3.4 1.4,-3.8 -0.2,-4.7c-0.9,-0.5 -4.4,-3.1 -7.8,-5.6c-8.6,-6.4 -48.7,-35.4 -86.5,-62.5c-5,-3.6 -6,-3.9 -7.5,-2.8c-1,0.7 -5.9,2.9 -11,5c-7.9,3.2 -10.5,3.7 -19.1,4.1c-9.5,0.4 -11.9,0.1 -22.1,-3.2c-1.8,-0.5 -3.4,1 -10.6,10.2c-4.7,5.9 -10.1,12.6 -12,14.8c-2,2.2 -6.6,8.1 -10.3,13c-7.8,10.3 -8.9,11.6 -22.3,28c-5.4,6.6 -12.7,15.8 -16.3,20.4c-3.5,4.6 -8.4,10.9 -10.9,14.1c-2.5,3.2 -7.2,9.3 -10.5,13.6c-3.2,4.4 -8,10.4 -10.5,13.4c-2.5,3 -7.4,9.2 -10.9,13.7c-6.2,8.1 -6.2,8.2 -4.6,10.7c1,1.4 2,2.6 2.4,2.6c0.3,0 13,-3.1 28.1,-6.9Zm-108.3,-6.2c6.1,-5.8 13.3,-9.4 23,-11.4c9.4,-2 15.5,-1.9 24.3,0.6l7.5,2l4.5,-4.8c2.5,-2.7 12.6,-15.2 22.5,-27.8c9.8,-12.7 22.7,-29 28.5,-36.4c10.3,-13.1 49.1,-61.2 53.3,-66.1c4,-4.7 7.7,-9.9 7.7,-10.8c0,-0.6 0.5,-1.2 1.2,-1.4c0.6,-0.2 0.9,-1.2 0.5,-2.1c-0.6,-1.5 -1,-1.6 -3.9,-0.3c-3.7,1.6 -39.2,15.6 -47.8,18.8c-3,1.1 -8,3.1 -11.1,4.4c-6.8,2.9 -35.6,14 -62.4,24c-11,4.2 -21.3,8.1 -23,8.8c-1.6,0.8 -12.4,5 -24,9.4c-43.5,16.8 -66,25.4 -71.4,27.4c-3.1,1.1 -6,2.4 -6.5,2.9c-0.5,0.5 -0.9,3.4 -0.7,6.6c0.1,3.2 -0.5,8.4 -1.4,11.6c-1.8,6.8 -1.8,6.7 -0.6,6.7c0.6,0 3.8,1.9 7.3,4.3c3.5,2.4 10.8,7 16.2,10.3c5.4,3.2 12.5,7.5 15.7,9.4c7.9,4.8 23.6,14.3 27.9,16.8c5.2,3 6.8,2.7 12.7,-2.9Zm465.5,-91.8c9,-3.2 21.7,-8 28.3,-10.6c6.6,-2.6 16.5,-6.5 22,-8.5c11,-4.2 51.6,-19.6 78,-29.7c9.4,-3.6 20.8,-7.9 25.5,-9.7l8.5,-3.1l1.6,-22l-2.8,-2.3c-1.5,-1.2 -7.7,-5 -13.8,-8.3c-6,-3.4 -15.6,-8.9 -21.3,-12.3c-11.8,-7 -11.4,-6.8 -20.7,-12c-3.9,-2.2 -15.8,-9.2 -26.5,-15.6c-10.7,-6.4 -23,-13.6 -27.3,-16.1c-4.3,-2.4 -9.9,-5.6 -12.5,-7.1c-5.6,-3.3 -6.9,-3.4 -9.6,-0.9c-4.3,3.9 -18,10.2 -24.6,11.1c-10.9,1.7 -11,1.7 -11,4.9c0,1.6 -6,26.9 -13.4,56.3c-7.4,29.3 -14.4,58.4 -15.7,64.6l-2.2,11.3l2.8,2.2c8.6,6.7 14.5,11.9 14.5,12.7c0,1.9 4.1,0.9 20.2,-4.9Zm-538.2,-0.4c5.2,-1.9 14.7,-5.6 21,-8.2c11.5,-4.7 20.7,-8.3 54.2,-20.9c9.8,-3.6 26.4,-10 37,-14.1c10.6,-4.2 28.1,-11 38.8,-15.1c39.5,-15.3 86.1,-33.8 86.4,-34.3c0.2,-0.4 0.7,-5.5 1,-11.6l0.7,-11l-12.8,-7.6c-11,-6.6 -25.7,-15.5 -50.8,-30.9c-3.3,-2 -11.4,-7 -18,-11.1c-6.5,-4.1 -12.4,-7.6 -13,-7.8c-1.1,-0.4 -16.8,-10 -30,-18.4c-4.4,-2.8 -9.6,-5.9 -11.5,-7l-3.5,-2l-6.9,4.7c-10.5,7 -16.2,8.9 -28.9,9.4l-10.8,0.4l-1.9,3.9c-1.1,2.1 -4.1,8.7 -6.6,14.6c-2.6,6 -7.2,16.2 -10.4,22.8c-6.5,13.7 -6,12.7 -17.4,38.1c-4.7,10.6 -8.6,19.4 -8.6,19.7c0,0.3 -3.3,7.6 -7.4,16.4c-9.1,19.6 -19.8,43.8 -24.1,54.9c-3.1,7.9 -3.2,8.4 -1.4,8.9c2.2,0.7 3.2,1.7 7.3,6.9c3.5,4.4 3.5,4.4 17.6,-0.7Zm444.8,-6.6c5.2,-3.7 19,-8.6 26.7,-9.4c2.5,-0.3 3.1,-1 4.2,-4.8c1.7,-6.1 11.6,-46.3 14.3,-57.9c1.1,-5.2 3.2,-13.5 4.6,-18.5c1.4,-4.9 2.9,-10.6 3.4,-12.5c0.9,-3.2 8.4,-34.5 9.5,-39.7c0.4,-1.7 -0.4,-2.8 -3.7,-5.2c-2.4,-1.6 -6.5,-5.2 -9.2,-7.9c-5.6,-5.8 -4.3,-5.9 -21.6,1.6c-6.3,2.7 -16.9,7.1 -23.5,9.6c-11.1,4.4 -17.1,6.9 -30,12.7c-2.7,1.2 -9.5,3.9 -15,6c-5.5,2.2 -11.8,4.8 -14,5.8c-5.4,2.7 -25.7,11.1 -37.7,15.6l-9.7,3.7l0,9.3c0,8.9 -1.4,17.8 -3.2,20.1c-0.9,1.1 5.2,5.9 27.1,21.4c6.6,4.7 19.1,13.7 27.8,20c8.6,6.4 21.1,15.5 27.8,20.2c6.6,4.8 12.6,9.4 13.3,10.2c1.8,2.1 5.7,2 8.9,-0.3Zm-517.8,-9.8c2.5,-0.8 8.3,-1.6 12.8,-1.7c7.6,-0.2 8.6,-0.4 10.3,-2.7c1,-1.3 1.9,-2.8 1.9,-3.3c0,-0.4 2.3,-6 5.1,-12.5c2.8,-6.4 6,-13.6 7.1,-16.1c2.2,-5 3.7,-8.4 9.8,-21.5c2.3,-4.9 5,-11 6,-13.5c1,-2.5 3.8,-8.8 6.2,-14c6.8,-14.5 8.9,-19.2 10.3,-23c0.7,-1.9 2.8,-6.9 4.7,-11c4.2,-9 7.4,-16.1 9.8,-21.5c5.7,-13 17.4,-38.1 18.1,-38.9c0.5,-0.6 -1.4,-3.4 -4.4,-6.6c-6.9,-7.4 -9.2,-10.2 -10,-12.4c-0.4,-0.9 -1.1,-1.5 -1.6,-1.2c-0.5,0.4 -15.3,3.5 -32.8,7c-17.5,3.5 -37.4,7.5 -44.3,8.9c-6.9,1.4 -19,3.8 -27,5.2c-8,1.4 -18.8,3.5 -24,4.5c-5.2,1 -16.9,3.3 -26,5c-24.7,4.7 -22.4,3.7 -23.1,9.6c-0.9,7 -2.5,11.6 -7.3,20.8c-2.8,5.5 -3.7,8.1 -2.8,8.3c0.6,0.3 1.2,0.9 1.2,1.5c0,0.9 5.8,9.9 7,10.8c0.4,0.3 0.9,1 1.1,1.7c0.2,0.6 1.7,2.6 3.2,4.5c2.7,3.2 8.4,11.2 19.7,27.8c10.5,15.3 18.4,26.5 26,37c4.2,5.8 10.7,14.9 14.4,20.3c15.5,23 20.8,29.8 22.5,29.1c0.9,-0.3 3.6,-1.3 6.1,-2.1Zm792.6,-91.4c1,-1.1 4.1,-3.1 6.9,-4.5c9.2,-4.5 9.1,-4.3 7.2,-12.6c-0.9,-4 -2.5,-11.8 -3.7,-17.3c-2.3,-11.2 -3.7,-17.3 -5,-22.5c-0.5,-1.9 -1.5,-6.2 -2.2,-9.5c-1.3,-5.9 -1.4,-6 -4.8,-6.1c-11.5,-0.3 -22.6,-3.9 -29.8,-9.5c-6.4,-4.9 -12.4,-11.6 -15.4,-17c-2,-3.7 -3.9,-5.9 -5,-5.9c-1.8,0 -43,8.4 -48.8,10c-7.3,2 -24.3,5 -28,5c-4.2,0 -4.2,-0.1 -5.5,10.1c-0.6,4.4 -0.5,4.6 3.1,7.4c3.7,2.8 5.4,3.8 15.1,9c2.3,1.2 5.4,3.1 7,4.2c1.5,1.1 4.6,2.9 6.8,4c3.8,1.9 8.5,4.6 21.7,12.4c3.2,1.9 9.2,5.4 13.5,7.8c4.3,2.4 10.5,6.1 13.8,8.1c3.3,2.1 10.5,6.3 16,9.5c15.4,9 27.8,16.6 29.3,18.1c2,2 5.6,1.7 7.8,-0.7Zm-372.1,-20.8c2.8,-1 8.2,-3.1 12,-4.6c3.9,-1.5 9.3,-3.7 12,-5c2.8,-1.3 9.5,-4.2 15,-6.5c5.5,-2.3 15.7,-6.6 22.7,-9.6c7,-3 15.1,-6.3 18,-7.3c2.9,-1 7.8,-3 10.8,-4.4c3,-1.3 13.6,-5.9 23.5,-10.1c9.9,-4.2 18.5,-7.9 19,-8.4c0.6,-0.4 0.8,-5.2 0.5,-12.5l-0.5,-11.9l-12,-4.9c-6.6,-2.8 -20.5,-8.5 -31,-12.9c-24.3,-10 -28.4,-11.8 -31.7,-13.6c-1.5,-0.8 -5.1,-2.3 -8,-3.3c-2.9,-1 -10.2,-4 -16.3,-6.6c-53.4,-22.9 -49.3,-21.7 -54.5,-15.9c-3.6,3.9 -13.4,10 -19.1,11.9c-3.9,1.3 -4.9,2.1 -4.9,3.8c0,1.2 -0.1,24.3 -0.3,51.4c-0.3,33 0,49.6 0.7,50.3c0.5,0.5 1.8,1 2.7,1c5.9,0 21.4,11.1 26.3,18.7c1.9,3.2 2.4,3.4 6.1,2.9c2.2,-0.3 6.3,-1.4 9,-2.5Zm-89.9,-11c1.6,-1.9 5.5,-4.1 10.9,-6.3l8.5,-3.3l0,-51.7c0,-39.1 -0.3,-51.8 -1.2,-51.8c-0.6,0 -4.8,-1.8 -9.3,-3.9c-10.7,-5.2 -18.2,-12.7 -23.7,-23.8c-3.7,-7.4 -4.1,-9.1 -4.6,-17.6c-0.3,-6.6 0.1,-11.8 1.3,-17.8c1.7,-8.4 1.7,-8.4 -0.5,-9.9c-1.2,-0.8 -4.7,-3.6 -7.8,-6.1c-3.1,-2.5 -10.9,-8.4 -17.2,-13.2c-6.3,-4.7 -18.5,-14 -27,-20.6c-37.3,-28.9 -56.4,-43.4 -66.1,-50.3l-5.7,-3.9l-5.3,2.9c-3,1.7 -8.1,3.8 -11.4,4.8c-3.3,1 -6.5,2.2 -7.1,2.6c-1.4,1.1 -1.9,4.7 -4.4,34.8c-1.2,13.5 -2.8,30.6 -3.6,38c-1.5,13.4 -4.4,43.5 -4.4,45.6c0,0.6 3.3,2.9 7.3,5c13.6,7.1 24.5,20.6 27.6,34.4c1.4,6.1 1.4,17.7 -0.1,23.9c-1.3,5.6 -0.9,6.1 5.2,9.3c1.4,0.7 5.4,3.1 9,5.4c3.6,2.2 8.7,5.4 11.3,7c2.7,1.6 6.7,4.1 9,5.6c2.3,1.5 5.3,3.3 6.7,4c2.3,1.2 14.5,8.8 23,14.3c1.9,1.3 5.5,3.4 8,4.8c2.5,1.3 10.4,6.1 17.5,10.5c7.2,4.4 16.5,10.2 20.8,12.9c4.3,2.6 12,7.6 17,11c5.1,3.4 10.2,6.2 11.5,6.2c1.4,0.1 3.3,-1.1 4.8,-2.8Zm-410.1,-70c10.3,-1.7 22.3,-4 46,-9c11.9,-2.5 21,-4.3 37,-7.1c18.3,-3.2 33.1,-6 57.4,-10.9c8.4,-1.7 16.6,-3.1 18.2,-3.1c1.5,0 3,-0.4 3.3,-0.8c0.2,-0.4 0.7,-5 1.1,-10.2l0.7,-9.5l-13.4,-10.6c-18.9,-15 -46.7,-37.1 -50.4,-40c-1.7,-1.3 -7.7,-6.1 -13.3,-10.6c-5.5,-4.6 -10.5,-8.3 -11,-8.3c-0.5,0 -4,1.4 -7.8,3.1c-10.6,4.7 -18.3,6.2 -29.3,5.6l-9.5,-0.6l-4.5,7.7c-2.5,4.2 -4.8,8.4 -5.1,9.2c-0.4,0.9 -3.7,6.5 -7.4,12.5c-3.8,6.1 -9.6,16 -12.9,22c-3.4,6.1 -7.8,13.5 -9.9,16.5c-2,3 -3.7,5.9 -3.7,6.4c0,0.5 -0.6,1.7 -1.4,2.5c-0.7,0.9 -3.8,6.5 -6.9,12.4l-5.6,10.9l6.2,7.4c4.9,5.8 6.6,7.4 8.2,7c1.2,-0.3 7.5,-1.4 14,-2.5Zm760.5,-9.9c8,-1.6 23.1,-4.4 33.5,-6.2c26.1,-4.3 23.9,-3.3 24.7,-11c0.3,-3.6 1.8,-10.3 3.3,-14.9l2.7,-8.3l-11.4,-11.7c-28.7,-29.5 -63.3,-65.3 -73.2,-75.8c-4.3,-4.5 -8.6,-8.3 -9.4,-8.3c-0.7,0 -2.9,0.7 -4.8,1.6c-1.8,0.9 -5.5,2.1 -8.1,2.8l-4.8,1.2l-1.2,9c-1.4,10.4 -4.1,35 -5.3,47.9c-2.2,23.5 -4.1,41.2 -4.5,43.3c-0.5,1.9 0.4,2.7 6.7,5.7c4,2 9.3,5.5 11.6,7.8c5,4.9 12.8,14.8 14.5,18.4c1,2.2 1.5,2.4 6.1,2c2.8,-0.2 11.6,-1.8 19.6,-3.5Zm-110.6,-17.1c5.7,-5.2 15.7,-10.5 21.8,-11.6c2.1,-0.4 4,-1.4 4.3,-2.4c0.4,-1.5 1.3,-9.2 3.6,-31.6c1.8,-17.9 2.8,-26.8 4.3,-39.5c0.8,-6.9 1.8,-16.4 2.1,-21.1l0.7,-8.7l-6.8,-3.2c-4.8,-2.3 -8.9,-5.4 -13.7,-10.3c-6.5,-6.6 -7.1,-7 -9.6,-6c-18.4,7.6 -71.5,28.5 -77.6,30.5c-1.6,0.6 -4.5,1.7 -6.3,2.5c-1.8,0.8 -5.6,2.3 -8.5,3.3c-2.9,0.9 -9.5,3.4 -14.7,5.5c-5.2,2 -17.8,7 -28,11c-10.2,4 -20.1,7.8 -22.1,8.4l-3.6,1.2l-0.2,7.2c-0.2,8.2 -1.8,6.8 14.5,13.3c4.9,2 10.3,4.2 11.9,5c1.7,0.7 10.4,4.3 19.5,7.9c9.1,3.7 19.4,8 23,9.7c6.6,3.1 38,16.4 52.5,22.3c4.4,1.7 10.5,4.4 13.5,6c5.2,2.6 11.6,5.3 13.2,5.4c0.4,0.1 3.2,-2.1 6.2,-4.8Zm-465.5,-45.5c2.1,-1.8 12.5,-6.2 17.9,-7.6c3.6,-0.9 4.2,-1.4 4.2,-3.8c0,-2.6 4.9,-60.3 7,-82.7c0.6,-6 1.5,-15.7 2,-21.5c0.5,-5.8 1.2,-11.5 1.6,-12.7c0.5,-1.8 -0.1,-2.5 -3.8,-4.4c-6.7,-3.4 -12.8,-7.9 -17.3,-12.6l-4,-4.4l-5.8,2c-3.1,1.1 -7,2.7 -8.5,3.5c-5.4,3 -42.1,20.6 -42.9,20.6c-0.4,0 -9.3,4.3 -19.8,9.6l-19,9.7l-0.1,11.6c0,9.2 -0.4,12.8 -2.1,17.5c-1.9,5.5 -2,6 -0.4,7.6c2.7,2.8 29.2,24 41.5,33.3c3.2,2.4 25.4,19.9 32.6,25.6c6.7,5.4 13.4,10.1 14.4,10.1c0.5,0 1.7,-0.6 2.5,-1.4Zm318.1,-55.6c7.4,-2.9 15.5,-6.1 18,-7.2c7,-3.2 27,-10.8 28.2,-10.8c0.7,0 3,-0.8 5.2,-1.8c2.3,-1 7.7,-3.3 12.1,-5c10.8,-4.2 59.9,-23.4 70.7,-27.7c4.8,-1.9 9.4,-3.5 10.3,-3.5c2.6,0 4.6,-4.5 4.3,-9.7l-0.3,-4.8l-24.5,-8.1c-13.5,-4.5 -36.9,-12.2 -52,-17.2c-15.1,-5 -30.6,-10.2 -34.4,-11.6c-9.6,-3.6 -10.5,-3.4 -14.9,2.3c-2.1,2.7 -5.3,6.1 -7.2,7.6c-5.5,4.1 -17.4,9.4 -24.9,11c-7.1,1.4 -8.5,2.5 -8.6,6c0,1.7 -4.3,18.9 -14.6,57.8c-2.4,9.3 -2.6,10.9 -1.4,11.7c4.2,2.4 14,10.9 15.9,13.8c1.2,1.9 2.8,3.1 3.4,2.8c0.7,-0.2 7.3,-2.8 14.7,-5.6Zm-88.4,-9.1c2,-3.2 17.9,-8.6 27.9,-9.3c0.5,-0.1 1.3,-2.1 1.7,-4.6c0.5,-2.5 2,-9 3.5,-14.5c1.4,-5.5 4.9,-19 7.8,-30c2.8,-11 5.5,-20.7 5.9,-21.6c0.5,-1.1 -1,-2.9 -5.6,-6.4c-9.8,-7.7 -16,-15.4 -18.9,-23.9l-1.4,-3.9l-12.5,0.7c-6.9,0.4 -17,1.1 -22.5,1.6c-5.5,0.5 -17.4,1.4 -26.5,2c-9.1,0.6 -26.2,1.7 -38,2.6c-11.8,0.8 -27.4,1.8 -34.7,2.3c-7.3,0.4 -13.5,1 -13.8,1.3c-0.4,0.3 -0.8,3 -1.1,5.9l-0.4,5.4l4.7,3.5c2.7,2 9.5,7.2 15.1,11.5c5.7,4.4 12.6,9.6 15.2,11.5c16.7,12.1 20.7,15 22.5,16.7c1.1,1 6.4,5.1 11.7,9.1c5.3,3.9 9.9,7.6 10.3,8.2c0.3,0.5 4.7,3.9 9.8,7.5c5.1,3.5 10.3,7.6 11.6,9c1.3,1.4 2.8,2.5 3.3,2.5c0.6,0 3,1.7 5.3,3.8c10.7,9.3 17,12.4 19.1,9.1Z" style="fill:#fff;fill-rule:nonzero;"/></g></svg>