<?xml version="1.0" encoding="UTF-8" standalone="no"?><!DOCTYPE svg PUBLIC "-//W3C//DTD SVG 1.1//EN" "http://www.w3.org/Graphics/SVG/1.1/DTD/svg11.dtd"><svg width="100%" height="100%" viewBox="0 0 5559 5559" version="1.1" xmlns="http://www.w3.org/2000/svg" xmlns:xlink="http://www.w3.org/1999/xlink" xml:space="preserve" xmlns:serif="http://www.serif.com/" style="fill-rule:evenodd;clip-rule:evenodd;stroke-linejoin:round;stroke-miterlimit:2;"><g><g><path d="M3711.11,4911.11c-38.889,-16.667 -61.111,-27.778 -94.444,-61.111c-71.309,-70.189 -85.171,-181.085 -33.333,-266.667l11.111,-22.222c-131.949,-185.268 -269.039,-366.82 -411.111,-544.444l-27.778,-0c-61.111,16.667 -105.556,11.111 -161.111,-16.667c-77.778,-33.333 -122.222,-100 -127.778,-183.333l0,-38.889l-61.111,-22.222c-160.683,-56.79 -321.799,-112.347 -483.333,-166.667c-44.444,-16.667 -50,-16.667 -66.667,11.111c-22.222,22.222 -38.889,38.889 -72.222,55.556c-88.889,50 -194.444,27.778 -266.667,-44.444c-33.333,-33.333 -44.444,-55.556 -55.556,-94.444c-11.111,-38.889 -11.111,-66.667 0,-105.556l5.556,-33.333l-50,-27.778l-77.778,-44.444l-61.111,-38.889c-37.248,-21.868 -74.287,-44.091 -111.111,-66.667l-16.667,-5.556l-16.667,16.667c-27.778,22.222 -72.222,44.444 -105.556,50l-66.667,5.556c-66.667,-5.556 -127.778,-44.444 -172.222,-105.556c-27.778,-38.889 -44.444,-116.667 -33.333,-166.667c5.556,-27.778 27.778,-66.667 33.333,-77.778c11.111,-5.556 11.111,-16.667 0,-22.222l-27.778,-38.889l-100,-150c-57.916,-87.432 -119.07,-172.677 -183.333,-255.555l-44.444,-66.667c-44.444,-66.667 -44.444,-61.111 -66.667,-55.556c-27.778,11.111 -94.444,5.556 -122.222,0c-113.31,-34.593 -183.199,-150.271 -161.111,-266.667c27.778,-83.333 83.333,-138.889 172.222,-166.667c38.889,-11.111 38.889,-11.111 83.333,-5.556c16.667,5.556 16.667,5.556 22.222,-5.556l11.111,-27.778c13.422,-18.193 26.389,-36.717 38.889,-55.556c30.901,-69.895 68.091,-136.838 111.111,-200l16.667,-27.778l16.667,-33.333c8.19,-13.694 17.48,-26.7 27.778,-38.889l11.111,-16.667c11.111,-22.222 11.111,-33.333 0,-38.889c-16.667,-16.667 -44.444,-72.222 -50,-116.667l0,-72.222c16.667,-77.778 66.667,-138.889 144.444,-166.667c38.889,-11.111 72.222,-16.667 111.111,-5.556c44.444,5.556 88.889,27.778 122.222,61.111c22.222,22.222 27.778,22.222 38.889,22.222l33.333,-16.667l5.556,-5.556l94.444,-38.889c64.287,-37.894 131.113,-71.306 200,-100l50,-22.222l16.667,-11.111l-5.556,-50c0,-55.556 5.556,-77.778 38.889,-127.778c27.778,-44.444 66.667,-77.778 116.667,-94.444c33.333,-11.111 116.667,-11.111 150,5.556c50,16.667 111.111,83.333 127.778,127.778l5.556,16.667l50,-5.556l111.111,0c157.296,-12.64 314.711,-23.752 472.222,-33.333c5.556,0 11.111,-5.556 11.111,-16.667c0,-16.667 22.222,-61.111 33.333,-77.778l83.333,-61.111c33.333,-16.667 61.111,-22.222 105.556,-16.667c44.444,0 44.444,0 83.333,16.667c77.778,44.444 127.778,116.667 127.778,200l0,16.667l55.556,16.667l233.333,77.778l188.889,61.111l44.444,16.667l27.778,-27.778c33.333,-33.333 50,-44.444 94.444,-61.111c33.333,-5.556 88.889,-11.111 122.222,0c61.111,11.111 127.778,72.222 155.556,138.889c11.111,27.778 11.111,33.333 11.111,83.333c0,44.444 0,55.556 -11.111,83.333l-11.111,33.333l16.667,16.667l338.889,350l50,50l27.778,-16.667c61.111,-27.778 116.667,-22.222 177.778,5.556c77.778,44.444 122.222,111.111 122.222,200c0,83.333 -38.889,150 -100,188.889l-33.333,16.667l55.556,233.333l11.111,33.333l27.778,5.556c112.187,12.225 198.15,108.064 198.15,220.914c0,58.782 -23.323,115.227 -64.816,156.863l-33.333,33.333c-22.222,16.667 -72.222,33.333 -100,33.333l-38.889,0c-16.667,5.556 -11.111,-5.556 -66.667,155.556c-23.95,69.25 -49.887,137.797 -77.778,205.556l-55.556,144.444l-5.556,27.778l22.222,27.778c44.973,42.006 70.536,100.862 70.536,162.401c0,112.912 -86.057,208.784 -198.314,220.932c-50,5.556 -122.222,-11.111 -172.222,-50l-22.222,-11.111l-61.111,33.333c-56.188,37.137 -113.629,72.343 -172.222,105.556c-76.755,39.815 -150.971,84.344 -222.222,133.333l-33.333,22.222l-44.444,16.667l-16.667,11.111c10.098,148.222 21.209,296.374 33.333,444.444l22.222,11.111c55.556,16.667 100,50 127.778,100c38.889,55.556 38.889,161.111 5.556,222.222c-22.222,38.889 -77.778,83.333 -122.222,100c-38.889,16.667 -94.444,16.667 -138.889,5.556Zm-11.111,-427.778c-2.966,-144.956 -14.095,-289.629 -33.333,-433.333l-50,-22.222c-102.306,-35.776 -204.166,-72.816 -305.555,-111.111c-16.667,-5.556 -16.667,-5.556 -27.778,11.111l-11.111,16.667l38.889,50c114.37,150.8 227.338,302.658 338.889,455.555c33.333,38.889 44.444,50 50,33.333Zm-38.889,-561.111l-5.556,-94.444l-22.222,-283.333l-11.111,-161.111l-5.556,-88.889l0,-22.222l-27.778,-5.556l-22.222,0l-27.778,33.333l-38.889,55.556l-122.222,166.667l-105.556,144.444l11.111,22.222c27.778,44.444 33.333,66.667 33.333,111.111l0,38.889l16.667,5.556c45.57,13.495 90.126,30.203 133.333,50c65.465,18.241 130.314,38.622 194.444,61.111l0,-33.333Zm138.889,11.111c62.764,-37.374 125.728,-74.412 188.889,-111.111l77.778,-50l188.889,-116.667c33.333,-16.667 33.333,-22.222 33.333,-33.333c-11.111,-38.889 -11.111,-72.222 -11.111,-105.556l5.556,-33.333l-38.889,-22.222c-139.655,-85.154 -280.407,-168.494 -422.222,-250l-27.778,16.667l-44.444,27.778c-27.778,11.111 -27.778,5.556 -22.222,83.333l11.111,105.556l5.556,83.333l5.556,44.444l27.778,366.667l22.222,-5.556Zm-872.222,-283.333c27.778,-27.778 61.111,-50 94.444,-61.111c33.333,-11.111 94.444,-11.111 133.333,0l33.333,0l16.667,-22.222l16.667,-27.778c87.058,-115.855 170.433,-234.433 250,-355.555l-11.111,-16.667c0,-11.111 -16.667,-11.111 -100,11.111c-153.18,42.69 -306.896,83.434 -461.111,122.222c-196.773,51.946 -393.077,105.652 -588.889,161.111l61.111,27.778l122.222,44.444l288.889,100l83.333,33.333c33.333,11.111 38.889,11.111 61.111,-16.667Zm1433.333,-272.222c33.333,-27.778 88.889,-50 133.333,-55.556c33.333,0 33.333,-5.556 66.667,-94.444c35.331,-108.663 74.241,-216.129 116.667,-322.222l27.778,-72.222l16.667,-38.889l0,-5.556l-33.333,-27.778c-27.778,-22.222 -27.778,-27.778 -38.889,-22.222c-219.128,74.78 -435.898,156.3 -650,244.444l-94.444,38.889l-22.222,5.556l0,44.444l-5.556,44.444l50,27.778l94.444,55.556c83.344,44.925 164.888,93.11 244.444,144.444l77.778,44.444l16.667,-11.111Zm-1961.111,-66.667l194.444,-50l127.778,-27.778c142.1,-31.663 282.943,-68.727 422.222,-111.111c75.741,-21.052 151.67,-41.423 227.778,-61.111c55.556,-11.111 61.111,-16.667 61.111,-50l5.556,-33.333l0,-16.667l-33.333,-27.778c-134.701,-93.298 -269.888,-185.892 -405.555,-277.778l-44.444,22.222c-33.333,11.111 -44.444,16.667 -83.333,16.667c-38.889,0 -50,0 -94.444,-11.111c-44.507,55.22 -90.829,108.953 -138.889,161.111l-94.444,116.667c-95.383,120.611 -186.188,244.773 -272.222,372.222l11.111,11.111l116.667,-33.333Zm-461.111,-27.778c27.778,-22.222 55.556,-38.889 100,-44.444c38.889,-11.111 66.667,-11.111 100,0l33.333,11.111l22.222,-22.222l94.444,-116.667l122.222,-155.556c87.909,-115.57 176.801,-230.389 266.667,-344.444l-16.667,0c-170.695,70.546 -342.961,137.23 -516.667,200l-200,77.778c-110.929,43.066 -222.041,85.659 -333.333,127.778l-5.556,27.778l-5.556,50l0,27.778l27.778,22.222l72.222,44.444l66.667,38.889l116.667,72.222c22.222,11.111 27.778,11.111 55.556,-16.667Zm1988.888,-388.889c72.908,-25.962 145.153,-53.748 216.667,-83.333l333.333,-127.778l105.556,-38.889l38.889,-16.667l5.556,-88.889l-11.111,-11.111l-61.111,-38.889l-177.778,-100c-95.63,-53.515 -190.096,-109.084 -283.333,-166.667c-22.222,-16.667 -27.778,-16.667 -38.889,-5.556c-22.222,16.667 -77.778,44.444 -105.556,50c-50,5.556 -50,5.556 -50,16.667c-32.236,174.124 -73.026,346.555 -122.222,516.667l-11.111,50l11.111,11.111c38.889,27.778 61.111,50 61.111,55.556l88.889,-22.222Zm-2299.999,0l88.889,-38.889c182.516,-77.203 367.828,-147.622 555.555,-211.111l372.222,-150l0,-50l5.556,-44.444l-55.556,-33.333c-177.236,-105.247 -353.175,-212.663 -527.778,-322.222l-11.111,-5.556l-33.333,16.667c-44.444,33.333 -66.667,38.889 -122.222,44.444l-44.444,0l-11.111,16.667l-27.778,61.111l-44.444,100l-72.222,161.111c-25.563,51.148 -49.647,103.021 -72.222,155.556c-37.748,89.726 -72.947,180.503 -105.556,272.222c11.111,-0 11.111,5.556 27.778,27.778c16.667,16.667 16.667,16.667 77.778,0Zm1900,-33.333l116.667,-38.889c11.111,0 11.111,-5.556 16.667,-16.667c27.195,-108.954 53.122,-218.221 77.778,-327.778l16.667,-55.556l38.889,-166.667c5.556,-11.111 0,-16.667 -11.111,-22.222l-44.444,-33.333c-22.222,-27.778 -16.667,-27.778 -88.889,5.556c-95.967,45.809 -194.247,86.605 -294.444,122.222c-75.738,25.288 -149.937,54.968 -222.222,88.889l-38.889,16.667l0,38.889c0,38.889 -5.556,77.778 -16.667,83.333c138.167,100.322 275.213,202.18 411.111,305.555c11.111,11.111 27.778,11.111 38.889,0Zm-2211.111,-38.889l55.556,-5.556l44.444,-11.111l5.556,-16.667l22.222,-55.556l27.778,-66.667c41.845,-103.817 88.185,-205.765 138.889,-305.555l22.222,-50c41.096,-84.16 79.998,-169.374 116.667,-255.555c5.556,-5.556 -5.556,-16.667 -16.667,-27.778l-44.444,-55.556l-5.556,-5.556c-107.739,29.131 -217.219,51.398 -327.778,66.667l-116.667,22.222l-100,22.222l-111.111,22.222c-105.556,16.667 -100,16.667 -100,38.889c-5.556,27.778 -11.111,50 -33.333,88.889l-11.111,33.333l5.556,11.111l27.778,44.444l5.556,5.556l16.667,22.222l83.333,116.667c85.06,126.773 173.991,250.905 266.667,372.222l27.778,-11.111Zm3388.888,-388.889l27.778,-22.222c38.889,-16.667 38.889,-16.667 27.778,-55.556l-11.111,-72.222c-9.741,-44.776 -20.857,-89.241 -33.333,-133.333c-5.556,-27.778 -5.556,-27.778 -22.222,-27.778c-79.172,-2.395 -151.301,-46.945 -188.889,-116.667l-22.222,-22.222c-109.961,16.407 -219.292,36.791 -327.778,61.111c-22.222,0 -22.222,0 -27.778,44.444c0,22.222 0,22.222 16.667,33.333l61.111,38.889l33.333,16.667l27.778,16.667c73.171,35.7 143.718,76.543 211.111,122.222c74.078,42.396 150.086,81.326 227.778,116.667Zm-1594.444,-88.889c91.279,-31.017 180.369,-68.137 266.667,-111.111c40.064,-18.275 80.837,-34.954 122.222,-50l100,-44.444l83.333,-33.333l0,-105.556l-55.556,-22.222l-127.778,-55.556c-58.664,-20.962 -116.154,-45.071 -172.222,-72.222l-72.222,-27.778c-227.778,-100 -205.556,-94.444 -227.778,-66.667c-16.667,16.667 -61.111,44.444 -83.333,50l-22.222,16.667c0.474,144.444 0.474,288.889 0,433.333l11.111,5.556c27.778,0 94.444,44.444 116.667,77.778c5.556,16.667 11.111,16.667 22.222,16.667l38.889,-11.111Zm-383.333,-50l50,-27.778l33.333,-11.111l0,-222.222l-5.556,-222.222l-38.889,-16.667c-44.444,-22.222 -77.778,-55.556 -100,-100c-16.667,-33.333 -16.667,-38.889 -22.222,-77.778l5.556,-72.222c11.111,-38.889 11.111,-38.889 0,-44.444l-33.333,-27.778l-72.222,-55.556c-135.999,-96.395 -269.381,-196.431 -400,-300l-22.222,-16.667l-22.222,11.111l-50,22.222l-33.333,11.111l-16.667,144.444c-9.221,120.537 -20.333,240.923 -33.333,361.111l27.778,16.667c61.111,33.333 105.556,88.889 122.222,150l0,100c-5.556,27.778 -5.556,27.778 22.222,38.889l33.333,27.778l50,27.778c22.612,12.283 44.845,25.252 66.667,38.889c72.32,39.284 142.767,81.923 211.111,127.778c69.027,41.769 137.551,84.364 205.556,127.778l22.222,-11.111Zm-1750,-300c119.369,-17.418 237.985,-39.658 355.555,-66.667c111.494,-18.222 222.626,-38.596 333.333,-61.111l11.111,-88.889l-61.111,-44.444c-77.778,-61.111 -200,-155.556 -211.111,-172.222c-35.495,-25.503 -70.683,-51.43 -105.556,-77.778l-33.333,11.111c-44.444,22.222 -77.778,27.778 -127.778,27.778l-38.889,-5.556l-16.667,33.333l-22.222,38.889l-33.333,55.556c-55.145,82.059 -105.238,167.402 -150,255.555l-22.222,44.444l27.778,33.333c16.667,22.222 27.778,33.333 33.333,27.778l61.111,-11.111Zm3249.999,-38.889l138.889,-27.778c116.667,-16.667 105.556,-16.667 105.556,-50l16.667,-61.111l11.111,-33.333l-50,-50c-117.311,-119.744 -233.979,-240.116 -350,-361.111l-22.222,5.556l-33.333,11.111l-22.222,5.556l-5.556,38.889c-16.594,129.241 -29.562,258.921 -38.889,388.889c-5.556,11.111 0,11.111 27.778,27.778l50,33.333c22.222,16.667 55.556,61.111 61.111,77.778c5.556,11.111 5.556,11.111 27.778,5.556l83.333,-11.111Zm-472.222,-72.222c22.222,-22.222 66.667,-50 88.889,-50l22.222,-11.111c17.978,-100.985 29.115,-203.069 33.333,-305.555l5.556,-88.889l5.556,-38.889l-27.778,-11.111l-61.111,-44.444c-27.778,-27.778 -27.778,-33.333 -38.889,-27.778c-152.622,62.028 -306.351,121.297 -461.111,177.778l-116.667,50l-94.444,33.333l-16.667,5.556l0,33.333c0,33.333 -5.556,27.778 61.111,55.556l50,22.222l83.333,33.333l100,38.889c111.961,50.467 224.947,98.625 338.889,144.444l27.778,-16.667Zm-1988.888,-194.444c5.556,-11.111 50,-27.778 72.222,-33.333c16.667,-5.556 22.222,-5.556 22.222,-16.667c12.953,-166.827 27.769,-333.504 44.444,-500c0,-11.111 0,-11.111 -16.667,-22.222c-27.778,-11.111 -55.556,-33.333 -77.778,-50l-16.667,-22.222l-22.222,11.111l-38.889,16.667c-87.461,45.51 -176.399,88.125 -266.667,127.778l-77.778,38.889l-5.556,50l-5.556,77.778c-11.111,22.222 -11.111,22.222 0,33.333c123.94,103.728 253.788,200.186 388.889,288.889Zm1355.555,-238.889c92.187,-31.334 183.009,-66.551 272.222,-105.556c114.908,-44.204 229.723,-88.649 344.444,-133.333c11.111,0 22.222,-22.222 22.222,-44.444l-5.556,-16.667l-100,-38.889l-222.222,-72.222l-150,-50c-38.889,-16.667 -44.444,-11.111 -61.111,11.111l-33.333,33.333c-22.222,16.667 -72.222,38.889 -105.556,44.444c-27.778,5.556 -38.889,11.111 -38.889,27.778c-18.86,98.879 -41.096,197.085 -66.667,294.444l66.667,61.111l16.667,11.111l61.111,-22.222Zm-377.778,-38.889c11.111,-16.667 77.778,-38.889 122.222,-38.889l5.556,-22.222l16.667,-61.111c18.09,-74.18 36.609,-148.256 55.556,-222.222c5.556,-5.556 -5.556,-11.111 -22.222,-27.778c-44.444,-33.333 -66.667,-66.667 -83.333,-100l-5.556,-16.667l-50,0c-70.517,3.503 -140.918,9.061 -211.111,16.667l-161.111,11.111l-150,11.111l-61.111,5.556l0,27.778l-5.556,22.222l22.222,11.111c123.393,88.596 243.829,181.239 361.111,277.778c21.831,14.797 42.284,31.531 61.111,50l27.778,16.667c44.444,38.889 72.222,50 77.778,38.889Z" style="fill:#099270;fill-rule:nonzero;stroke:#195d4b;stroke-width:4.17px;"/></g></g></svg>