<?xml version="1.0" encoding="UTF-8" standalone="no"?>
<!DOCTYPE svg PUBLIC "-//W3C//DTD SVG 1.1//EN" "http://www.w3.org/Graphics/SVG/1.1/DTD/svg11.dtd">
<svg width="100%" height="100%" viewBox="0 0 1000 250" version="1.1" xmlns="http://www.w3.org/2000/svg" xmlns:xlink="http://www.w3.org/1999/xlink" xml:space="preserve" xmlns:serif="http://www.serif.com/" style="fill-rule:evenodd;clip-rule:evenodd;stroke-linejoin:round;stroke-miterlimit:2;">
    <g transform="matrix(0.049335,0,0,0.049335,-0.272405,-13.955703)">
        <path d="M3711.11,4911.11C3672.221,4894.443 3649.999,4883.332 3616.666,4849.999C3545.357,4779.81 3531.495,4668.914 3583.333,4583.332L3594.444,4561.11C3462.495,4375.842 3325.405,4194.29 3183.333,4016.666L3155.555,4016.666C3094.444,4033.333 3049.999,4027.777 2994.444,3999.999C2916.666,3966.666 2872.222,3899.999 2866.666,3816.666L2866.666,3777.777L2805.555,3755.555C2644.872,3698.765 2483.756,3643.208 2322.222,3588.888C2277.778,3572.221 2272.222,3572.221 2255.555,3599.999C2233.333,3622.221 2216.666,3638.888 2183.333,3655.555C2094.444,3705.555 1988.889,3683.333 1916.666,3611.111C1883.333,3577.778 1872.222,3555.555 1861.11,3516.667C1849.999,3477.778 1849.999,3450 1861.11,3411.111L1866.666,3377.778L1816.666,3350L1738.888,3305.556L1677.777,3266.667C1640.529,3244.799 1603.49,3222.576 1566.666,3200L1549.999,3194.444L1533.332,3211.111C1505.554,3233.333 1461.11,3255.555 1427.776,3261.111L1361.109,3266.667C1294.442,3261.111 1233.331,3222.223 1188.887,3161.111C1161.109,3122.222 1144.443,3044.444 1155.554,2994.444C1161.11,2966.666 1183.332,2927.777 1188.887,2916.666C1199.998,2911.11 1199.998,2899.999 1188.887,2894.444L1161.109,2855.555L1061.109,2705.555C1003.193,2618.123 942.039,2532.878 877.776,2450L833.332,2383.333C788.888,2316.666 788.888,2322.222 766.665,2327.777C738.887,2338.888 672.221,2333.333 644.443,2327.777C531.133,2293.184 461.244,2177.506 483.332,2061.11C511.11,1977.777 566.665,1922.221 655.554,1894.443C694.443,1883.332 694.443,1883.332 738.887,1888.887C755.554,1894.443 755.554,1894.443 761.109,1883.331L772.22,1855.553C785.642,1837.36 798.609,1818.836 811.109,1799.997C842.01,1730.102 879.2,1663.159 922.22,1599.997L938.887,1572.219L955.554,1538.886C963.744,1525.192 973.034,1512.186 983.332,1499.997L994.443,1483.33C1005.554,1461.108 1005.554,1449.997 994.443,1444.441C977.776,1427.774 949.999,1372.219 944.443,1327.774L944.443,1255.552C961.11,1177.774 1011.11,1116.663 1088.887,1088.885C1127.776,1077.774 1161.109,1072.218 1199.998,1083.329C1244.442,1088.885 1288.887,1111.107 1322.22,1144.44C1344.442,1166.662 1349.998,1166.662 1361.109,1166.662L1394.442,1149.995L1399.998,1144.439L1494.442,1105.55C1558.729,1067.656 1625.555,1034.244 1694.442,1005.55L1744.442,983.328L1761.109,972.217L1755.553,922.217C1755.553,866.661 1761.109,844.439 1794.442,794.439C1822.22,749.995 1861.109,716.661 1911.109,699.995C1944.442,688.884 2027.776,688.884 2061.109,705.551C2111.109,722.218 2172.22,788.884 2188.887,833.329L2194.443,849.996L2244.443,844.44L2355.554,844.44C2512.85,831.8 2670.265,820.688 2827.776,811.107C2833.332,811.107 2838.887,805.551 2838.887,794.44C2838.887,777.773 2861.109,733.329 2872.22,716.662L2955.553,655.551C2988.886,638.884 3016.664,633.329 3061.109,638.884C3105.553,638.884 3105.553,638.884 3144.442,655.551C3222.22,699.995 3272.22,772.218 3272.22,855.551L3272.22,872.218L3327.776,888.885L3561.109,966.663L3749.998,1027.774L3794.442,1044.441L3822.22,1016.663C3855.553,983.33 3872.22,972.219 3916.664,955.552C3949.997,949.996 4005.553,944.441 4038.886,955.552C4099.997,966.663 4166.664,1027.774 4194.442,1094.441C4205.553,1122.219 4205.553,1127.774 4205.553,1177.774C4205.553,1222.218 4205.553,1233.33 4194.442,1261.107L4183.331,1294.44L4199.998,1311.107L4538.887,1661.107L4588.887,1711.107L4616.665,1694.44C4677.776,1666.662 4733.332,1672.218 4794.443,1699.996C4872.221,1744.44 4916.665,1811.107 4916.665,1899.996C4916.665,1983.329 4877.776,2049.996 4816.665,2088.885L4783.332,2105.552L4838.888,2338.885L4849.999,2372.218L4877.777,2377.774C4989.964,2389.999 5075.927,2485.838 5075.927,2598.688C5075.927,2657.47 5052.604,2713.915 5011.111,2755.551L4977.778,2788.884C4955.556,2805.551 4905.556,2822.217 4877.778,2822.217L4838.889,2822.217C4822.222,2827.773 4827.778,2816.661 4772.222,2977.773C4748.272,3047.023 4722.335,3115.57 4694.444,3183.329L4638.888,3327.773L4633.332,3355.551L4655.554,3383.329C4700.527,3425.335 4726.09,3484.191 4726.09,3545.73C4726.09,3658.642 4640.033,3754.514 4527.776,3766.662C4477.776,3772.218 4405.554,3755.551 4355.554,3716.662L4333.332,3705.551L4272.221,3738.884C4216.033,3776.021 4158.592,3811.227 4099.999,3844.44C4023.244,3884.255 3949.028,3928.784 3877.777,3977.773L3844.444,3999.995L3800,4016.662L3783.333,4027.773C3793.431,4175.995 3804.542,4324.147 3816.666,4472.217L3838.888,4483.328C3894.444,4499.995 3938.888,4533.328 3966.666,4583.328C4005.555,4638.884 4005.555,4744.439 3972.222,4805.55C3950,4844.439 3894.444,4888.883 3850,4905.55C3811.111,4922.217 3755.556,4922.217 3711.111,4911.106L3711.11,4911.11ZM3699.999,4483.332C3697.033,4338.376 3685.904,4193.703 3666.666,4049.999L3616.666,4027.777C3514.36,3992.001 3412.5,3954.961 3311.111,3916.666C3294.444,3911.11 3294.444,3911.11 3283.333,3927.777L3272.222,3944.444L3311.111,3994.444C3425.481,4145.244 3538.449,4297.102 3650,4449.999C3683.333,4488.888 3694.444,4499.999 3700,4483.332L3699.999,4483.332ZM3661.11,3922.221L3655.554,3827.777L3633.332,3544.444L3622.221,3383.333L3616.665,3294.444L3616.665,3272.222L3588.887,3266.666L3566.665,3266.666L3538.887,3299.999L3499.998,3355.555L3377.776,3522.222L3272.22,3666.666L3283.331,3688.888C3311.109,3733.332 3316.664,3755.555 3316.664,3799.999L3316.664,3838.888L3333.331,3844.444C3378.901,3857.939 3423.457,3874.647 3466.664,3894.444C3532.129,3912.685 3596.978,3933.066 3661.108,3955.555L3661.108,3922.222L3661.11,3922.221ZM3799.999,3933.332C3862.763,3895.958 3925.727,3858.92 3988.888,3822.221L4066.666,3772.221L4255.555,3655.554C4288.888,3638.887 4288.888,3633.332 4288.888,3622.221C4277.777,3583.332 4277.777,3549.999 4277.777,3516.665L4283.333,3483.332L4244.444,3461.11C4104.789,3375.956 3964.037,3292.616 3822.222,3211.11L3794.444,3227.777L3750,3255.555C3722.222,3266.666 3722.222,3261.111 3727.778,3338.888L3738.889,3444.444L3744.445,3527.777L3750.001,3572.221L3777.779,3938.888L3800.001,3933.332L3799.999,3933.332ZM2927.777,3649.999C2955.555,3622.221 2988.888,3599.999 3022.221,3588.888C3055.554,3577.777 3116.665,3577.777 3155.554,3588.888L3188.887,3588.888L3205.554,3566.666L3222.221,3538.888C3309.279,3423.033 3392.654,3304.455 3472.221,3183.333L3461.11,3166.666C3461.11,3155.555 3444.443,3155.555 3361.11,3177.777C3207.93,3220.467 3054.214,3261.211 2899.999,3299.999C2703.226,3351.945 2506.922,3405.651 2311.11,3461.11L2372.221,3488.888L2494.443,3533.332L2783.332,3633.332L2866.665,3666.665C2899.998,3677.776 2905.554,3677.776 2927.776,3649.998L2927.777,3649.999ZM4361.11,3377.777C4394.443,3349.999 4449.999,3327.777 4494.443,3322.221C4527.776,3322.221 4527.776,3316.665 4561.11,3227.777C4596.441,3119.114 4635.351,3011.648 4677.777,2905.555L4705.555,2833.333L4722.222,2794.444L4722.222,2788.888L4688.889,2761.11C4661.111,2738.888 4661.111,2733.332 4650,2738.888C4430.872,2813.668 4214.102,2895.188 4000,2983.332L3905.556,3022.221L3883.334,3027.777L3883.334,3072.221L3877.778,3116.665L3927.778,3144.443L4022.222,3199.999C4105.566,3244.924 4187.11,3293.109 4266.666,3344.443L4344.444,3388.887L4361.111,3377.776L4361.11,3377.777ZM2399.999,3311.11L2594.443,3261.11L2722.221,3233.332C2864.321,3201.669 3005.164,3164.605 3144.443,3122.221C3220.184,3101.169 3296.113,3080.798 3372.221,3061.11C3427.777,3049.999 3433.332,3044.443 3433.332,3011.11L3438.888,2977.777L3438.888,2961.11L3405.555,2933.332C3270.854,2840.034 3135.667,2747.44 3000,2655.554L2955.556,2677.776C2922.223,2688.887 2911.112,2694.443 2872.223,2694.443C2833.334,2694.443 2822.223,2694.443 2777.779,2683.332C2733.272,2738.552 2686.95,2792.285 2638.89,2844.443L2544.446,2961.11C2449.063,3081.721 2358.258,3205.883 2272.224,3333.332L2283.335,3344.443L2400.002,3311.11L2399.999,3311.11ZM1938.888,3283.332C1966.666,3261.11 1994.444,3244.443 2038.888,3238.888C2077.777,3227.777 2105.555,3227.777 2138.888,3238.888L2172.221,3249.999L2194.443,3227.777L2288.887,3111.11L2411.109,2955.554C2499.018,2839.984 2587.91,2725.165 2677.776,2611.11L2661.109,2611.11C2490.414,2681.656 2318.148,2748.34 2144.442,2811.11L1944.442,2888.888C1833.513,2931.954 1722.401,2974.547 1611.109,3016.666L1605.553,3044.444L1599.997,3094.444L1599.997,3122.222L1627.775,3144.444L1699.997,3188.888L1766.664,3227.777L1883.331,3299.999C1905.553,3311.11 1911.109,3311.11 1938.887,3283.332L1938.888,3283.332ZM3927.776,2894.443C4000.684,2868.481 4072.929,2840.695 4144.443,2811.11L4477.776,2683.332L4583.332,2644.443L4622.221,2627.776L4627.777,2538.887L4616.666,2527.776L4555.555,2488.887L4377.777,2388.887C4282.147,2335.372 4187.681,2279.803 4094.444,2222.22C4072.222,2205.553 4066.666,2205.553 4055.555,2216.664C4033.333,2233.331 3977.777,2261.108 3949.999,2266.664C3899.999,2272.22 3899.999,2272.22 3899.999,2283.331C3867.763,2457.455 3826.973,2629.886 3777.777,2799.998L3766.666,2849.998L3777.777,2861.109C3816.666,2888.887 3838.888,2911.109 3838.888,2916.665L3927.777,2894.443L3927.776,2894.443ZM1627.777,2894.443L1716.666,2855.554C1899.182,2778.351 2084.494,2707.932 2272.221,2644.443L2644.443,2494.443L2644.443,2444.443L2649.999,2399.999L2594.443,2366.666C2417.207,2261.419 2241.268,2154.003 2066.665,2044.444L2055.554,2038.888L2022.221,2055.555C1977.777,2088.888 1955.554,2094.444 1899.999,2099.999L1855.555,2099.999L1844.444,2116.666L1816.666,2177.777L1772.222,2277.777L1700,2438.888C1674.437,2490.036 1650.353,2541.909 1627.778,2594.444C1590.03,2684.17 1554.831,2774.947 1522.222,2866.666C1533.333,2866.666 1533.333,2872.222 1550,2894.444C1566.667,2911.111 1566.667,2911.111 1627.778,2894.444L1627.777,2894.443ZM3527.777,2861.11L3644.444,2822.221C3655.555,2822.221 3655.555,2816.665 3661.111,2805.554C3688.306,2696.6 3714.233,2587.333 3738.889,2477.776L3755.556,2422.22L3794.445,2255.553C3800.001,2244.442 3794.445,2238.886 3783.334,2233.331L3738.89,2199.998C3716.668,2172.22 3722.223,2172.22 3650.001,2205.554C3554.034,2251.363 3455.754,2292.159 3355.557,2327.776C3279.819,2353.064 3205.62,2382.744 3133.335,2416.665L3094.446,2433.332L3094.446,2472.221C3094.446,2511.11 3088.89,2549.999 3077.779,2555.554C3215.946,2655.876 3352.992,2757.734 3488.89,2861.109C3500.001,2872.22 3516.668,2872.22 3527.779,2861.109L3527.777,2861.11ZM1316.666,2822.221L1372.222,2816.665L1416.666,2805.554L1422.222,2788.887L1444.444,2733.331L1472.222,2666.664C1514.067,2562.847 1560.407,2460.899 1611.111,2361.109L1633.333,2311.109C1674.429,2226.949 1713.331,2141.735 1750,2055.554C1755.556,2049.998 1744.444,2038.887 1733.333,2027.776L1688.889,1972.22L1683.333,1966.664C1575.594,1995.795 1466.114,2018.062 1355.555,2033.331L1238.888,2055.553L1138.888,2077.775L1027.777,2099.997C922.221,2116.664 927.777,2116.664 927.777,2138.886C922.221,2166.664 916.666,2188.886 894.444,2227.775L883.333,2261.108L888.889,2272.219L916.667,2316.663L922.223,2322.219L938.89,2344.441L1022.223,2461.108C1107.283,2587.881 1196.214,2712.013 1288.89,2833.33L1316.668,2822.219L1316.666,2822.221ZM4705.554,2433.332L4733.332,2411.11C4772.221,2394.443 4772.221,2394.443 4761.11,2355.554L4749.999,2283.332C4740.258,2238.556 4729.142,2194.091 4716.666,2149.999C4711.11,2122.221 4711.11,2122.221 4694.444,2122.221C4615.272,2119.826 4543.143,2075.276 4505.555,2005.554L4483.333,1983.332C4373.372,1999.739 4264.041,2020.123 4155.555,2044.443C4133.333,2044.443 4133.333,2044.443 4127.777,2088.887C4127.777,2111.109 4127.777,2111.109 4144.444,2122.22L4205.555,2161.109L4238.888,2177.776L4266.666,2194.443C4339.837,2230.143 4410.384,2270.986 4477.777,2316.665C4551.855,2359.061 4627.863,2397.991 4705.555,2433.332L4705.554,2433.332ZM3111.11,2344.443C3202.389,2313.426 3291.479,2276.306 3377.777,2233.332C3417.841,2215.057 3458.614,2198.378 3499.999,2183.332L3599.999,2138.888L3683.332,2105.555L3683.332,1999.999L3627.776,1977.777L3499.998,1922.221C3441.334,1901.259 3383.844,1877.15 3327.776,1849.999L3255.554,1822.221C3027.776,1722.221 3049.998,1727.777 3027.776,1755.554C3011.109,1772.221 2966.665,1799.998 2944.443,1805.554L2922.221,1822.221C2922.695,1966.665 2922.695,2111.11 2922.221,2255.554L2933.332,2261.11C2961.11,2261.11 3027.776,2305.554 3049.999,2338.888C3055.555,2355.555 3061.11,2355.555 3072.221,2355.555L3111.11,2344.444L3111.11,2344.443ZM2727.777,2294.443L2777.777,2266.665L2811.11,2255.554L2811.11,2033.332L2805.554,1811.11L2766.665,1794.443C2722.221,1772.221 2688.887,1738.887 2666.665,1694.443C2649.998,1661.11 2649.998,1655.554 2644.443,1616.665L2649.999,1544.443C2661.11,1505.554 2661.11,1505.554 2649.999,1499.999L2616.666,1472.221L2544.444,1416.665C2408.445,1320.27 2275.063,1220.234 2144.444,1116.665L2122.222,1099.998L2100,1111.109L2050,1133.331L2016.667,1144.442L2000,1288.886C1990.779,1409.423 1979.667,1529.809 1966.667,1649.997L1994.445,1666.664C2055.556,1699.997 2100.001,1755.553 2116.667,1816.664L2116.667,1916.664C2111.111,1944.442 2111.111,1944.442 2138.889,1955.553L2172.222,1983.331L2222.222,2011.109C2244.834,2023.392 2267.067,2036.361 2288.889,2049.998C2361.209,2089.282 2431.656,2131.921 2500,2177.776C2569.027,2219.545 2637.551,2262.14 2705.556,2305.554L2727.778,2294.443L2727.777,2294.443ZM977.777,1994.443C1097.146,1977.025 1215.762,1954.785 1333.332,1927.776C1444.826,1909.554 1555.958,1889.18 1666.665,1866.665L1677.776,1777.776L1616.665,1733.332C1538.887,1672.221 1416.665,1577.776 1405.554,1561.11C1370.059,1535.607 1334.871,1509.68 1299.998,1483.332L1266.665,1494.443C1222.221,1516.665 1188.887,1522.221 1138.887,1522.221L1099.998,1516.665L1083.331,1549.998L1061.109,1588.887L1027.776,1644.443C972.631,1726.502 922.538,1811.845 877.776,1899.998L855.554,1944.442L883.332,1977.775C899.999,1999.997 911.11,2011.108 916.665,2005.553L977.776,1994.442L977.777,1994.443ZM4227.776,1955.554L4366.665,1927.776C4483.332,1911.109 4472.221,1911.109 4472.221,1877.776L4488.888,1816.665L4499.999,1783.332L4449.999,1733.332C4332.688,1613.588 4216.02,1493.216 4099.999,1372.221L4077.777,1377.777L4044.444,1388.888L4022.222,1394.444L4016.666,1433.333C4000.072,1562.574 3987.104,1692.254 3977.777,1822.222C3972.221,1833.333 3977.777,1833.333 4005.555,1850L4055.555,1883.333C4077.777,1900 4111.111,1944.444 4116.666,1961.111C4122.222,1972.222 4122.222,1972.222 4144.444,1966.667L4227.777,1955.556L4227.776,1955.554ZM3755.554,1883.332C3777.776,1861.11 3822.221,1833.332 3844.443,1833.332L3866.665,1822.221C3884.643,1721.236 3895.78,1619.152 3899.998,1516.666L3905.554,1427.777L3911.11,1388.888L3883.332,1377.777L3822.221,1333.333C3794.443,1305.555 3794.443,1300 3783.332,1305.555C3630.71,1367.583 3476.981,1426.852 3322.221,1483.333L3205.554,1533.333L3111.11,1566.666L3094.443,1572.222L3094.443,1605.555C3094.443,1638.888 3088.887,1633.333 3155.554,1661.111L3205.554,1683.333L3288.887,1716.666L3388.887,1755.555C3500.848,1806.022 3613.834,1854.18 3727.776,1899.999L3755.554,1883.332ZM1766.666,1688.888C1772.222,1677.777 1816.666,1661.11 1838.888,1655.555C1855.555,1649.999 1861.11,1649.999 1861.11,1638.888C1874.063,1472.061 1888.879,1305.384 1905.554,1138.888C1905.554,1127.777 1905.554,1127.777 1888.887,1116.666C1861.109,1105.555 1833.331,1083.333 1811.109,1066.666L1794.442,1044.444L1772.22,1055.555L1733.331,1072.222C1645.87,1117.732 1556.932,1160.347 1466.664,1200L1388.886,1238.889L1383.33,1288.889L1377.774,1366.667C1366.663,1388.889 1366.663,1388.889 1377.774,1400C1501.714,1503.728 1631.562,1600.186 1766.663,1688.889L1766.666,1688.888ZM3122.221,1449.999C3214.408,1418.665 3305.23,1383.448 3394.443,1344.443C3509.351,1300.239 3624.166,1255.794 3738.887,1211.11C3749.998,1211.11 3761.109,1188.888 3761.109,1166.666L3755.553,1149.999L3655.553,1111.11L3433.331,1038.888L3283.331,988.888C3244.442,972.221 3238.887,977.777 3222.22,999.999L3188.887,1033.332C3166.665,1049.999 3116.665,1072.221 3083.331,1077.776C3055.553,1083.332 3044.442,1088.887 3044.442,1105.554C3025.582,1204.433 3003.346,1302.639 2977.775,1399.998L3044.442,1461.109L3061.109,1472.22L3122.22,1449.998L3122.221,1449.999ZM2744.443,1411.11C2755.554,1394.443 2822.221,1372.221 2866.665,1372.221L2872.221,1349.999L2888.888,1288.888C2906.978,1214.708 2925.497,1140.632 2944.444,1066.666C2950,1061.11 2938.888,1055.555 2922.222,1038.888C2877.778,1005.555 2855.555,972.221 2838.889,938.888L2833.333,922.221L2783.333,922.221C2712.816,925.724 2642.415,931.282 2572.222,938.888L2411.111,949.999L2261.111,961.11L2200,966.666L2200,994.444L2194.444,1016.666L2216.666,1027.777C2340.059,1116.373 2460.495,1209.016 2577.777,1305.555C2599.608,1320.352 2620.061,1337.086 2638.888,1355.555L2666.666,1372.222C2711.11,1411.111 2738.888,1422.222 2744.444,1411.111L2744.443,1411.11Z" style="fill:rgb(9,146,112);fill-rule:nonzero;stroke:rgb(9,146,112);stroke-width:30.4px;"/>
    </g>
    <g transform="matrix(1,0,0,1,1,-46)">
        <g>
            <g transform="matrix(0.062435,0,0,0.064748,135.736517,5.218875)">
                <g transform="matrix(1.037047,0,0,1,-80.429596,0)">
                    <g transform="matrix(2346.142198,0,0,2346.142198,2171,2555)">
                        <path d="M0.336,-0.702C0.367,-0.702 0.394,-0.701 0.416,-0.7C0.438,-0.698 0.459,-0.696 0.477,-0.693C0.496,-0.689 0.515,-0.685 0.535,-0.68L0.524,-0.587C0.503,-0.588 0.484,-0.59 0.466,-0.591C0.448,-0.591 0.429,-0.592 0.409,-0.593C0.388,-0.593 0.364,-0.594 0.336,-0.594C0.297,-0.594 0.267,-0.586 0.245,-0.571C0.223,-0.556 0.208,-0.53 0.198,-0.494C0.189,-0.458 0.185,-0.408 0.185,-0.345C0.185,-0.282 0.189,-0.232 0.198,-0.196C0.208,-0.16 0.223,-0.134 0.245,-0.119C0.267,-0.104 0.297,-0.096 0.336,-0.096C0.381,-0.096 0.418,-0.097 0.448,-0.099C0.479,-0.1 0.509,-0.103 0.538,-0.106L0.549,-0.014C0.519,-0.005 0.488,0.002 0.456,0.006C0.424,0.01 0.384,0.012 0.336,0.012C0.267,0.012 0.212,0.001 0.17,-0.022C0.129,-0.046 0.099,-0.083 0.08,-0.135C0.062,-0.187 0.053,-0.257 0.053,-0.345C0.053,-0.433 0.062,-0.503 0.08,-0.555C0.099,-0.607 0.129,-0.644 0.17,-0.667C0.212,-0.691 0.267,-0.702 0.336,-0.702Z" style="fill:white;fill-rule:nonzero;"/>
                    </g>
                    <g transform="matrix(2346.142198,0,0,2346.142198,3424.617751,2555)">
                        <path d="M0.537,-0.491L0.353,0.015C0.344,0.038 0.334,0.061 0.32,0.085C0.307,0.108 0.291,0.129 0.271,0.147C0.251,0.166 0.228,0.181 0.2,0.191C0.173,0.201 0.141,0.206 0.105,0.203L0.095,0.131C0.135,0.119 0.166,0.104 0.188,0.085C0.211,0.065 0.228,0.041 0.241,0.011L0.268,-0.053C0.274,-0.068 0.28,-0.084 0.285,-0.103C0.291,-0.122 0.296,-0.139 0.3,-0.153L0.407,-0.491L0.537,-0.491ZM0.141,-0.491L0.25,-0.153C0.253,-0.141 0.256,-0.13 0.259,-0.118C0.262,-0.107 0.264,-0.095 0.266,-0.084L0.291,-0.084L0.253,-0L0.221,-0C0.212,-0 0.203,-0.003 0.196,-0.008C0.188,-0.014 0.183,-0.021 0.181,-0.03L0.012,-0.491L0.141,-0.491Z" style="fill:white;fill-rule:nonzero;"/>
                    </g>
                    <g transform="matrix(2346.142198,0,0,2346.142198,4621.388552,2555)">
                        <path d="M0.358,-0.503C0.421,-0.503 0.467,-0.484 0.495,-0.444C0.523,-0.405 0.538,-0.34 0.538,-0.248C0.538,-0.208 0.534,-0.173 0.527,-0.141C0.52,-0.109 0.508,-0.082 0.491,-0.059C0.474,-0.036 0.451,-0.018 0.421,-0.006C0.391,0.006 0.353,0.012 0.306,0.012C0.289,0.012 0.27,0.011 0.249,0.01C0.228,0.008 0.206,0.006 0.184,0.003C0.162,-0 0.14,-0.004 0.12,-0.009C0.1,-0.013 0.082,-0.019 0.066,-0.025L0.163,-0.099C0.178,-0.094 0.193,-0.091 0.21,-0.087C0.226,-0.084 0.243,-0.082 0.259,-0.081C0.275,-0.08 0.29,-0.08 0.304,-0.08C0.33,-0.081 0.351,-0.086 0.367,-0.096C0.383,-0.106 0.395,-0.123 0.402,-0.148C0.409,-0.172 0.413,-0.205 0.413,-0.248C0.413,-0.288 0.41,-0.319 0.404,-0.342C0.398,-0.365 0.388,-0.381 0.374,-0.391C0.359,-0.401 0.338,-0.405 0.311,-0.405C0.287,-0.405 0.265,-0.4 0.244,-0.388C0.224,-0.377 0.201,-0.361 0.174,-0.342L0.166,-0.407C0.184,-0.426 0.203,-0.444 0.224,-0.458C0.244,-0.472 0.266,-0.484 0.289,-0.491C0.311,-0.499 0.334,-0.503 0.358,-0.503ZM0.187,-0.7L0.188,-0.53C0.188,-0.509 0.187,-0.488 0.186,-0.469C0.184,-0.449 0.18,-0.43 0.175,-0.411L0.187,-0.397L0.187,-0.019L0.066,-0.025L0.066,-0.7L0.187,-0.7Z" style="fill:white;fill-rule:nonzero;"/>
                    </g>
                    <g transform="matrix(2346.142198,0,0,2346.142198,5897.396639,2555)">
                        <path d="M0.287,-0.503C0.366,-0.503 0.423,-0.49 0.458,-0.462C0.493,-0.434 0.511,-0.393 0.511,-0.339C0.511,-0.295 0.501,-0.261 0.48,-0.237C0.458,-0.214 0.422,-0.203 0.372,-0.203L0.092,-0.203L0.092,-0.278L0.339,-0.278C0.362,-0.278 0.376,-0.284 0.382,-0.296C0.389,-0.308 0.392,-0.323 0.392,-0.34C0.392,-0.367 0.384,-0.386 0.369,-0.397C0.354,-0.408 0.328,-0.413 0.292,-0.413C0.261,-0.413 0.237,-0.409 0.219,-0.4C0.202,-0.392 0.19,-0.376 0.183,-0.353C0.176,-0.33 0.172,-0.298 0.172,-0.256C0.172,-0.21 0.177,-0.175 0.185,-0.15C0.194,-0.126 0.208,-0.109 0.228,-0.1C0.248,-0.09 0.274,-0.086 0.308,-0.086C0.332,-0.086 0.361,-0.087 0.393,-0.089C0.426,-0.091 0.457,-0.094 0.487,-0.097L0.499,-0.021C0.481,-0.013 0.461,-0.007 0.437,-0.002C0.413,0.003 0.389,0.007 0.364,0.009C0.339,0.011 0.316,0.012 0.294,0.012C0.234,0.012 0.186,0.003 0.149,-0.015C0.113,-0.032 0.087,-0.06 0.07,-0.098C0.054,-0.136 0.046,-0.185 0.046,-0.245C0.046,-0.31 0.054,-0.361 0.07,-0.399C0.087,-0.436 0.113,-0.463 0.148,-0.479C0.184,-0.495 0.23,-0.503 0.287,-0.503Z" style="fill:white;fill-rule:nonzero;"/>
                    </g>
                    <g transform="matrix(2346.142198,0,0,2346.142198,7099.372943,2555)">
                        <path d="M0.162,-0.491L0.178,-0.395L0.189,-0.381L0.189,-0L0.068,-0L0.068,-0.491L0.162,-0.491ZM0.402,-0.503L0.39,-0.391L0.355,-0.391C0.329,-0.391 0.303,-0.387 0.276,-0.378C0.249,-0.369 0.216,-0.356 0.176,-0.339L0.168,-0.41C0.203,-0.44 0.238,-0.463 0.274,-0.479C0.31,-0.495 0.345,-0.503 0.378,-0.503L0.402,-0.503Z" style="fill:white;fill-rule:nonzero;"/>
                    </g>
                    <g transform="matrix(2346.142198,0,0,2346.142198,7980.917545,2555)">
                        <path d="M0.68,-0.503C0.723,-0.503 0.756,-0.492 0.779,-0.469C0.802,-0.446 0.814,-0.412 0.814,-0.368L0.814,-0L0.694,-0L0.694,-0.331C0.693,-0.356 0.688,-0.374 0.679,-0.385C0.669,-0.396 0.653,-0.401 0.63,-0.401C0.616,-0.401 0.602,-0.399 0.589,-0.395C0.577,-0.39 0.562,-0.384 0.546,-0.374C0.53,-0.365 0.511,-0.353 0.488,-0.337L0.481,-0.41C0.515,-0.441 0.548,-0.464 0.579,-0.48C0.611,-0.496 0.645,-0.503 0.68,-0.503ZM0.165,-0.491L0.177,-0.395L0.189,-0.381L0.189,-0L0.068,-0L0.068,-0.491L0.165,-0.491ZM0.367,-0.503C0.41,-0.503 0.442,-0.492 0.465,-0.469C0.488,-0.447 0.499,-0.413 0.499,-0.368L0.499,-0L0.383,-0L0.383,-0.331C0.383,-0.357 0.378,-0.375 0.367,-0.385C0.356,-0.396 0.34,-0.401 0.319,-0.401C0.305,-0.401 0.292,-0.399 0.279,-0.395C0.266,-0.391 0.251,-0.384 0.235,-0.375C0.219,-0.366 0.199,-0.353 0.175,-0.337L0.168,-0.41C0.201,-0.441 0.234,-0.464 0.266,-0.48C0.298,-0.496 0.331,-0.503 0.367,-0.503Z" style="fill:white;fill-rule:nonzero;"/>
                    </g>
                    <g transform="matrix(2346.142198,0,0,2346.142198,9948.396058,2555)">
                        <path d="M0.287,-0.503C0.366,-0.503 0.423,-0.49 0.458,-0.462C0.493,-0.434 0.511,-0.393 0.511,-0.339C0.511,-0.295 0.501,-0.261 0.48,-0.237C0.458,-0.214 0.422,-0.203 0.372,-0.203L0.092,-0.203L0.092,-0.278L0.339,-0.278C0.362,-0.278 0.376,-0.284 0.382,-0.296C0.389,-0.308 0.392,-0.323 0.392,-0.34C0.392,-0.367 0.384,-0.386 0.369,-0.397C0.354,-0.408 0.328,-0.413 0.292,-0.413C0.261,-0.413 0.237,-0.409 0.219,-0.4C0.202,-0.392 0.19,-0.376 0.183,-0.353C0.176,-0.33 0.172,-0.298 0.172,-0.256C0.172,-0.21 0.177,-0.175 0.185,-0.15C0.194,-0.126 0.208,-0.109 0.228,-0.1C0.248,-0.09 0.274,-0.086 0.308,-0.086C0.332,-0.086 0.361,-0.087 0.393,-0.089C0.426,-0.091 0.457,-0.094 0.487,-0.097L0.499,-0.021C0.481,-0.013 0.461,-0.007 0.437,-0.002C0.413,0.003 0.389,0.007 0.364,0.009C0.339,0.011 0.316,0.012 0.294,0.012C0.234,0.012 0.186,0.003 0.149,-0.015C0.113,-0.032 0.087,-0.06 0.07,-0.098C0.054,-0.136 0.046,-0.185 0.046,-0.245C0.046,-0.31 0.054,-0.361 0.07,-0.399C0.087,-0.436 0.113,-0.463 0.148,-0.479C0.184,-0.495 0.23,-0.503 0.287,-0.503Z" style="fill:white;fill-rule:nonzero;"/>
                    </g>
                    <g transform="matrix(2346.142198,0,0,2346.142198,11150.372362,2555)">
                        <path d="M0.68,-0.503C0.723,-0.503 0.756,-0.492 0.779,-0.469C0.802,-0.446 0.814,-0.412 0.814,-0.368L0.814,-0L0.694,-0L0.694,-0.331C0.693,-0.356 0.688,-0.374 0.679,-0.385C0.669,-0.396 0.653,-0.401 0.63,-0.401C0.616,-0.401 0.602,-0.399 0.589,-0.395C0.577,-0.39 0.562,-0.384 0.546,-0.374C0.53,-0.365 0.511,-0.353 0.488,-0.337L0.481,-0.41C0.515,-0.441 0.548,-0.464 0.579,-0.48C0.611,-0.496 0.645,-0.503 0.68,-0.503ZM0.165,-0.491L0.177,-0.395L0.189,-0.381L0.189,-0L0.068,-0L0.068,-0.491L0.165,-0.491ZM0.367,-0.503C0.41,-0.503 0.442,-0.492 0.465,-0.469C0.488,-0.447 0.499,-0.413 0.499,-0.368L0.499,-0L0.383,-0L0.383,-0.331C0.383,-0.357 0.378,-0.375 0.367,-0.385C0.356,-0.396 0.34,-0.401 0.319,-0.401C0.305,-0.401 0.292,-0.399 0.279,-0.395C0.266,-0.391 0.251,-0.384 0.235,-0.375C0.219,-0.366 0.199,-0.353 0.175,-0.337L0.168,-0.41C0.201,-0.441 0.234,-0.464 0.266,-0.48C0.298,-0.496 0.331,-0.503 0.367,-0.503Z" style="fill:white;fill-rule:nonzero;"/>
                    </g>
                    <g transform="matrix(2346.142198,0,0,2346.142198,13211.696562,2555)">
                    </g>
                </g>
            </g>
            <g transform="matrix(0.333198,0,0,0.345542,-445.946233,-606.484698)">
                <path d="M2188.939,2400.617L2188.939,2555L2209.12,2555L2209.12,2426.564L2209.568,2426.564L2259.572,2555L2277.735,2555L2327.739,2426.564L2328.187,2426.564L2328.187,2555L2348.368,2555L2348.368,2400.617L2319.218,2400.617L2268.541,2530.351L2218.089,2400.617L2188.939,2400.617Z" style="fill:white;fill-opacity:0.82;fill-rule:nonzero;"/>
                <path d="M2461.157,2488.403L2394.56,2488.403C2394.859,2484.079 2395.831,2480.007 2397.475,2476.187C2399.12,2472.367 2401.362,2469.016 2404.202,2466.133C2407.043,2463.25 2410.443,2460.979 2414.405,2459.322C2418.366,2457.664 2422.814,2456.835 2427.747,2456.835C2432.53,2456.835 2436.903,2457.664 2440.864,2459.322C2444.826,2460.979 2448.264,2463.214 2451.179,2466.024C2454.094,2468.835 2456.411,2472.187 2458.13,2476.079C2459.849,2479.971 2460.858,2484.079 2461.157,2488.403ZM2479.545,2519.54L2460.709,2519.54C2459.065,2526.891 2455.664,2532.369 2450.506,2535.972C2445.349,2539.576 2438.734,2541.378 2430.662,2541.378C2424.383,2541.378 2418.927,2540.369 2414.293,2538.351C2409.659,2536.333 2405.847,2533.63 2402.857,2530.243C2399.867,2526.855 2397.7,2522.963 2396.354,2518.567C2395.009,2514.17 2394.411,2509.521 2394.56,2504.62L2481.338,2504.62C2481.637,2497.845 2481.002,2490.71 2479.432,2483.214C2477.863,2475.718 2475.023,2468.799 2470.912,2462.457C2466.801,2456.114 2461.344,2450.889 2454.543,2446.781C2447.741,2442.672 2439.183,2440.618 2428.868,2440.618C2420.945,2440.618 2413.657,2442.06 2407.005,2444.943C2400.353,2447.826 2394.598,2451.862 2389.739,2457.051C2384.881,2462.241 2381.106,2468.367 2378.415,2475.43C2375.725,2482.493 2374.379,2490.277 2374.379,2498.782C2374.678,2507.287 2375.986,2515.143 2378.303,2522.35C2380.62,2529.558 2384.096,2535.756 2388.73,2540.946C2393.364,2546.135 2399.082,2550.171 2405.884,2553.054C2412.686,2555.937 2420.721,2557.378 2429.989,2557.378C2443.144,2557.378 2454.057,2554.207 2462.727,2547.865C2471.397,2541.522 2477.003,2532.08 2479.545,2519.54Z" style="fill:white;fill-opacity:0.82;fill-rule:nonzero;"/>
                <path d="M2501.071,2443.213L2501.071,2555L2520.131,2555L2520.131,2485.376C2520.131,2483.214 2520.691,2480.511 2521.812,2477.268C2522.934,2474.025 2524.727,2470.889 2527.194,2467.862C2529.661,2464.835 2532.875,2462.241 2536.836,2460.078C2540.798,2457.916 2545.544,2456.835 2551.075,2456.835C2555.41,2456.835 2558.96,2457.448 2561.726,2458.673C2564.491,2459.898 2566.696,2461.628 2568.341,2463.862C2569.985,2466.097 2571.144,2468.727 2571.816,2471.754C2572.489,2474.781 2572.825,2478.097 2572.825,2481.701L2572.825,2555L2591.885,2555L2591.885,2485.376C2591.885,2476.727 2594.576,2469.808 2599.958,2464.619C2605.339,2459.43 2612.739,2456.835 2622.157,2456.835C2626.791,2456.835 2630.565,2457.484 2633.48,2458.781C2636.395,2460.078 2638.675,2461.844 2640.32,2464.078C2641.964,2466.313 2643.085,2468.943 2643.683,2471.971C2644.281,2474.998 2644.58,2478.241 2644.58,2481.701L2644.58,2555L2663.64,2555L2663.64,2473.052C2663.64,2467.286 2662.705,2462.349 2660.837,2458.24C2658.968,2454.132 2656.352,2450.781 2652.989,2448.186C2649.625,2445.591 2645.589,2443.681 2640.88,2442.456C2636.171,2441.231 2630.902,2440.618 2625.072,2440.618C2617.448,2440.618 2610.459,2442.276 2604.106,2445.591C2597.753,2448.907 2592.633,2453.592 2588.746,2459.646C2586.354,2452.727 2582.243,2447.826 2576.413,2444.943C2570.583,2442.06 2564.08,2440.618 2556.905,2440.618C2540.611,2440.618 2528.128,2446.961 2519.458,2459.646L2519.01,2459.646L2519.01,2443.213L2501.071,2443.213Z" style="fill:white;fill-opacity:0.82;fill-rule:nonzero;"/>
                <path d="M2706.244,2499.215C2706.244,2492.44 2707.178,2486.421 2709.047,2481.16C2710.916,2475.899 2713.494,2471.466 2716.783,2467.862C2720.072,2464.259 2723.921,2461.52 2728.331,2459.646C2732.741,2457.772 2737.412,2456.835 2742.346,2456.835C2747.279,2456.835 2751.95,2457.772 2756.36,2459.646C2760.77,2461.52 2764.619,2464.259 2767.908,2467.862C2771.197,2471.466 2773.776,2475.899 2775.644,2481.16C2777.513,2486.421 2778.447,2492.44 2778.447,2499.215C2778.447,2505.99 2777.513,2512.008 2775.644,2517.269C2773.776,2522.531 2771.197,2526.927 2767.908,2530.459C2764.619,2533.99 2760.77,2536.693 2756.36,2538.567C2751.95,2540.441 2747.279,2541.378 2742.346,2541.378C2737.412,2541.378 2732.741,2540.441 2728.331,2538.567C2723.921,2536.693 2720.072,2533.99 2716.783,2530.459C2713.494,2526.927 2710.916,2522.531 2709.047,2517.269C2707.178,2512.008 2706.244,2505.99 2706.244,2499.215ZM2686.063,2499.215C2686.063,2507.431 2687.259,2515.071 2689.651,2522.134C2692.043,2529.197 2695.63,2535.36 2700.414,2540.621C2705.198,2545.883 2711.102,2549.991 2718.128,2552.946C2725.154,2555.901 2733.227,2557.378 2742.346,2557.378C2751.614,2557.378 2759.724,2555.901 2766.675,2552.946C2773.626,2549.991 2779.493,2545.883 2784.277,2540.621C2789.061,2535.36 2792.648,2529.197 2795.04,2522.134C2797.432,2515.071 2798.628,2507.431 2798.628,2499.215C2798.628,2490.998 2797.432,2483.322 2795.04,2476.187C2792.648,2469.052 2789.061,2462.853 2784.277,2457.592C2779.493,2452.33 2773.626,2448.186 2766.675,2445.159C2759.724,2442.132 2751.614,2440.618 2742.346,2440.618C2733.227,2440.618 2725.154,2442.132 2718.128,2445.159C2711.102,2448.186 2705.198,2452.33 2700.414,2457.592C2695.63,2462.853 2692.043,2469.052 2689.651,2476.187C2687.259,2483.322 2686.063,2490.998 2686.063,2499.215Z" style="fill:white;fill-opacity:0.82;fill-rule:nonzero;"/>
                <path d="M2820.379,2443.213L2820.379,2555L2839.438,2555L2839.438,2505.269C2839.438,2498.061 2840.186,2491.683 2841.681,2486.133C2843.176,2480.583 2845.567,2475.863 2848.856,2471.971C2852.145,2468.079 2856.48,2465.124 2861.862,2463.105C2867.243,2461.087 2873.746,2460.078 2881.37,2460.078L2881.37,2440.618C2871.055,2440.33 2862.534,2442.348 2855.807,2446.673C2849.08,2450.997 2843.4,2457.7 2838.766,2466.781L2838.317,2466.781L2838.317,2443.213L2820.379,2443.213Z" style="fill:white;fill-opacity:0.82;fill-rule:nonzero;"/>
                <path d="M2941.24,2569.919C2938.998,2575.397 2936.793,2580.01 2934.625,2583.758C2932.458,2587.505 2930.066,2590.569 2927.45,2592.947C2924.834,2595.325 2921.919,2597.055 2918.705,2598.136C2915.491,2599.218 2911.791,2599.758 2907.605,2599.758C2905.363,2599.758 2903.121,2599.614 2900.878,2599.326C2898.636,2599.037 2896.468,2598.533 2894.376,2597.812L2894.376,2580.947C2896.02,2581.667 2897.926,2582.28 2900.093,2582.785C2902.261,2583.289 2904.092,2583.541 2905.587,2583.541C2909.474,2583.541 2912.725,2582.64 2915.341,2580.839C2917.957,2579.037 2919.938,2576.478 2921.283,2573.163L2929.132,2554.351L2883.164,2443.213L2904.69,2443.213L2938.549,2534.675L2938.998,2534.675L2971.512,2443.213L2991.693,2443.213L2941.24,2569.919Z" style="fill:white;fill-opacity:0.82;fill-rule:nonzero;"/>
                <path d="M3073.762,2400.617L3073.762,2555L3093.943,2555L3093.943,2426.564L3094.391,2426.564L3144.395,2555L3162.558,2555L3212.562,2426.564L3213.011,2426.564L3213.011,2555L3233.191,2555L3233.191,2400.617L3204.041,2400.617L3153.365,2530.351L3102.912,2400.617L3073.762,2400.617Z" style="fill:white;fill-opacity:0.82;fill-rule:nonzero;"/>
                <path d="M3381.185,2447.105L3402.487,2447.105C3401.291,2438.889 3398.75,2431.645 3394.863,2425.375C3390.977,2419.104 3386.118,2413.879 3380.288,2409.698C3374.458,2405.518 3367.806,2402.347 3360.332,2400.185C3352.857,2398.022 3344.934,2396.941 3336.563,2396.941C3324.305,2396.941 3313.43,2399.068 3303.937,2403.32C3294.444,2407.572 3286.522,2413.374 3280.168,2420.726C3273.815,2428.077 3268.994,2436.69 3265.705,2446.564C3262.417,2456.439 3260.772,2466.997 3260.772,2478.241C3260.772,2489.485 3262.304,2500.007 3265.369,2509.809C3268.433,2519.612 3273.03,2528.116 3279.159,2535.324C3285.288,2542.531 3292.987,2548.189 3302.255,2552.297C3311.524,2556.405 3322.361,2558.46 3334.769,2558.46C3355.249,2558.46 3371.394,2553.054 3383.203,2542.243C3395.013,2531.432 3401.964,2516.296 3404.057,2496.836L3382.755,2496.836C3382.306,2503.179 3380.961,2509.089 3378.719,2514.566C3376.476,2520.044 3373.374,2524.765 3369.413,2528.729C3365.452,2532.693 3360.743,2535.792 3355.286,2538.027C3349.83,2540.261 3343.589,2541.378 3336.563,2541.378C3326.996,2541.378 3318.774,2539.648 3311.897,2536.189C3305.021,2532.729 3299.378,2528.08 3294.968,2522.242C3290.558,2516.404 3287.306,2509.557 3285.214,2501.701C3283.121,2493.845 3282.074,2485.521 3282.074,2476.727C3282.074,2468.655 3283.121,2460.871 3285.214,2453.375C3287.306,2445.88 3290.558,2439.213 3294.968,2433.375C3299.378,2427.537 3304.983,2422.888 3311.785,2419.428C3318.587,2415.969 3326.771,2414.239 3336.339,2414.239C3347.55,2414.239 3357.23,2416.978 3365.377,2422.456C3373.524,2427.933 3378.793,2436.15 3381.185,2447.105Z" style="fill:white;fill-opacity:0.82;fill-rule:nonzero;"/>
                <path d="M3451.819,2474.565L3451.819,2417.915L3493.526,2417.915C3505.635,2417.915 3514.492,2420.329 3520.098,2425.158C3525.703,2429.987 3528.506,2437.015 3528.506,2446.24C3528.506,2455.466 3525.703,2462.529 3520.098,2467.43C3514.492,2472.331 3505.635,2474.709 3493.526,2474.565L3451.819,2474.565ZM3430.516,2400.617L3430.516,2555L3451.819,2555L3451.819,2491.863L3500.701,2491.863C3516.846,2492.007 3529.067,2488.043 3537.363,2479.971C3545.66,2471.898 3549.808,2460.655 3549.808,2446.24C3549.808,2431.825 3545.66,2420.618 3537.363,2412.617C3529.067,2404.617 3516.846,2400.617 3500.701,2400.617L3430.516,2400.617Z" style="fill:white;fill-opacity:0.82;fill-rule:nonzero;"/>
                <path d="M3730.764,2445.808L3750.945,2445.808C3750.646,2437.303 3748.965,2429.987 3745.9,2423.861C3742.836,2417.735 3738.65,2412.654 3733.343,2408.617C3728.036,2404.581 3721.87,2401.626 3714.844,2399.752C3707.818,2397.878 3700.194,2396.941 3691.972,2396.941C3684.647,2396.941 3677.509,2397.842 3670.558,2399.644C3663.607,2401.446 3657.403,2404.185 3651.947,2407.861C3646.49,2411.536 3642.118,2416.221 3638.829,2421.915C3635.54,2427.609 3633.896,2434.348 3633.896,2442.132C3633.896,2449.195 3635.353,2455.069 3638.268,2459.754C3641.183,2464.439 3645.07,2468.259 3649.928,2471.214C3654.787,2474.169 3660.281,2476.547 3666.41,2478.349C3672.539,2480.151 3678.78,2481.737 3685.133,2483.106C3691.486,2484.475 3697.727,2485.809 3703.856,2487.106C3709.985,2488.403 3715.479,2490.097 3720.338,2492.187C3725.196,2494.278 3729.083,2496.98 3731.998,2500.296C3734.913,2503.611 3736.37,2507.936 3736.37,2513.269C3736.37,2518.891 3735.174,2523.504 3732.783,2527.107C3730.391,2530.711 3727.251,2533.558 3723.365,2535.648C3719.478,2537.738 3715.105,2539.216 3710.247,2540.081C3705.389,2540.946 3700.568,2541.378 3695.784,2541.378C3689.805,2541.378 3683.974,2540.657 3678.294,2539.216C3672.613,2537.774 3667.643,2535.54 3663.382,2532.513C3659.122,2529.486 3655.684,2525.63 3653.068,2520.945C3650.452,2516.26 3649.144,2510.674 3649.144,2504.188L3628.963,2504.188C3628.963,2513.557 3630.719,2521.666 3634.232,2528.513C3637.745,2535.36 3642.529,2540.982 3648.583,2545.378C3654.637,2549.775 3661.663,2553.054 3669.661,2555.216C3677.659,2557.378 3686.142,2558.46 3695.111,2558.46C3702.436,2558.46 3709.799,2557.631 3717.198,2555.973C3724.598,2554.315 3731.288,2551.649 3737.267,2547.973C3743.247,2544.297 3748.142,2539.54 3751.954,2533.702C3755.766,2527.864 3757.672,2520.837 3757.672,2512.62C3757.672,2504.981 3756.215,2498.638 3753.3,2493.593C3750.385,2488.548 3746.498,2484.367 3741.64,2481.052C3736.781,2477.736 3731.288,2475.106 3725.159,2473.16C3719.03,2471.214 3712.788,2469.52 3706.435,2468.079C3700.082,2466.637 3693.841,2465.304 3687.712,2464.078C3681.583,2462.853 3676.089,2461.304 3671.231,2459.43C3666.372,2457.556 3662.485,2455.141 3659.57,2452.186C3656.655,2449.231 3655.198,2445.375 3655.198,2440.618C3655.198,2435.573 3656.207,2431.357 3658.225,2427.969C3660.243,2424.582 3662.934,2421.879 3666.297,2419.861C3669.661,2417.843 3673.51,2416.401 3677.845,2415.536C3682.181,2414.672 3686.591,2414.239 3691.075,2414.239C3702.137,2414.239 3711.219,2416.726 3718.319,2421.699C3725.42,2426.672 3729.569,2434.708 3730.764,2445.808Z" style="fill:white;fill-opacity:0.82;fill-rule:nonzero;"/>
                <path d="M3860.82,2488.403L3794.222,2488.403C3794.521,2484.079 3795.493,2480.007 3797.137,2476.187C3798.782,2472.367 3801.024,2469.016 3803.864,2466.133C3806.705,2463.25 3810.106,2460.979 3814.067,2459.322C3818.028,2457.664 3822.476,2456.835 3827.409,2456.835C3832.192,2456.835 3836.565,2457.664 3840.526,2459.322C3844.488,2460.979 3847.926,2463.214 3850.841,2466.024C3853.756,2468.835 3856.073,2472.187 3857.792,2476.079C3859.512,2479.971 3860.521,2484.079 3860.82,2488.403ZM3879.207,2519.54L3860.371,2519.54C3858.727,2526.891 3855.326,2532.369 3850.168,2535.972C3845.011,2539.576 3838.396,2541.378 3830.324,2541.378C3824.045,2541.378 3818.589,2540.369 3813.955,2538.351C3809.321,2536.333 3805.509,2533.63 3802.519,2530.243C3799.529,2526.855 3797.362,2522.963 3796.016,2518.567C3794.671,2514.17 3794.073,2509.521 3794.222,2504.62L3881,2504.62C3881.299,2497.845 3880.664,2490.71 3879.095,2483.214C3877.525,2475.718 3874.685,2468.799 3870.574,2462.457C3866.463,2456.114 3861.006,2450.889 3854.205,2446.781C3847.403,2442.672 3838.845,2440.618 3828.53,2440.618C3820.607,2440.618 3813.32,2442.06 3806.667,2444.943C3800.015,2447.826 3794.26,2451.862 3789.401,2457.051C3784.543,2462.241 3780.768,2468.367 3778.078,2475.43C3775.387,2482.493 3774.041,2490.277 3774.041,2498.782C3774.34,2507.287 3775.648,2515.143 3777.965,2522.35C3780.283,2529.558 3783.758,2535.756 3788.392,2540.946C3793.026,2546.135 3798.744,2550.171 3805.546,2553.054C3812.348,2555.937 3820.383,2557.378 3829.651,2557.378C3842.806,2557.378 3853.719,2554.207 3862.389,2547.865C3871.059,2541.522 3876.665,2532.08 3879.207,2519.54Z" style="fill:white;fill-opacity:0.82;fill-rule:nonzero;"/>
                <path d="M3900.06,2443.213L3900.06,2555L3919.12,2555L3919.12,2505.269C3919.12,2498.061 3919.868,2491.683 3921.362,2486.133C3922.857,2480.583 3925.249,2475.863 3928.538,2471.971C3931.827,2468.079 3936.162,2465.124 3941.543,2463.105C3946.925,2461.087 3953.428,2460.078 3961.052,2460.078L3961.052,2440.618C3950.737,2440.33 3942.216,2442.348 3935.489,2446.673C3928.762,2450.997 3923.082,2457.7 3918.447,2466.781L3917.999,2466.781L3917.999,2443.213L3900.06,2443.213Z" style="fill:white;fill-opacity:0.82;fill-rule:nonzero;"/>
                <path d="M4027.649,2555L4070.029,2443.213L4050.072,2443.213L4018.455,2536.405L4018.007,2536.405L3985.493,2443.213L3964.191,2443.213L4007.244,2555L4027.649,2555Z" style="fill:white;fill-opacity:0.82;fill-rule:nonzero;"/>
                <path d="M4168.019,2488.403L4101.421,2488.403C4101.72,2484.079 4102.692,2480.007 4104.337,2476.187C4105.981,2472.367 4108.223,2469.016 4111.064,2466.133C4113.904,2463.25 4117.305,2460.979 4121.266,2459.322C4125.228,2457.664 4129.675,2456.835 4134.608,2456.835C4139.392,2456.835 4143.764,2457.664 4147.726,2459.322C4151.687,2460.979 4155.125,2463.214 4158.04,2466.024C4160.955,2468.835 4163.272,2472.187 4164.992,2476.079C4166.711,2479.971 4167.72,2484.079 4168.019,2488.403ZM4186.406,2519.54L4167.57,2519.54C4165.926,2526.891 4162.525,2532.369 4157.368,2535.972C4152.21,2539.576 4145.595,2541.378 4137.523,2541.378C4131.244,2541.378 4125.788,2540.369 4121.154,2538.351C4116.52,2536.333 4112.708,2533.63 4109.718,2530.243C4106.728,2526.855 4104.561,2522.963 4103.215,2518.567C4101.87,2514.17 4101.272,2509.521 4101.421,2504.62L4188.2,2504.62C4188.499,2497.845 4187.863,2490.71 4186.294,2483.214C4184.724,2475.718 4181.884,2468.799 4177.773,2462.457C4173.662,2456.114 4168.206,2450.889 4161.404,2446.781C4154.602,2442.672 4146.044,2440.618 4135.729,2440.618C4127.806,2440.618 4120.519,2442.06 4113.866,2444.943C4107.214,2447.826 4101.459,2451.862 4096.6,2457.051C4091.742,2462.241 4087.968,2468.367 4085.277,2475.43C4082.586,2482.493 4081.241,2490.277 4081.241,2498.782C4081.539,2507.287 4082.848,2515.143 4085.165,2522.35C4087.482,2529.558 4090.957,2535.756 4095.591,2540.946C4100.226,2546.135 4105.944,2550.171 4112.745,2553.054C4119.547,2555.937 4127.582,2557.378 4136.85,2557.378C4150.005,2557.378 4160.918,2554.207 4169.588,2547.865C4178.259,2541.522 4183.864,2532.08 4186.406,2519.54Z" style="fill:white;fill-opacity:0.82;fill-rule:nonzero;"/>
                <path d="M4207.259,2443.213L4207.259,2555L4226.319,2555L4226.319,2505.269C4226.319,2498.061 4227.067,2491.683 4228.562,2486.133C4230.056,2480.583 4232.448,2475.863 4235.737,2471.971C4239.026,2468.079 4243.361,2465.124 4248.743,2463.105C4254.124,2461.087 4260.627,2460.078 4268.251,2460.078L4268.251,2440.618C4257.936,2440.33 4249.415,2442.348 4242.688,2446.673C4235.961,2450.997 4230.281,2457.7 4225.647,2466.781L4225.198,2466.781L4225.198,2443.213L4207.259,2443.213Z" style="fill:white;fill-opacity:0.82;fill-rule:nonzero;"/>
            </g>
        </g>
    </g>
</svg>
