<svg xmlns="http://www.w3.org/2000/svg" xml:space="preserve" fill-rule="evenodd" stroke-linejoin="round" stroke-miterlimit="2" clip-rule="evenodd" viewBox="0 0 1334 1334">
  <g transform="scale(1.333333)">
    <clipPath id="a">
      <path d="M1000 500A500 500 0 1 1 0 500a500 500 0 0 1 1000 0Z"/>
    </clipPath>
    <g clip-path="url(#a)">
      <path fill="#195d4b" d="M0 0h1000v1000H0z"/>
      <path fill="#fff" fill-rule="nonzero" d="M668 884c-7-3-11-5-17-11a39 39 0 0 1-6-48l2-4a2202 2202 0 0 0-74-98h-5c-11 3-19 2-29-3-14-6-22-18-23-33v-7l-11-4a6001 6001 0 0 0-87-30c-8-3-9-3-12 2-4 4-7 7-13 10-16 9-35 5-48-8-6-6-8-10-10-17s-2-12 0-19l1-6-9-5-14-8-11-7a1221 1221 0 0 1-20-12l-3-1-3 3c-5 4-13 8-19 9l-12 1c-12-1-23-8-31-19-5-7-8-21-6-30 1-5 5-12 6-14 2-1 2-3 0-4l-5-7-8-12-10-15a760 760 0 0 0-33-46l-8-12c-8-12-8-11-12-10-5 2-17 1-22 0a42 42 0 0 1-29-48c5-15 15-25 31-30 7-2 7-2 15-1 3 1 3 1 4-1l2-5a245 245 0 0 0 7-10 227 227 0 0 1 20-36l3-5 3-6a53 53 0 0 1 5-7l2-3c2-4 2-6 0-7-3-3-8-13-9-21v-13c3-14 12-25 26-30 7-2 13-3 20-1 8 1 16 5 22 11 4 4 5 4 7 4l6-3 1-1 17-7a292 292 0 0 1 36-18l9-4 3-2-1-9c0-10 1-14 7-23 5-8 12-14 21-17 6-2 21-2 27 1 9 3 20 15 23 23l1 3 9-1h20a4386 4386 0 0 1 85-6c1 0 2-1 2-3 0-3 4-11 6-14l15-11c6-3 11-4 19-3 8 0 8 0 15 3 14 8 23 21 23 36v3l10 3 42 14 34 11 8 3 5-5c6-6 9-8 17-11 6-1 16-2 22 0 11 2 23 13 28 25 2 5 2 6 2 15 0 8 0 10-2 15l-2 6 3 3 61 63 9 9 5-3c11-5 21-4 32 1 14 8 22 20 22 36 0 15-7 27-18 34l-6 3 10 42 2 6 5 1a40 40 0 0 1 24 68l-6 6c-4 3-13 6-18 6h-7c-3 1-2-1-12 28a688 688 0 0 1-14 37l-10 26-1 5 4 5a40 40 0 0 1-23 69c-9 1-22-2-31-9l-4-2-11 6a532 532 0 0 1-31 19 377 377 0 0 0-40 24l-6 4-8 3-3 2a5866 5866 0 0 0 6 80l4 2c10 3 18 9 23 18 7 10 7 29 1 40-4 7-14 15-22 18-7 3-17 3-25 1Zm-2-77a695 695 0 0 0-6-78l-9-4a2366 2366 0 0 1-55-20c-3-1-3-1-5 2l-2 3 7 9a5505 5505 0 0 1 61 82c6 7 8 9 9 6Zm-7-101-1-17-4-51-2-29-1-16v-4l-5-1h-4l-5 6-7 10-22 30-19 26 2 4c5 8 6 12 6 20v7l3 1a181 181 0 0 1 24 9 560 560 0 0 1 35 11v-6Zm25 2a3679 3679 0 0 1 34-20l14-9 34-21c6-3 6-4 6-6-2-7-2-13-2-19l1-6-7-4a3407 3407 0 0 0-76-45l-5 3-8 5c-5 2-5 1-4 15l2 19 1 15 1 8 5 66 4-1Zm-157-51c5-5 11-9 17-11s17-2 24 0h6l3-4 3-5a1238 1238 0 0 0 45-64l-2-3c0-2-3-2-18 2a3382 3382 0 0 1-83 22 6141 6141 0 0 0-106 29l11 5 22 8 52 18 15 6c6 2 7 2 11-3Zm258-49c6-5 16-9 24-10 6 0 6-1 12-17a934 934 0 0 1 21-58l5-13 3-7v-1l-6-5c-5-4-5-5-7-4a2027 2027 0 0 0-117 44l-17 7-4 1v8l-1 8 9 5 17 10a650 650 0 0 1 44 26l14 8 3-2Zm-353-12 35-9 23-5a1032 1032 0 0 0 76-20 2362 2362 0 0 1 41-11c10-2 11-3 11-9l1-6v-3l-6-5a8474 8474 0 0 0-73-50l-8 4c-6 2-8 3-15 3s-9 0-17-2a579 579 0 0 1-25 29l-17 21a1102 1102 0 0 0-49 67l2 2 21-6Zm-83-5c5-4 10-7 18-8 7-2 12-2 18 0l6 2 4-4 17-21 22-28a4600 4600 0 0 1 48-62h-3a2209 2209 0 0 1-93 36l-18 7-18 7a7533 7533 0 0 1-60 23l-1 5-1 9v5l5 4 13 8 12 7 21 13c4 2 5 2 10-3Zm358-70a833 833 0 0 0 39-15l60-23 19-7 7-3 1-16-2-2-11-7-16-9-16-9a1374 1374 0 0 1-51-30c-4-3-5-3-7-1-4 3-14 8-19 9-9 1-9 1-9 3a971 971 0 0 1-22 93l-2 9 2 2c7 5 11 9 11 10l16-4Zm-414 0 16-7a1445 1445 0 0 1 100-38l67-27v-9l1-8-10-6a4541 4541 0 0 1-95-58l-2-1-6 3c-8 6-12 7-22 8h-8l-2 3-5 11-8 18-13 29a536 536 0 0 0-13 28 928 928 0 0 0-19 49c2 0 2 1 5 5 3 3 3 3 14 0Zm342-6 21-7c2 0 2-1 3-3a2609 2609 0 0 0 14-59l3-10 7-30c1-2 0-3-2-4l-8-6c-4-5-3-5-16 1a553 553 0 0 1-53 22 370 370 0 0 0-40 16l-7 3v7c0 7-1 14-3 15a4139 4139 0 0 1 74 55c2 2 5 2 7 0Zm-398-7 10-1 8-2 1-3 4-10 5-12a695 695 0 0 1 25-55l4-9a973 973 0 0 0 21-46c1-1-1-3-3-5l-8-10-1-1a475 475 0 0 1-59 12l-21 4-18 4-20 4c-19 3-18 3-18 7-1 5-2 9-6 16l-2 6 1 2 5 8 1 1 3 4 15 21a1343 1343 0 0 0 48 67l5-2Zm610-70 5-4c7-3 7-3 5-10l-2-13a402 402 0 0 0-6-24c-1-5-1-5-4-5a40 40 0 0 1-34-21l-4-4a829 829 0 0 0-59 11c-4 0-4 0-5 8 0 4 0 4 3 6l11 7 6 3 5 3a310 310 0 0 1 38 22 496 496 0 0 0 41 21Zm-287-16a387 387 0 0 0 48-20 300 300 0 0 1 22-9l18-8 15-6v-19l-10-4-23-10a312 312 0 0 1-31-13l-13-5c-41-18-37-17-41-12-3 3-11 8-15 9l-4 3a11892 11892 0 0 1 0 78l2 1c5 0 17 8 21 14 1 3 2 3 4 3l7-2Zm-69-9 9-5 6-2v-40l-1-40-7-3c-8-4-14-10-18-18-3-6-3-7-4-14l1-13c2-7 2-7 0-8l-6-5-13-10a1673 1673 0 0 1-72-54l-4-3-4 2-9 4-6 2-3 26a2079 2079 0 0 1-6 65l5 3c11 6 19 16 22 27v18c-1 5-1 5 4 7l6 5 9 5a228 228 0 0 1 12 7 476 476 0 0 1 38 23 1815 1815 0 0 1 37 23l4-2Zm-315-54a805 805 0 0 0 64-12 1579 1579 0 0 0 60-11l1-8 1-8-11-8c-14-11-36-28-38-31a983 983 0 0 1-19-14l-6 2c-8 4-14 5-23 5l-7-1-3 6-4 7-6 10a438 438 0 0 0-27 46l-4 8 5 6c3 4 5 6 6 5l11-2Zm585-7 25-5c21-3 19-3 19-9l3-11 2-6-9-9a8446 8446 0 0 1-63-65l-4 1-6 2-4 1-1 7a1255 1255 0 0 0-7 70c-1 2 0 2 5 5l9 6c4 3 10 11 11 14 1 2 1 2 5 1l15-2Zm-85-13c4-4 12-9 16-9l4-2a410 410 0 0 0 6-55l1-16 1-7-5-2-11-8c-5-5-5-6-7-5a2465 2465 0 0 1-83 32l-21 9-17 6-3 1v6c0 6-1 5 11 10l9 4 15 6 18 7a1612 1612 0 0 0 61 26l5-3Zm-358-35c1-2 9-5 13-6 3-1 4-1 4-3a4045 4045 0 0 1 8-90c0-2 0-2-3-4-5-2-10-6-14-9l-3-4-4 2-7 3a808 808 0 0 1-48 23l-14 7-1 9-1 14c-2 4-2 4 0 6a753 753 0 0 0 70 52Zm244-43a622 622 0 0 0 49-19 15879 15879 0 0 0 62-24c2 0 4-4 4-8l-1-3-18-7-40-13-27-9c-7-3-8-2-11 2l-6 6c-4 3-13 7-19 8-5 1-7 2-7 5a795 795 0 0 1-12 53l12 11 3 2 11-4Zm-68-7c2-3 14-7 22-7l1-4 3-11a3568 3568 0 0 1 10-40c1-1-1-2-4-5-8-6-12-12-15-18l-1-3h-9a654 654 0 0 0-38 3l-29 2-27 2-11 1v5l-1 4 4 2a1243 1243 0 0 1 65 50 79 79 0 0 1 11 9l5 3c8 7 13 9 14 7Z"/>
    </g>
  </g>
</svg>
