<?xml version="1.0" encoding="UTF-8" standalone="no"?>
<!DOCTYPE svg PUBLIC "-//W3C//DTD SVG 1.1//EN" "http://www.w3.org/Graphics/SVG/1.1/DTD/svg11.dtd">
<svg width="100%" height="100%" viewBox="0 0 843 161" version="1.1" xmlns="http://www.w3.org/2000/svg" xmlns:xlink="http://www.w3.org/1999/xlink" xml:space="preserve" xmlns:serif="http://www.serif.com/" style="fill-rule:evenodd;clip-rule:evenodd;stroke-linejoin:round;stroke-miterlimit:2;">
    <g id="Artboard1" transform="matrix(0.998815,0,0,0.930636,-28.96564,-31.641618)">
        <rect x="29" y="34" width="844" height="173" style="fill:none;"/>
        <clipPath id="_clip1">
            <rect x="29" y="34" width="844" height="173"/>
        </clipPath>
        <g clip-path="url(#_clip1)">
            <g transform="matrix(0.758368,0,0,0.813927,8.644613,21.388406)">
                <path d="M182.815,228.333C180.896,227.511 179.8,226.963 178.156,225.318C174.638,221.855 173.954,216.384 176.512,212.162L177.06,211.066C170.55,201.926 163.787,192.969 156.778,184.206L155.408,184.206C152.393,185.028 150.2,184.754 147.46,183.384C143.623,181.74 141.43,178.451 141.156,174.339L141.156,172.42L138.141,171.324C130.214,168.522 122.265,165.781 114.296,163.101C112.103,162.279 111.829,162.279 111.007,163.649C109.911,164.745 109.088,165.568 107.444,166.39C103.059,168.857 97.851,167.76 94.288,164.197C92.644,162.553 92.095,161.456 91.547,159.538C90.999,157.619 90.999,156.249 91.547,154.33L91.821,152.686L89.354,151.316L85.517,149.123L82.502,147.204C80.664,146.125 78.837,145.029 77.02,143.915L76.198,143.641L75.376,144.463C74.006,145.559 71.813,146.656 70.168,146.93L66.879,147.204C63.59,146.93 60.575,145.011 58.382,141.996C57.012,140.077 56.189,136.24 56.738,133.773C57.012,132.403 58.108,130.484 58.382,129.936C58.93,129.662 58.93,129.114 58.382,128.84L57.012,126.921L52.079,119.521C49.222,115.208 46.205,111.002 43.034,106.913L40.841,103.624C38.648,100.335 38.648,100.609 37.552,100.883C36.182,101.431 32.893,101.157 31.522,100.883C25.932,99.176 22.484,93.469 23.574,87.727C24.944,83.616 27.685,80.875 32.071,79.504C33.99,78.956 33.99,78.956 36.182,79.23C37.004,79.504 37.004,79.504 37.278,78.956L37.826,77.586C38.488,76.688 39.128,75.775 39.745,74.845C41.269,71.397 43.104,68.094 45.227,64.978L46.049,63.608L46.871,61.964C47.275,61.288 47.733,60.647 48.241,60.045L48.789,59.223C49.337,58.127 49.337,57.579 48.789,57.304C47.967,56.482 46.596,53.741 46.322,51.548L46.322,47.985C47.144,44.148 49.611,41.133 53.448,39.762C55.367,39.214 57.011,38.94 58.93,39.488C61.123,39.762 63.315,40.858 64.96,42.503C66.056,43.599 66.33,43.599 66.879,43.599L68.523,42.777L68.797,42.503L73.456,40.584C76.628,38.715 79.924,37.066 83.323,35.651L85.79,34.555L86.612,34.007L86.338,31.54C86.338,28.799 86.612,27.703 88.257,25.236C89.627,23.043 91.546,21.399 94.013,20.577C95.657,20.029 99.769,20.029 101.413,20.851C103.88,21.673 106.895,24.962 107.717,27.155L107.991,27.977L110.458,27.703L115.94,27.703C123.7,27.079 131.466,26.531 139.237,26.059C139.511,26.059 139.785,25.785 139.785,25.237C139.785,24.415 140.881,22.222 141.429,21.4L145.54,18.385C147.184,17.563 148.555,17.289 150.748,17.563C152.941,17.563 152.941,17.563 154.859,18.385C158.696,20.578 161.163,24.141 161.163,28.252L161.163,29.074L163.904,29.896L175.415,33.733L184.734,36.748L186.927,37.57L188.297,36.2C189.941,34.556 190.764,34.007 192.956,33.185C194.6,32.911 197.341,32.637 198.986,33.185C202.001,33.733 205.29,36.748 206.66,40.037C207.208,41.407 207.208,41.681 207.208,44.148C207.208,46.341 207.208,46.889 206.66,48.259L206.112,49.903L206.934,50.725L223.653,67.992L226.12,70.459L227.49,69.637C230.505,68.267 233.246,68.541 236.261,69.911C240.098,72.104 242.291,75.393 242.291,79.778C242.291,83.889 240.372,87.178 237.358,89.097L235.714,89.919L238.455,101.43L239.003,103.074L240.373,103.348C245.908,103.951 250.149,108.679 250.149,114.247C250.149,117.147 248.998,119.932 246.951,121.986L245.307,123.63C244.211,124.452 241.744,125.274 240.374,125.274L238.455,125.274C237.633,125.548 237.907,125 235.166,132.948C233.984,136.364 232.705,139.746 231.329,143.089L228.588,150.215L228.314,151.585L229.41,152.955C231.629,155.027 232.89,157.931 232.89,160.967C232.89,166.538 228.644,171.267 223.106,171.867C220.639,172.141 217.076,171.319 214.609,169.4L213.513,168.852L210.498,170.496C207.726,172.328 204.892,174.065 202.001,175.704C198.214,177.668 194.553,179.865 191.038,182.282L189.394,183.378L187.201,184.2L186.379,184.748C186.877,192.061 187.425,199.37 188.023,206.675L189.119,207.223C191.86,208.045 194.052,209.69 195.423,212.156C197.342,214.897 197.342,220.104 195.697,223.119C194.601,225.038 191.86,227.23 189.667,228.052C187.748,228.874 185.008,228.874 182.815,228.326L182.815,228.333ZM182.267,207.229C182.121,200.078 181.572,192.94 180.623,185.851L178.156,184.755C173.109,182.99 168.083,181.163 163.081,179.273C162.259,178.999 162.259,178.999 161.711,179.821L161.163,180.643L163.082,183.11C168.724,190.55 174.298,198.042 179.801,205.585C181.445,207.504 181.994,208.052 182.268,207.229L182.267,207.229ZM180.348,179.547L180.074,174.888L178.978,160.91L178.43,152.962L178.156,148.577L178.156,147.481L176.786,147.207L175.69,147.207L174.32,148.851L172.401,151.592L166.371,159.815L161.163,166.941L161.711,168.037C163.081,170.23 163.355,171.326 163.355,173.519L163.355,175.438L164.177,175.712C166.425,176.378 168.623,177.202 170.755,178.179C173.985,179.079 177.184,180.084 180.348,181.194L180.348,179.547ZM187.2,180.095C190.296,178.251 193.403,176.424 196.519,174.613L200.356,172.146L209.675,166.39C211.319,165.568 211.319,165.294 211.319,164.746C210.771,162.827 210.771,161.183 210.771,159.538L211.045,157.894L209.126,156.798C202.236,152.597 195.292,148.485 188.296,144.464L186.926,145.286L184.733,146.656C183.363,147.204 183.363,146.93 183.637,150.767L184.185,155.975L184.459,160.086L184.733,162.279L186.103,180.368L187.199,180.094L187.2,180.095ZM144.169,166.117C145.539,164.747 147.184,163.65 148.828,163.102C150.472,162.554 153.487,162.554 155.406,163.102L157.05,163.102L157.872,162.006L158.694,160.636C162.989,154.92 167.102,149.07 171.028,143.095L170.48,142.273C170.48,141.725 169.658,141.725 165.547,142.821C157.99,144.927 150.406,146.937 142.798,148.851C133.09,151.414 123.406,154.063 113.745,156.799L116.76,158.169L122.79,160.362L137.042,165.295L141.153,166.939C142.797,167.487 143.072,167.487 144.168,166.117L144.169,166.117ZM214.882,152.687C216.526,151.317 219.267,150.22 221.46,149.946C223.104,149.946 223.104,149.672 224.749,145.287C226.492,139.926 228.412,134.624 230.505,129.39L231.875,125.827L232.697,123.908L232.697,123.634L231.053,122.264C229.683,121.168 229.683,120.894 229.134,121.168C218.323,124.857 207.629,128.879 197.066,133.228L192.407,135.147L191.311,135.421L191.311,137.614L191.037,139.807L193.504,141.177L198.163,143.918C202.275,146.134 206.298,148.512 210.223,151.044L214.06,153.237L214.882,152.689L214.882,152.687ZM118.131,149.398L127.724,146.931L134.028,145.561C141.038,143.999 147.987,142.17 154.858,140.079C158.595,139.04 162.341,138.035 166.095,137.064C168.836,136.516 169.11,136.242 169.11,134.597L169.384,132.953L169.384,132.131L167.74,130.761C161.095,126.158 154.425,121.59 147.732,117.057L145.539,118.153C143.895,118.701 143.346,118.975 141.428,118.975C139.509,118.975 138.961,118.975 136.769,118.427C134.573,121.151 132.288,123.802 129.917,126.375L125.258,132.131C120.552,138.081 116.072,144.207 111.828,150.495L112.376,151.043L118.132,149.399L118.131,149.398ZM95.382,148.028C96.752,146.932 98.123,146.109 100.315,145.835C102.234,145.287 103.604,145.287 105.248,145.835L106.892,146.383L107.988,145.287L112.647,139.531L118.677,131.857C123.014,126.155 127.399,120.491 131.833,114.864L131.011,114.864C122.59,118.344 114.091,121.634 105.521,124.731L95.654,128.568C90.181,130.693 84.7,132.794 79.209,134.872L78.935,136.242L78.661,138.709L78.661,140.079L80.031,141.175L83.594,143.368L86.883,145.287L92.639,148.85C93.735,149.398 94.009,149.398 95.38,148.028L95.382,148.028ZM193.504,128.842C197.101,127.561 200.665,126.19 204.193,124.731L220.638,118.427L225.846,116.508L227.765,115.686L228.039,111.301L227.491,110.753L224.476,108.834L215.705,103.901C210.987,101.261 206.327,98.519 201.727,95.678C200.631,94.856 200.357,94.856 199.808,95.404C198.712,96.226 195.971,97.597 194.6,97.871C192.133,98.145 192.133,98.145 192.133,98.693C190.543,107.283 188.53,115.79 186.103,124.183L185.555,126.65L186.103,127.198C188.022,128.568 189.118,129.665 189.118,129.939L193.503,128.843L193.504,128.842ZM80.034,128.842L84.419,126.923C93.423,123.114 102.566,119.64 111.827,116.508L130.191,109.108L130.191,106.641L130.465,104.448L127.724,102.804C118.98,97.612 110.3,92.312 101.686,86.907L101.138,86.633L99.494,87.455C97.301,89.099 96.205,89.374 93.464,89.648L91.271,89.648L90.723,90.47L89.353,93.485L87.16,98.418L83.597,106.366C82.336,108.889 81.148,111.449 80.034,114.04C78.172,118.467 76.435,122.945 74.826,127.47C75.374,127.47 75.374,127.744 76.196,128.84C77.018,129.662 77.018,129.662 80.033,128.84L80.034,128.842ZM173.77,127.198L179.526,125.279C180.074,125.279 180.074,125.005 180.348,124.457C181.69,119.082 182.969,113.691 184.185,108.286L185.007,105.545L186.926,97.322C187.2,96.774 186.926,96.5 186.378,96.226L184.185,94.582C183.089,93.212 183.363,93.212 179.8,94.856C175.065,97.116 170.217,99.129 165.274,100.886C161.537,102.134 157.877,103.598 154.311,105.271L152.392,106.093L152.392,108.012C152.392,109.931 152.118,111.849 151.57,112.123C158.386,117.072 165.148,122.098 171.852,127.198C172.4,127.746 173.222,127.746 173.771,127.198L173.77,127.198ZM64.685,125.279L67.426,125.005L69.619,124.457L69.893,123.635L70.989,120.894L72.359,117.605C74.423,112.483 76.71,107.454 79.211,102.53L80.307,100.063C82.334,95.911 84.254,91.707 86.063,87.455C86.337,87.181 85.789,86.633 85.241,86.085L83.048,83.344L82.774,83.07C77.459,84.507 72.058,85.606 66.603,86.359L60.847,87.455L55.914,88.551L50.432,89.647C45.224,90.469 45.499,90.469 45.499,91.566C45.225,92.936 44.951,94.033 43.855,95.951L43.307,97.595L43.581,98.143L44.951,100.336L45.225,100.61L46.047,101.706L50.158,107.462C54.354,113.716 58.742,119.84 63.314,125.826L64.684,125.278L64.685,125.279ZM231.876,106.093L233.246,104.997C235.165,104.175 235.165,104.175 234.616,102.256L234.068,98.693C233.587,96.484 233.039,94.29 232.424,92.115C232.15,90.745 232.15,90.745 231.328,90.745C227.422,90.627 223.864,88.429 222.009,84.989L220.913,83.893C215.488,84.702 210.094,85.708 204.742,86.908C203.646,86.908 203.646,86.908 203.372,89.101C203.372,90.197 203.372,90.197 204.194,90.745L207.209,92.664L208.853,93.486L210.223,94.308C213.833,96.069 217.313,98.084 220.638,100.338C224.293,102.43 228.042,104.35 231.875,106.094L231.876,106.093ZM153.214,101.708C157.717,100.178 162.112,98.346 166.37,96.226C168.347,95.324 170.358,94.502 172.4,93.759L177.333,91.566L181.444,89.922L181.444,84.714L178.703,83.618L172.399,80.877C169.505,79.843 166.669,78.653 163.902,77.314L160.339,75.944C149.102,71.011 150.198,71.285 149.102,72.655C148.28,73.477 146.087,74.848 144.991,75.122L143.895,75.944C143.918,83.07 143.918,90.196 143.895,97.322L144.443,97.596C145.813,97.596 149.102,99.789 150.199,101.433C150.473,102.255 150.747,102.255 151.295,102.255L153.214,101.707L153.214,101.708ZM134.302,99.241L136.769,97.871L138.413,97.323L138.413,86.36L138.139,75.397L136.22,74.575C134.027,73.479 132.383,71.834 131.287,69.642C130.465,67.998 130.465,67.723 130.191,65.805L130.465,62.242C131.013,60.323 131.013,60.323 130.465,60.049L128.821,58.679L125.258,55.938C118.549,51.182 111.968,46.247 105.524,41.138L104.428,40.316L103.332,40.864L100.865,41.96L99.221,42.508L98.399,49.634C97.944,55.581 97.396,61.52 96.755,67.449L98.125,68.271C101.14,69.915 103.333,72.656 104.155,75.671L104.155,80.604C103.881,81.974 103.881,81.974 105.251,82.523L106.895,83.893L109.362,85.263C110.478,85.869 111.574,86.509 112.651,87.182C116.219,89.12 119.694,91.224 123.066,93.486C126.471,95.547 129.852,97.648 133.207,99.79L134.303,99.242L134.302,99.241ZM47.966,84.441C53.855,83.582 59.707,82.484 65.507,81.152C71.008,80.253 76.49,79.248 81.952,78.137L82.5,73.752L79.485,71.559C75.648,68.544 69.618,63.885 69.07,63.062C67.319,61.804 65.583,60.525 63.862,59.225L62.218,59.773C60.025,60.869 58.381,61.143 55.914,61.143L53.995,60.869L53.173,62.513L52.077,64.432L50.433,67.173C47.712,71.221 45.241,75.432 43.033,79.781L41.937,81.974L43.307,83.618C44.129,84.714 44.677,85.262 44.951,84.988L47.966,84.44L47.966,84.441ZM208.304,82.522L215.156,81.152C220.912,80.33 220.364,80.33 220.364,78.685L221.186,75.67L221.734,74.026L219.267,71.559C213.479,65.651 207.724,59.713 202,53.744L200.904,54.018L199.26,54.566L198.164,54.84L197.89,56.759C197.071,63.135 196.432,69.533 195.971,75.945C195.697,76.493 195.971,76.493 197.341,77.315L199.808,78.959C200.904,79.781 202.549,81.974 202.823,82.796C203.097,83.344 203.097,83.344 204.193,83.07L208.304,82.522ZM185.007,78.959C186.103,77.863 188.296,76.492 189.392,76.492L190.488,75.944C191.375,70.962 191.924,65.926 192.132,60.869L192.406,56.484L192.68,54.565L191.31,54.017L188.295,51.824C186.925,50.454 186.925,50.18 186.376,50.454C178.846,53.514 171.262,56.438 163.627,59.225L157.871,61.692L153.212,63.336L152.39,63.61L152.39,65.254C152.39,66.898 152.116,66.624 155.405,67.995L157.872,69.091L161.983,70.735L166.916,72.654C172.44,75.144 178.014,77.52 183.635,79.78L185.005,78.958L185.007,78.959ZM86.885,69.366C87.159,68.818 89.352,67.996 90.448,67.722C91.27,67.448 91.544,67.448 91.544,66.9C92.183,58.67 92.914,50.447 93.737,42.233C93.737,41.685 93.737,41.685 92.915,41.137C91.545,40.589 90.174,39.493 89.078,38.67L88.256,37.574L87.16,38.122L85.241,38.944C80.926,41.189 76.538,43.292 72.085,45.248L68.248,47.167L67.974,49.634L67.7,53.471C67.152,54.567 67.152,54.567 67.7,55.115C73.815,60.232 80.221,64.991 86.886,69.367L86.885,69.366ZM153.761,57.58C158.309,56.034 162.79,54.297 167.191,52.372C172.86,50.191 178.524,47.999 184.184,45.794C184.732,45.794 185.28,44.698 185.28,43.601L185.006,42.779L180.073,40.86L169.11,37.297L161.71,34.83C159.791,34.008 159.517,34.282 158.695,35.378L157.051,37.022C155.955,37.844 153.488,38.941 151.843,39.215C150.473,39.489 149.924,39.763 149.924,40.585C148.994,45.463 147.897,50.308 146.635,55.111L149.924,58.126L150.746,58.674L153.761,57.578L153.761,57.58ZM135.123,55.661C135.671,54.839 138.96,53.742 141.153,53.742L141.427,52.646L142.249,49.631C143.141,45.971 144.055,42.317 144.99,38.668C145.264,38.394 144.716,38.12 143.894,37.298C141.701,35.654 140.605,34.009 139.783,32.365L139.509,31.543L137.042,31.543C133.563,31.716 130.09,31.99 126.627,32.365L118.679,32.913L111.279,33.461L108.264,33.735L108.264,35.105L107.99,36.201L109.086,36.749C115.174,41.12 121.115,45.69 126.901,50.453C127.978,51.183 128.987,52.009 129.916,52.92L131.286,53.742C133.479,55.661 134.849,56.209 135.123,55.661Z" style="fill:rgb(25,100,81);fill-rule:nonzero;stroke:rgb(25,100,81);stroke-width:2.42px;"/>
            </g>
            <g transform="matrix(1.001186,0,0,1.074534,-0.034401,-14.354037)">
                <g transform="matrix(1,0,0,1,-29,0)">
                    <g transform="matrix(136,0,0,136,264,164.2)">
                        <path d="M0.334,-0.702C0.365,-0.702 0.391,-0.701 0.413,-0.7C0.434,-0.698 0.454,-0.696 0.473,-0.693C0.491,-0.69 0.51,-0.686 0.529,-0.681L0.519,-0.598C0.498,-0.6 0.479,-0.601 0.462,-0.602C0.444,-0.604 0.425,-0.604 0.405,-0.605C0.386,-0.606 0.362,-0.606 0.334,-0.606C0.293,-0.606 0.261,-0.598 0.237,-0.582C0.214,-0.566 0.197,-0.539 0.187,-0.501C0.177,-0.463 0.172,-0.411 0.172,-0.345C0.172,-0.279 0.177,-0.227 0.187,-0.189C0.197,-0.151 0.214,-0.124 0.237,-0.108C0.261,-0.092 0.293,-0.084 0.334,-0.084C0.378,-0.084 0.415,-0.085 0.445,-0.086C0.475,-0.088 0.504,-0.091 0.533,-0.095L0.543,-0.013C0.513,-0.004 0.483,0.002 0.452,0.006C0.42,0.01 0.381,0.012 0.334,0.012C0.267,0.012 0.212,0.001 0.172,-0.022C0.131,-0.046 0.101,-0.083 0.083,-0.135C0.065,-0.187 0.056,-0.257 0.056,-0.345C0.056,-0.433 0.065,-0.503 0.083,-0.555C0.101,-0.607 0.131,-0.644 0.172,-0.667C0.212,-0.691 0.267,-0.702 0.334,-0.702Z" style="fill-rule:nonzero;"/>
                    </g>
                    <g transform="matrix(136,0,0,136,337.306125,164.2)">
                        <path d="M0.526,-0.489L0.337,0.02C0.329,0.042 0.319,0.065 0.306,0.087C0.293,0.109 0.278,0.129 0.259,0.147C0.24,0.165 0.218,0.179 0.193,0.19C0.167,0.2 0.137,0.205 0.104,0.204L0.095,0.139C0.134,0.127 0.165,0.111 0.187,0.09C0.209,0.07 0.226,0.045 0.239,0.015L0.265,-0.047C0.271,-0.061 0.276,-0.077 0.282,-0.094C0.287,-0.112 0.292,-0.128 0.296,-0.141L0.412,-0.489L0.526,-0.489ZM0.128,-0.489L0.245,-0.141C0.248,-0.13 0.251,-0.119 0.255,-0.109C0.258,-0.098 0.26,-0.087 0.262,-0.076L0.286,-0.076L0.252,-0L0.223,-0C0.214,-0 0.207,-0.002 0.2,-0.007C0.193,-0.012 0.189,-0.019 0.186,-0.027L0.014,-0.489L0.128,-0.489Z" style="fill-rule:nonzero;"/>
                    </g>
                    <g transform="matrix(136,0,0,136,406.8765,164.2)">
                        <path d="M0.351,-0.502C0.412,-0.502 0.458,-0.482 0.486,-0.443C0.515,-0.404 0.529,-0.338 0.529,-0.247C0.529,-0.206 0.525,-0.17 0.518,-0.138C0.511,-0.106 0.5,-0.079 0.483,-0.057C0.466,-0.034 0.443,-0.017 0.414,-0.006C0.385,0.006 0.348,0.012 0.304,0.012C0.287,0.012 0.268,0.011 0.248,0.01C0.227,0.009 0.206,0.006 0.185,0.003C0.164,0 0.143,-0.004 0.124,-0.008C0.104,-0.013 0.086,-0.018 0.07,-0.024L0.155,-0.092C0.171,-0.087 0.188,-0.083 0.205,-0.08C0.222,-0.076 0.238,-0.074 0.255,-0.073C0.272,-0.072 0.287,-0.072 0.301,-0.072C0.33,-0.073 0.353,-0.078 0.37,-0.089C0.387,-0.099 0.399,-0.117 0.407,-0.143C0.415,-0.168 0.419,-0.203 0.419,-0.247C0.419,-0.289 0.416,-0.322 0.41,-0.346C0.404,-0.37 0.393,-0.388 0.377,-0.398C0.362,-0.408 0.339,-0.413 0.311,-0.413C0.286,-0.413 0.262,-0.407 0.24,-0.394C0.218,-0.382 0.193,-0.365 0.165,-0.343L0.157,-0.405C0.176,-0.425 0.196,-0.443 0.217,-0.457C0.237,-0.471 0.259,-0.482 0.282,-0.49C0.305,-0.498 0.328,-0.502 0.351,-0.502ZM0.177,-0.7L0.177,-0.525C0.177,-0.504 0.176,-0.484 0.175,-0.466C0.174,-0.447 0.17,-0.428 0.166,-0.41L0.176,-0.396L0.177,-0.019L0.07,-0.024L0.07,-0.7L0.177,-0.7Z" style="fill-rule:nonzero;"/>
                    </g>
                    <g transform="matrix(136,0,0,136,481.4385,164.2)">
                        <path d="M0.283,-0.502C0.36,-0.502 0.416,-0.488 0.45,-0.461C0.484,-0.433 0.501,-0.393 0.501,-0.339C0.502,-0.295 0.492,-0.262 0.472,-0.238C0.451,-0.214 0.418,-0.202 0.372,-0.202L0.09,-0.202L0.09,-0.274L0.343,-0.274C0.365,-0.274 0.38,-0.281 0.386,-0.294C0.393,-0.307 0.396,-0.322 0.396,-0.34C0.396,-0.369 0.387,-0.389 0.371,-0.401C0.355,-0.413 0.327,-0.419 0.288,-0.419C0.255,-0.419 0.23,-0.414 0.211,-0.405C0.192,-0.396 0.179,-0.379 0.172,-0.355C0.164,-0.331 0.161,-0.297 0.161,-0.253C0.161,-0.205 0.165,-0.168 0.174,-0.142C0.184,-0.117 0.199,-0.099 0.22,-0.09C0.241,-0.08 0.269,-0.075 0.304,-0.075C0.329,-0.075 0.357,-0.076 0.389,-0.079C0.421,-0.081 0.451,-0.084 0.479,-0.087L0.49,-0.018C0.473,-0.011 0.453,-0.005 0.43,-0.001C0.407,0.003 0.383,0.007 0.359,0.009C0.334,0.011 0.312,0.012 0.291,0.012C0.233,0.012 0.186,0.003 0.15,-0.014C0.115,-0.032 0.089,-0.059 0.073,-0.097C0.057,-0.135 0.049,-0.184 0.049,-0.245C0.049,-0.31 0.057,-0.36 0.073,-0.398C0.089,-0.435 0.115,-0.462 0.149,-0.478C0.184,-0.494 0.228,-0.502 0.283,-0.502Z" style="fill-rule:nonzero;"/>
                    </g>
                    <g transform="matrix(136,0,0,136,551.629375,164.2)">
                        <path d="M0.155,-0.489L0.168,-0.395L0.178,-0.38L0.178,-0L0.072,-0L0.072,-0.489L0.155,-0.489ZM0.395,-0.502L0.383,-0.402L0.351,-0.402C0.324,-0.402 0.297,-0.397 0.269,-0.387C0.242,-0.377 0.208,-0.363 0.167,-0.344L0.159,-0.408C0.195,-0.437 0.231,-0.46 0.267,-0.477C0.303,-0.493 0.338,-0.502 0.371,-0.502L0.395,-0.502Z" style="fill-rule:nonzero;"/>
                    </g>
                    <g transform="matrix(136,0,0,136,603.2775,164.2)">
                        <path d="M0.752,-0.69C0.78,-0.69 0.794,-0.675 0.794,-0.646L0.823,-0L0.716,-0L0.692,-0.602L0.672,-0.602L0.533,-0.12C0.527,-0.096 0.512,-0.084 0.487,-0.084L0.402,-0.084C0.377,-0.084 0.361,-0.096 0.355,-0.12L0.216,-0.602L0.197,-0.602L0.174,-0L0.067,-0L0.094,-0.646C0.095,-0.675 0.11,-0.69 0.138,-0.69L0.252,-0.69C0.276,-0.69 0.291,-0.678 0.297,-0.654L0.413,-0.258C0.417,-0.242 0.422,-0.227 0.425,-0.211C0.428,-0.195 0.432,-0.179 0.436,-0.163L0.453,-0.163C0.457,-0.179 0.461,-0.195 0.464,-0.211C0.468,-0.227 0.472,-0.243 0.476,-0.26L0.591,-0.654C0.597,-0.678 0.612,-0.69 0.637,-0.69L0.752,-0.69Z" style="fill-rule:nonzero;"/>
                    </g>
                    <g transform="matrix(136,0,0,136,720.222625,164.2)">
                        <path d="M0.283,-0.502C0.36,-0.502 0.416,-0.488 0.45,-0.461C0.484,-0.433 0.501,-0.393 0.501,-0.339C0.502,-0.295 0.492,-0.262 0.472,-0.238C0.451,-0.214 0.418,-0.202 0.372,-0.202L0.09,-0.202L0.09,-0.274L0.343,-0.274C0.365,-0.274 0.38,-0.281 0.386,-0.294C0.393,-0.307 0.396,-0.322 0.396,-0.34C0.396,-0.369 0.387,-0.389 0.371,-0.401C0.355,-0.413 0.327,-0.419 0.288,-0.419C0.255,-0.419 0.23,-0.414 0.211,-0.405C0.192,-0.396 0.179,-0.379 0.172,-0.355C0.164,-0.331 0.161,-0.297 0.161,-0.253C0.161,-0.205 0.165,-0.168 0.174,-0.142C0.184,-0.117 0.199,-0.099 0.22,-0.09C0.241,-0.08 0.269,-0.075 0.304,-0.075C0.329,-0.075 0.357,-0.076 0.389,-0.079C0.421,-0.081 0.451,-0.084 0.479,-0.087L0.49,-0.018C0.473,-0.011 0.453,-0.005 0.43,-0.001C0.407,0.003 0.383,0.007 0.359,0.009C0.334,0.011 0.312,0.012 0.291,0.012C0.233,0.012 0.186,0.003 0.15,-0.014C0.115,-0.032 0.089,-0.059 0.073,-0.097C0.057,-0.135 0.049,-0.184 0.049,-0.245C0.049,-0.31 0.057,-0.36 0.073,-0.398C0.089,-0.435 0.115,-0.462 0.149,-0.478C0.184,-0.494 0.228,-0.502 0.283,-0.502Z" style="fill-rule:nonzero;"/>
                    </g>
                    <g transform="matrix(136,0,0,136,790.4135,164.2)">
                        <path d="M0.676,-0.502C0.719,-0.502 0.752,-0.49 0.775,-0.467C0.797,-0.444 0.809,-0.411 0.809,-0.367L0.809,-0L0.703,-0L0.703,-0.335C0.703,-0.362 0.697,-0.381 0.687,-0.393C0.677,-0.405 0.659,-0.412 0.634,-0.412C0.619,-0.412 0.604,-0.409 0.59,-0.404C0.576,-0.4 0.561,-0.392 0.544,-0.382C0.527,-0.371 0.506,-0.357 0.481,-0.34L0.475,-0.408C0.51,-0.439 0.543,-0.463 0.576,-0.478C0.608,-0.494 0.642,-0.502 0.676,-0.502ZM0.158,-0.489L0.167,-0.395L0.178,-0.38L0.178,-0L0.072,-0L0.072,-0.489L0.158,-0.489ZM0.361,-0.502C0.403,-0.502 0.435,-0.49 0.458,-0.468C0.48,-0.445 0.491,-0.411 0.492,-0.367L0.492,-0L0.389,-0L0.389,-0.335C0.389,-0.363 0.384,-0.383 0.372,-0.394C0.361,-0.406 0.344,-0.412 0.321,-0.412C0.306,-0.412 0.291,-0.409 0.277,-0.405C0.263,-0.4 0.247,-0.393 0.23,-0.382C0.213,-0.372 0.191,-0.358 0.166,-0.34L0.159,-0.408C0.194,-0.439 0.227,-0.463 0.259,-0.478C0.292,-0.494 0.326,-0.502 0.361,-0.502Z" style="fill-rule:nonzero;"/>
                    </g>
                    <g transform="matrix(136,0,0,136,909.759875,164.2)">
                    </g>
                </g>
            </g>
        </g>
    </g>
</svg>
