<?xml version="1.0" encoding="UTF-8" standalone="no"?><!DOCTYPE svg PUBLIC "-//W3C//DTD SVG 1.1//EN" "http://www.w3.org/Graphics/SVG/1.1/DTD/svg11.dtd"><svg width="100%" height="100%" viewBox="0 0 843 161" version="1.1" xmlns="http://www.w3.org/2000/svg" xmlns:xlink="http://www.w3.org/1999/xlink" xml:space="preserve" xmlns:serif="http://www.serif.com/" style="fill-rule:evenodd;clip-rule:evenodd;stroke-linejoin:round;stroke-miterlimit:2;"><rect id="Artboard1" x="0" y="0" width="843" height="161" style="fill:none;"/><clipPath id="_clip1"><rect x="0" y="0" width="843" height="161"/></clipPath><g clip-path="url(#_clip1)"><g><path d="M118.146,161.219c-1.454,-0.623 -2.284,-1.038 -3.529,-2.284c-2.665,-2.623 -3.183,-6.767 -1.245,-9.965l0.415,-0.83c-4.931,-6.923 -10.054,-13.708 -15.363,-20.346l-1.038,0c-2.284,0.623 -3.945,0.415 -6.02,-0.623c-2.906,-1.245 -4.568,-3.737 -4.775,-6.851l0,-1.454l-2.284,-0.83c-6.004,-2.122 -12.026,-4.199 -18.062,-6.229c-1.661,-0.623 -1.869,-0.623 -2.491,0.415c-0.83,0.83 -1.454,1.454 -2.699,2.076c-3.322,1.869 -7.266,1.038 -9.965,-1.661c-1.245,-1.245 -1.661,-2.076 -2.076,-3.529c-0.415,-1.454 -0.415,-2.491 0,-3.945l0.208,-1.245l-1.869,-1.038l-2.906,-1.661l-2.284,-1.454c-1.392,-0.817 -2.776,-1.647 -4.152,-2.491l-0.623,-0.208l-0.623,0.623c-1.038,0.83 -2.699,1.661 -3.945,1.869l-2.491,0.208c-2.491,-0.208 -4.775,-1.661 -6.436,-3.945c-1.038,-1.454 -1.661,-4.36 -1.245,-6.229c0.208,-1.038 1.038,-2.491 1.245,-2.906c0.415,-0.208 0.415,-0.623 0,-0.83l-1.038,-1.454l-3.737,-5.605c-2.164,-3.267 -4.449,-6.453 -6.851,-9.55l-1.661,-2.491c-1.661,-2.491 -1.661,-2.284 -2.491,-2.076c-1.038,0.415 -3.529,0.208 -4.568,0c-4.234,-1.293 -6.846,-5.616 -6.02,-9.965c1.038,-3.114 3.114,-5.19 6.436,-6.229c1.454,-0.415 1.454,-0.415 3.114,-0.208c0.623,0.208 0.623,0.208 0.83,-0.208l0.415,-1.038c0.501,-0.68 0.986,-1.372 1.454,-2.076c1.154,-2.612 2.544,-5.114 4.152,-7.474l0.623,-1.038l0.623,-1.245c0.306,-0.512 0.653,-0.998 1.038,-1.454l0.415,-0.623c0.415,-0.83 0.415,-1.245 0,-1.454c-0.623,-0.623 -1.661,-2.699 -1.869,-4.36l0,-2.699c0.623,-2.906 2.491,-5.19 5.398,-6.229c1.454,-0.415 2.699,-0.623 4.152,-0.208c1.661,0.208 3.322,1.038 4.568,2.284c0.83,0.83 1.038,0.83 1.454,0.83l1.245,-0.623l0.208,-0.208l3.529,-1.454c2.403,-1.416 4.899,-2.665 7.474,-3.737l1.869,-0.83l0.623,-0.415l-0.208,-1.869c0,-2.076 0.208,-2.906 1.454,-4.775c1.038,-1.661 2.491,-2.906 4.36,-3.529c1.245,-0.415 4.36,-0.415 5.605,0.208c1.869,0.623 4.152,3.114 4.775,4.775l0.208,0.623l1.869,-0.208l4.152,0c5.878,-0.473 11.76,-0.888 17.647,-1.245c0.208,0 0.415,-0.208 0.415,-0.623c0,-0.623 0.83,-2.284 1.245,-2.906l3.114,-2.284c1.245,-0.623 2.284,-0.83 3.945,-0.623c1.661,0 1.661,0 3.114,0.623c2.906,1.661 4.775,4.36 4.775,7.474l0,0.623l2.076,0.623l8.719,2.906l7.059,2.284l1.661,0.623l1.038,-1.038c1.245,-1.245 1.869,-1.661 3.529,-2.284c1.245,-0.208 3.322,-0.415 4.568,0c2.284,0.415 4.775,2.699 5.813,5.19c0.415,1.038 0.415,1.245 0.415,3.114c0,1.661 0,2.076 -0.415,3.114l-0.415,1.245l0.623,0.623l12.664,13.079l1.869,1.869l1.038,-0.623c2.284,-1.038 4.36,-0.83 6.644,0.208c2.906,1.661 4.568,4.152 4.568,7.474c0,3.114 -1.454,5.605 -3.737,7.059l-1.245,0.623l2.076,8.719l0.415,1.245l1.038,0.208c4.193,0.457 7.405,4.038 7.405,8.256c0,2.197 -0.872,4.306 -2.422,5.862l-1.245,1.245c-0.83,0.623 -2.699,1.245 -3.737,1.245l-1.454,0c-0.623,0.208 -0.415,-0.208 -2.491,5.813c-0.895,2.588 -1.864,5.149 -2.906,7.681l-2.076,5.398l-0.208,1.038l0.83,1.038c1.681,1.569 2.636,3.769 2.636,6.069c0,4.22 -3.216,7.802 -7.411,8.256c-1.869,0.208 -4.568,-0.415 -6.436,-1.869l-0.83,-0.415l-2.284,1.245c-2.1,1.388 -4.246,2.703 -6.436,3.945c-2.869,1.488 -5.642,3.152 -8.304,4.983l-1.245,0.83l-1.661,0.623l-0.623,0.415c0.377,5.539 0.792,11.076 1.245,16.609l0.83,0.415c2.076,0.623 3.737,1.869 4.775,3.737c1.454,2.076 1.454,6.02 0.208,8.304c-0.83,1.454 -2.906,3.114 -4.568,3.737c-1.454,0.623 -3.529,0.623 -5.19,0.208l0,0.005Zm-0.415,-15.986c-0.111,-5.417 -0.526,-10.823 -1.245,-16.193l-1.869,-0.83c-3.823,-1.337 -7.63,-2.721 -11.419,-4.152c-0.623,-0.208 -0.623,-0.208 -1.038,0.415l-0.415,0.623l1.454,1.869c4.274,5.636 8.496,11.311 12.664,17.024c1.245,1.454 1.661,1.869 1.869,1.245l-0.001,-0Zm-1.454,-20.968l-0.208,-3.529l-0.83,-10.588l-0.415,-6.02l-0.208,-3.322l0,-0.83l-1.038,-0.208l-0.83,0l-1.038,1.245l-1.454,2.076l-4.568,6.229l-3.945,5.398l0.415,0.83c1.038,1.661 1.245,2.491 1.245,4.152l0,1.454l0.623,0.208c1.703,0.504 3.368,1.129 4.983,1.869c2.447,0.682 4.87,1.443 7.266,2.284l0,-1.248Zm5.19,0.415c2.345,-1.397 4.699,-2.781 7.059,-4.152l2.906,-1.869l7.059,-4.36c1.245,-0.623 1.245,-0.83 1.245,-1.245c-0.415,-1.454 -0.415,-2.699 -0.415,-3.945l0.208,-1.245l-1.454,-0.83c-5.219,-3.182 -10.479,-6.297 -15.778,-9.343l-1.038,0.623l-1.661,1.038c-1.038,0.415 -1.038,0.208 -0.83,3.114l0.415,3.945l0.208,3.114l0.208,1.661l1.038,13.702l0.83,-0.208l0.001,0.001Zm-32.595,-10.588c1.038,-1.038 2.284,-1.869 3.529,-2.284c1.245,-0.415 3.529,-0.415 4.983,0l1.245,0l0.623,-0.83l0.623,-1.038c3.253,-4.33 6.369,-8.761 9.343,-13.287l-0.415,-0.623c0,-0.415 -0.623,-0.415 -3.737,0.415c-5.724,1.595 -11.469,3.118 -17.232,4.568c-7.354,1.941 -14.689,3.948 -22.007,6.02l2.284,1.038l4.568,1.661l10.795,3.737l3.114,1.245c1.245,0.415 1.454,0.415 2.284,-0.623l0.001,-0Zm53.563,-10.173c1.245,-1.038 3.322,-1.869 4.983,-2.076c1.245,0 1.245,-0.208 2.491,-3.529c1.32,-4.061 2.775,-8.077 4.36,-12.041l1.038,-2.699l0.623,-1.454l0,-0.208l-1.245,-1.038c-1.038,-0.83 -1.038,-1.038 -1.454,-0.83c-8.189,2.794 -16.289,5.841 -24.291,9.135l-3.529,1.454l-0.83,0.208l0,1.661l-0.208,1.661l1.869,1.038l3.529,2.076c3.115,1.679 6.162,3.48 9.135,5.398l2.906,1.661l0.623,-0.415l0,-0.002Zm-73.286,-2.491l7.266,-1.869l4.775,-1.038c5.31,-1.183 10.574,-2.569 15.778,-4.152c2.831,-0.787 5.668,-1.548 8.512,-2.284c2.076,-0.415 2.284,-0.623 2.284,-1.869l0.208,-1.245l0,-0.623l-1.245,-1.038c-5.033,-3.487 -10.086,-6.947 -15.155,-10.38l-1.661,0.83c-1.245,0.415 -1.661,0.623 -3.114,0.623c-1.454,0 -1.869,0 -3.529,-0.415c-1.663,2.063 -3.394,4.071 -5.19,6.02l-3.529,4.36c-3.565,4.507 -6.958,9.147 -10.173,13.91l0.415,0.415l4.36,-1.245l-0.001,-0.001Zm-17.232,-1.038c1.038,-0.83 2.076,-1.454 3.737,-1.661c1.454,-0.415 2.491,-0.415 3.737,0l1.245,0.415l0.83,-0.83l3.529,-4.36l4.568,-5.813c3.285,-4.319 6.607,-8.609 9.965,-12.872l-0.623,0c-6.379,2.636 -12.816,5.128 -19.308,7.474l-7.474,2.906c-4.146,1.61 -8.297,3.201 -12.457,4.775l-0.208,1.038l-0.208,1.869l0,1.038l1.038,0.83l2.699,1.661l2.491,1.454l4.36,2.699c0.83,0.415 1.038,0.415 2.076,-0.623l0.002,-0Zm74.324,-14.533c2.725,-0.97 5.424,-2.009 8.097,-3.114l12.457,-4.775l3.945,-1.454l1.454,-0.623l0.208,-3.322l-0.415,-0.415l-2.284,-1.454l-6.644,-3.737c-3.574,-2 -7.104,-4.077 -10.588,-6.229c-0.83,-0.623 -1.038,-0.623 -1.454,-0.208c-0.83,0.623 -2.906,1.661 -3.945,1.869c-1.869,0.208 -1.869,0.208 -1.869,0.623c-1.204,6.507 -2.729,12.95 -4.568,19.308l-0.415,1.869l0.415,0.415c1.454,1.038 2.284,1.869 2.284,2.076l3.322,-0.83l0.001,-0.001Zm-85.95,0l3.322,-1.454c6.82,-2.885 13.746,-5.517 20.761,-7.889l13.91,-5.605l0,-1.869l0.208,-1.661l-2.076,-1.245c-6.623,-3.933 -13.198,-7.947 -19.723,-12.041l-0.415,-0.208l-1.245,0.623c-1.661,1.245 -2.491,1.454 -4.568,1.661l-1.661,0l-0.415,0.623l-1.038,2.284l-1.661,3.737l-2.699,6.02c-0.955,1.911 -1.855,3.85 -2.699,5.813c-1.41,3.353 -2.726,6.745 -3.945,10.173c0.415,0 0.415,0.208 1.038,1.038c0.623,0.623 0.623,0.623 2.906,0l0.001,0.002Zm71.002,-1.245l4.36,-1.454c0.415,0 0.415,-0.208 0.623,-0.623c1.017,-4.071 1.985,-8.155 2.906,-12.249l0.623,-2.076l1.454,-6.229c0.208,-0.415 0,-0.623 -0.415,-0.83l-1.661,-1.245c-0.83,-1.038 -0.623,-1.038 -3.322,0.208c-3.587,1.712 -7.259,3.237 -11.003,4.568c-2.831,0.945 -5.603,2.054 -8.304,3.322l-1.454,0.623l0,1.454c0,1.454 -0.208,2.906 -0.623,3.114c5.163,3.749 10.285,7.556 15.363,11.419c0.415,0.415 1.038,0.415 1.454,0l-0.001,0Zm-82.629,-1.454l2.076,-0.208l1.661,-0.415l0.208,-0.623l0.83,-2.076l1.038,-2.491c1.563,-3.88 3.296,-7.689 5.19,-11.419l0.83,-1.869c1.535,-3.145 2.99,-6.329 4.36,-9.55c0.208,-0.208 -0.208,-0.623 -0.623,-1.038l-1.661,-2.076l-0.208,-0.208c-4.026,1.088 -8.117,1.921 -12.249,2.491l-4.36,0.83l-3.737,0.83l-4.152,0.83c-3.945,0.623 -3.737,0.623 -3.737,1.454c-0.208,1.038 -0.415,1.869 -1.245,3.322l-0.415,1.245l0.208,0.415l1.038,1.661l0.208,0.208l0.623,0.83l3.114,4.36c3.178,4.737 6.502,9.376 9.965,13.91l1.038,-0.415l0.001,0.001Zm126.642,-14.533l1.038,-0.83c1.454,-0.623 1.454,-0.623 1.038,-2.076l-0.415,-2.699c-0.364,-1.673 -0.779,-3.335 -1.245,-4.983c-0.208,-1.038 -0.208,-1.038 -0.83,-1.038c-2.959,-0.089 -5.654,-1.754 -7.059,-4.36l-0.83,-0.83c-4.109,0.613 -8.195,1.375 -12.249,2.284c-0.83,0 -0.83,0 -1.038,1.661c0,0.83 0,0.83 0.623,1.245l2.284,1.454l1.245,0.623l1.038,0.623c2.734,1.334 5.37,2.86 7.889,4.568c2.769,1.585 5.608,3.039 8.512,4.36l0.001,-0.001Zm-59.584,-3.322c3.411,-1.159 6.74,-2.547 9.965,-4.152c1.498,-0.683 3.021,-1.306 4.568,-1.869l3.737,-1.661l3.114,-1.245l0,-3.945l-2.076,-0.83l-4.775,-2.076c-2.192,-0.783 -4.34,-1.685 -6.436,-2.699l-2.699,-1.038c-8.512,-3.737 -7.681,-3.529 -8.512,-2.491c-0.623,0.623 -2.284,1.661 -3.114,1.869l-0.83,0.623c0.017,5.398 0.017,10.795 0,16.193l0.415,0.208c1.038,0 3.529,1.661 4.36,2.906c0.208,0.623 0.415,0.623 0.83,0.623l1.454,-0.415l0,0.001Zm-14.325,-1.869l1.869,-1.038l1.245,-0.415l0,-8.304l-0.208,-8.304l-1.454,-0.623c-1.661,-0.83 -2.906,-2.076 -3.737,-3.737c-0.623,-1.245 -0.623,-1.454 -0.83,-2.906l0.208,-2.699c0.415,-1.454 0.415,-1.454 0,-1.661l-1.245,-1.038l-2.699,-2.076c-5.082,-3.603 -10.067,-7.341 -14.948,-11.211l-0.83,-0.623l-0.83,0.415l-1.869,0.83l-1.245,0.415l-0.623,5.398c-0.345,4.505 -0.76,9.003 -1.245,13.494l1.038,0.623c2.284,1.245 3.945,3.322 4.568,5.605l0,3.737c-0.208,1.038 -0.208,1.038 0.83,1.454l1.245,1.038l1.869,1.038c0.845,0.459 1.676,0.944 2.491,1.454c2.703,1.468 5.335,3.062 7.889,4.775c2.579,1.561 5.14,3.153 7.681,4.775l0.83,-0.415l-0.001,-0.001Zm-65.397,-11.211c4.461,-0.651 8.893,-1.482 13.287,-2.491c4.167,-0.681 8.319,-1.442 12.457,-2.284l0.415,-3.322l-2.284,-1.661c-2.906,-2.284 -7.474,-5.813 -7.889,-6.436c-1.326,-0.953 -2.641,-1.922 -3.945,-2.906l-1.245,0.415c-1.661,0.83 -2.906,1.038 -4.775,1.038l-1.454,-0.208l-0.623,1.245l-0.83,1.454l-1.245,2.076c-2.061,3.066 -3.933,6.256 -5.605,9.55l-0.83,1.661l1.038,1.245c0.623,0.83 1.038,1.245 1.245,1.038l2.284,-0.415l0,0.001Zm121.451,-1.454l5.19,-1.038c4.36,-0.623 3.945,-0.623 3.945,-1.869l0.623,-2.284l0.415,-1.245l-1.869,-1.869c-4.384,-4.475 -8.743,-8.973 -13.079,-13.494l-0.83,0.208l-1.245,0.415l-0.83,0.208l-0.208,1.454c-0.62,4.83 -1.104,9.676 -1.454,14.533c-0.208,0.415 0,0.415 1.038,1.038l1.869,1.245c0.83,0.623 2.076,2.284 2.284,2.906c0.208,0.415 0.208,0.415 1.038,0.208l3.114,-0.415Zm-17.647,-2.699c0.83,-0.83 2.491,-1.869 3.322,-1.869l0.83,-0.415c0.672,-3.774 1.088,-7.588 1.245,-11.419l0.208,-3.322l0.208,-1.454l-1.038,-0.415l-2.284,-1.661c-1.038,-1.038 -1.038,-1.245 -1.454,-1.038c-5.704,2.318 -11.448,4.533 -17.232,6.644l-4.36,1.869l-3.529,1.245l-0.623,0.208l0,1.245c0,1.245 -0.208,1.038 2.284,2.076l1.869,0.83l3.114,1.245l3.737,1.454c4.184,1.886 8.406,3.686 12.664,5.398l1.038,-0.623l0.002,0.001Zm-74.324,-7.266c0.208,-0.415 1.869,-1.038 2.699,-1.245c0.623,-0.208 0.83,-0.208 0.83,-0.623c0.484,-6.234 1.038,-12.463 1.661,-18.685c0,-0.415 0,-0.415 -0.623,-0.83c-1.038,-0.415 -2.076,-1.245 -2.906,-1.869l-0.623,-0.83l-0.83,0.415l-1.454,0.623c-3.268,1.701 -6.592,3.293 -9.965,4.775l-2.906,1.454l-0.208,1.869l-0.208,2.906c-0.415,0.83 -0.415,0.83 0,1.245c4.632,3.876 9.484,7.481 14.533,10.795l-0.001,-0.001Zm50.657,-8.928c3.445,-1.171 6.839,-2.487 10.173,-3.945c4.294,-1.652 8.584,-3.312 12.872,-4.983c0.415,0 0.83,-0.83 0.83,-1.661l-0.208,-0.623l-3.737,-1.454l-8.304,-2.699l-5.605,-1.869c-1.454,-0.623 -1.661,-0.415 -2.284,0.415l-1.245,1.245c-0.83,0.623 -2.699,1.454 -3.945,1.661c-1.038,0.208 -1.454,0.415 -1.454,1.038c-0.704,3.695 -1.535,7.365 -2.491,11.003l2.491,2.284l0.623,0.415l2.284,-0.83l0,0.002Zm-14.118,-1.454c0.415,-0.623 2.906,-1.454 4.568,-1.454l0.208,-0.83l0.623,-2.284c0.676,-2.772 1.368,-5.54 2.076,-8.304c0.208,-0.208 -0.208,-0.415 -0.83,-1.038c-1.661,-1.245 -2.491,-2.491 -3.114,-3.737l-0.208,-0.623l-1.869,0c-2.635,0.131 -5.266,0.339 -7.889,0.623l-6.02,0.415l-5.605,0.415l-2.284,0.208l0,1.038l-0.208,0.83l0.83,0.415c4.611,3.311 9.112,6.773 13.494,10.38c0.816,0.553 1.58,1.179 2.284,1.869l1.038,0.623c1.661,1.454 2.699,1.869 2.906,1.454Z" style="fill:#196451;fill-rule:nonzero;stroke:#196451;stroke-width:1.83px;"/></g><g><g transform="matrix(136,0,0,136,206,119.2)"><path d="M0.334,-0.702c0.03,0 0.057,0.001 0.078,0.002c0.022,0.001 0.042,0.004 0.06,0.007c0.018,0.003 0.037,0.007 0.056,0.012l-0.01,0.083c-0.021,-0.002 -0.04,-0.003 -0.057,-0.004c-0.018,-0.001 -0.036,-0.002 -0.056,-0.003c-0.02,-0.001 -0.044,-0.001 -0.071,-0.001c-0.041,0 -0.073,0.008 -0.097,0.024c-0.024,0.016 -0.04,0.043 -0.05,0.081c-0.01,0.038 -0.015,0.09 -0.015,0.156c0,0.066 0.005,0.118 0.015,0.156c0.01,0.038 0.027,0.065 0.05,0.081c0.024,0.016 0.056,0.024 0.097,0.024c0.044,0 0.081,-0.001 0.111,-0.002c0.03,-0.002 0.059,-0.004 0.088,-0.008l0.01,0.082c-0.03,0.009 -0.06,0.015 -0.092,0.019c-0.031,0.004 -0.07,0.006 -0.117,0.006c-0.068,0 -0.122,-0.011 -0.163,-0.035c-0.041,-0.023 -0.07,-0.06 -0.088,-0.113c-0.018,-0.052 -0.027,-0.122 -0.027,-0.21c-0,-0.088 0.009,-0.158 0.027,-0.21c0.018,-0.052 0.048,-0.089 0.088,-0.112c0.041,-0.023 0.095,-0.035 0.163,-0.035Z" style="fill-rule:nonzero;"/></g><g transform="matrix(136,0,0,136,279.306125,119.2)"><path d="M0.526,-0.489l-0.189,0.509c-0.008,0.022 -0.019,0.045 -0.031,0.067c-0.013,0.022 -0.028,0.042 -0.047,0.06c-0.019,0.018 -0.041,0.032 -0.066,0.043c-0.026,0.01 -0.055,0.015 -0.089,0.015l-0.009,-0.066c0.04,-0.012 0.07,-0.028 0.092,-0.048c0.022,-0.02 0.039,-0.045 0.052,-0.076l0.026,-0.062c0.006,-0.014 0.011,-0.03 0.017,-0.047c0.005,-0.018 0.01,-0.033 0.015,-0.047l0.115,-0.348l0.115,0Zm-0.398,0l0.117,0.348c0.003,0.011 0.006,0.022 0.009,0.033c0.003,0.011 0.006,0.022 0.008,0.033l0.024,0l-0.034,0.076l-0.029,-0c-0.008,-0 -0.016,-0.002 -0.022,-0.007c-0.007,-0.005 -0.011,-0.011 -0.014,-0.019l-0.172,-0.463l0.114,0Z" style="fill-rule:nonzero;"/></g><g transform="matrix(136,0,0,136,348.8765,119.2)"><path d="M0.351,-0.502c0.062,0 0.107,0.02 0.135,0.059c0.029,0.039 0.043,0.105 0.043,0.196c0,0.041 -0.004,0.077 -0.011,0.109c-0.007,0.032 -0.019,0.059 -0.036,0.081c-0.017,0.022 -0.04,0.039 -0.069,0.051c-0.029,0.012 -0.066,0.018 -0.11,0.018c-0.017,0 -0.036,-0.001 -0.056,-0.002c-0.02,-0.001 -0.041,-0.004 -0.063,-0.007c-0.021,-0.003 -0.042,-0.007 -0.062,-0.011c-0.02,-0.005 -0.038,-0.01 -0.053,-0.016l0.085,-0.067c0.016,0.005 0.033,0.009 0.049,0.012c0.017,0.003 0.034,0.005 0.05,0.006c0.017,0.001 0.032,0.001 0.046,0.001c0.028,-0.001 0.051,-0.006 0.068,-0.017c0.017,-0.011 0.03,-0.028 0.037,-0.054c0.008,-0.025 0.012,-0.06 0.012,-0.104c0,-0.042 -0.003,-0.075 -0.009,-0.099c-0.006,-0.024 -0.017,-0.042 -0.033,-0.052c-0.016,-0.01 -0.038,-0.015 -0.066,-0.015c-0.025,0 -0.049,0.006 -0.071,0.019c-0.022,0.013 -0.047,0.03 -0.075,0.051l-0.008,-0.061c0.019,-0.02 0.039,-0.038 0.059,-0.052c0.021,-0.014 0.042,-0.025 0.065,-0.033c0.023,-0.008 0.046,-0.012 0.069,-0.012Zm-0.174,-0.198l0,0.175c0,0.021 -0.001,0.041 -0.002,0.06c-0.001,0.019 -0.005,0.037 -0.009,0.056l0.01,0.014l0.001,0.377l-0.106,-0.005l0,-0.676l0.106,0Z" style="fill-rule:nonzero;"/></g><g transform="matrix(136,0,0,136,423.4385,119.2)"><path d="M0.283,-0.502c0.077,0 0.132,0.014 0.166,0.041c0.034,0.027 0.051,0.068 0.051,0.121c0.001,0.044 -0.009,0.078 -0.029,0.101c-0.02,0.024 -0.054,0.036 -0.1,0.036l-0.281,0l-0,-0.072l0.253,0c0.022,0 0.036,-0.007 0.043,-0.02c0.007,-0.013 0.01,-0.029 0.01,-0.046c-0.001,-0.029 -0.009,-0.049 -0.025,-0.061c-0.016,-0.012 -0.044,-0.018 -0.083,-0.018c-0.033,-0 -0.058,0.005 -0.077,0.014c-0.019,0.009 -0.032,0.026 -0.039,0.05c-0.008,0.024 -0.011,0.058 -0.011,0.102c0,0.048 0.005,0.085 0.014,0.111c0.009,0.026 0.024,0.043 0.045,0.053c0.021,0.01 0.049,0.014 0.084,0.014c0.025,0 0.053,-0.001 0.085,-0.003c0.032,-0.002 0.062,-0.005 0.09,-0.009l0.011,0.069c-0.017,0.007 -0.037,0.013 -0.06,0.017c-0.023,0.004 -0.047,0.008 -0.071,0.01c-0.024,0.002 -0.047,0.003 -0.068,0.003c-0.058,0 -0.105,-0.009 -0.14,-0.026c-0.035,-0.017 -0.061,-0.045 -0.077,-0.083c-0.016,-0.038 -0.024,-0.087 -0.024,-0.148c0,-0.064 0.008,-0.115 0.024,-0.153c0.016,-0.037 0.042,-0.064 0.076,-0.08c0.034,-0.016 0.079,-0.024 0.134,-0.024Z" style="fill-rule:nonzero;"/></g><g transform="matrix(136,0,0,136,493.629375,119.2)"><path d="M0.155,-0.489l0.014,0.095l0.01,0.014l0,0.38l-0.106,-0l0,-0.489l0.083,0Zm0.24,-0.012l-0.011,0.099l-0.032,0c-0.027,0 -0.054,0.005 -0.082,0.015c-0.028,0.01 -0.062,0.024 -0.102,0.043l-0.008,-0.063c0.035,-0.03 0.071,-0.053 0.107,-0.069c0.036,-0.016 0.071,-0.025 0.105,-0.025l0.023,0Z" style="fill-rule:nonzero;"/></g><g transform="matrix(136,0,0,136,545.2775,119.2)"><path d="M0.752,-0.69c0.028,0 0.043,0.015 0.043,0.044l0.028,0.646l-0.106,-0l-0.024,-0.602l-0.02,0l-0.139,0.482c-0.006,0.024 -0.021,0.036 -0.046,0.036l-0.085,0c-0.025,0 -0.041,-0.012 -0.047,-0.036l-0.139,-0.482l-0.019,0l-0.023,0.602l-0.106,-0l0.026,-0.646c0.001,-0.029 0.016,-0.044 0.044,-0.044l0.115,0c0.023,0 0.038,0.012 0.045,0.036l0.115,0.396c0.005,0.016 0.009,0.031 0.012,0.047c0.003,0.016 0.007,0.032 0.011,0.048l0.016,0c0.004,-0.016 0.008,-0.032 0.012,-0.048c0.004,-0.016 0.008,-0.032 0.012,-0.049l0.115,-0.394c0.006,-0.024 0.021,-0.036 0.046,-0.036l0.115,0Z" style="fill-rule:nonzero;"/></g><g transform="matrix(136,0,0,136,662.222625,119.2)"><path d="M0.283,-0.502c0.077,0 0.132,0.014 0.166,0.041c0.034,0.027 0.051,0.068 0.051,0.121c0.001,0.044 -0.009,0.078 -0.029,0.101c-0.02,0.024 -0.054,0.036 -0.1,0.036l-0.281,0l-0,-0.072l0.253,0c0.022,0 0.036,-0.007 0.043,-0.02c0.007,-0.013 0.01,-0.029 0.01,-0.046c-0.001,-0.029 -0.009,-0.049 -0.025,-0.061c-0.016,-0.012 -0.044,-0.018 -0.083,-0.018c-0.033,-0 -0.058,0.005 -0.077,0.014c-0.019,0.009 -0.032,0.026 -0.039,0.05c-0.008,0.024 -0.011,0.058 -0.011,0.102c0,0.048 0.005,0.085 0.014,0.111c0.009,0.026 0.024,0.043 0.045,0.053c0.021,0.01 0.049,0.014 0.084,0.014c0.025,0 0.053,-0.001 0.085,-0.003c0.032,-0.002 0.062,-0.005 0.09,-0.009l0.011,0.069c-0.017,0.007 -0.037,0.013 -0.06,0.017c-0.023,0.004 -0.047,0.008 -0.071,0.01c-0.024,0.002 -0.047,0.003 -0.068,0.003c-0.058,0 -0.105,-0.009 -0.14,-0.026c-0.035,-0.017 -0.061,-0.045 -0.077,-0.083c-0.016,-0.038 -0.024,-0.087 -0.024,-0.148c0,-0.064 0.008,-0.115 0.024,-0.153c0.016,-0.037 0.042,-0.064 0.076,-0.08c0.034,-0.016 0.079,-0.024 0.134,-0.024Z" style="fill-rule:nonzero;"/></g><g transform="matrix(136,0,0,136,732.4135,119.2)"><path d="M0.676,-0.502c0.043,0 0.076,0.011 0.098,0.034c0.023,0.023 0.034,0.056 0.034,0.101l0,0.367l-0.105,-0l0,-0.335c-0.001,-0.027 -0.006,-0.046 -0.016,-0.058c-0.01,-0.012 -0.028,-0.018 -0.052,-0.018c-0.015,-0 -0.03,0.002 -0.044,0.007c-0.014,0.005 -0.03,0.012 -0.047,0.023c-0.017,0.01 -0.038,0.024 -0.062,0.041l-0.006,-0.067c0.034,-0.031 0.068,-0.055 0.1,-0.07c0.032,-0.016 0.066,-0.023 0.101,-0.023Zm-0.518,0.012l0.009,0.095l0.011,0.014l0,0.38l-0.106,-0l0,-0.489l0.086,0Zm0.203,-0.012c0.042,0 0.074,0.011 0.097,0.034c0.022,0.023 0.034,0.056 0.034,0.101l0,0.367l-0.103,-0l0,-0.335c0,-0.028 -0.006,-0.048 -0.017,-0.059c-0.011,-0.012 -0.029,-0.017 -0.052,-0.017c-0.015,-0 -0.029,0.002 -0.043,0.007c-0.014,0.005 -0.03,0.012 -0.047,0.022c-0.017,0.01 -0.039,0.024 -0.064,0.042l-0.007,-0.067c0.034,-0.031 0.068,-0.055 0.1,-0.07c0.032,-0.016 0.066,-0.023 0.101,-0.023Z" style="fill-rule:nonzero;"/></g><g transform="matrix(136,0,0,136,851.759875,119.2)"></g></g></g></svg>